<?xml version="1.0" encoding="UTF-8"?>
<svg id="Layer_1" data-name="Layer 1" xmlns="http://www.w3.org/2000/svg" viewBox="0 0 424.05 428.26">
  <defs>
    <style>
      .cls-1 {
        fill: #fbc332;
      }

      .cls-2 {
        fill: #075985;
      }

      .cls-3 {
        fill: #f97316;
      }
    </style>
  </defs>
  <path class="cls-2" d="M201.31,128.06v110.94c0,3.97,3.36,7.34,7.34,7.34h75.51c9.45,0,9.47-14.69,0-14.69h-75.51l7.34,7.34v-110.94c0-9.45-14.69-9.47-14.69,0h0Z"/>
  <path class="cls-2" d="M136.49,298.22c16.41,11.97,35.86,20.22,55.87,23.65,27.76,4.76,56.03,.71,81.46-11.3,7.6-3.59,14.86-7.9,21.62-12.91,3.18-2.36,4.79-6.36,2.63-10.05-1.84-3.14-6.84-5.01-10.05-2.63-5.45,4.03-11.22,7.62-17.24,10.74-9.47,4.91-19.13,8.44-30.24,10.87-13.45,2.95-27.59,3.52-41.24,1.61-6.03-.84-12.02-2.21-17.85-3.95-5.51-1.64-10.88-3.65-15.34-5.7-7.82-3.59-15.28-7.94-22.23-13.02-3.21-2.34-8.19-.54-10.05,2.63-2.17,3.72-.58,7.7,2.63,10.05h0Z"/>
  <path class="cls-2" d="M260.09,147.12c4.38-14.26,17.7-24.05,32.36-23.82s27.42,10.63,31.36,24.97c2.5,9.1,16.67,5.24,14.16-3.9-4.33-15.76-16.26-28.41-31.8-33.51-15.81-5.18-33.22-1.03-45.72,9.66-6.95,5.94-11.85,14.01-14.52,22.71-2.78,9.05,11.39,12.93,14.16,3.9h0Z"/>
  <path class="cls-2" d="M91.78,147.12c4.38-14.26,17.7-24.05,32.36-23.82s27.42,10.63,31.36,24.97c2.5,9.1,16.67,5.24,14.16-3.9-4.33-15.76-16.26-28.41-31.8-33.51s-33.22-1.03-45.72,9.66c-6.95,5.94-11.85,14.01-14.52,22.71s11.39,12.93,14.16,3.9h0Z"/>
  <path class="cls-3" d="M38.59,283.71c-1.1-3.68-2.01-7.43-2.83-11.19-.75-3.41-1.41-6.84-2.01-10.28-.35-2.05-.68-4.1-.98-6.15-.08-.52-.15-1.05-.22-1.57-.37-2.59,.38,2.97,.26,1.92-.15-1.21-.31-2.41-.45-3.61-1.26-10.76-1.85-21.6-1.74-32.43,.07-6.37,.38-12.74,.95-19.08,.14-1.56,.3-3.12,.47-4.68,.09-.79,.18-1.58,.27-2.36,.05-.4,.1-.79,.15-1.19,.25-2.13-.2,1.34-.23,1.68,.37-3.37,1-6.74,1.61-10.08,2.63-14.37,6.83-28.26,12.22-41.82,.62-1.56-.7,1.65-.65,1.53,.19-.42,.36-.85,.55-1.27,.37-.85,.75-1.7,1.13-2.55,.84-1.85,1.7-3.69,2.59-5.51,1.75-3.58,3.62-7.1,5.59-10.57,4.12-7.23,8.7-14.2,13.71-20.84,.31-.41,.65-.81,.94-1.23,0,0-1.87,2.37-.8,1.05,.66-.81,1.3-1.64,1.96-2.45,.71-.87,1.42-1.73,2.14-2.59,.61-.73,1.23-1.45,1.85-2.17,1.78-2.05,3.61-4.05,5.48-6.02,5.64-5.94,11.63-11.53,17.9-16.79,1.94-1.62,3.91-3.2,5.89-4.76,1.87-1.47-3.01,2.29-1.09,.85,.51-.39,1.02-.78,1.54-1.16,1.14-.85,2.29-1.69,3.44-2.52,4.74-3.4,9.61-6.61,14.6-9.62,5.44-3.27,11.03-6.29,16.75-9.04,1.44-.69,2.88-1.36,4.33-2.02,.74-.33,1.47-.65,2.21-.98,3.01-1.34-2.55,1.04-.28,.11,3.21-1.31,6.45-2.57,9.72-3.72,7.01-2.47,14.16-4.53,21.41-6.15,3.73-.83,7.48-1.55,11.26-2.16,.92-.15,1.85-.27,2.78-.42,1.72-.28-1.87,.24-1.73,.22,.47-.05,.94-.12,1.41-.18,2.06-.25,4.12-.47,6.19-.66,7.89-.71,15.83-.91,23.75-.62,3.79,.14,7.58,.39,11.36,.75,1.81,.17,3.62,.37,5.42,.6,.45,.06,.9,.12,1.35,.17,.17,.02-3.53-.51-1.82-.24,1.04,.17,2.09,.31,3.14,.48,14.91,2.39,29.41,6.59,43.42,12.22,2.58,1.04-2.87-1.26-.33-.14,.83,.36,1.66,.72,2.48,1.09,1.79,.8,3.56,1.63,5.32,2.48,3.39,1.64,6.73,3.37,10.02,5.2,6.59,3.66,12.97,7.7,19.11,12.08,1.48,1.05,2.93,2.14,4.38,3.22,2.21,1.65-2.38-1.89-.22-.17,.83,.66,1.66,1.32,2.48,1.99,2.94,2.39,5.81,4.86,8.61,7.42,5.62,5.14,10.95,10.6,15.93,16.35,1.2,1.39,2.39,2.79,3.55,4.21,.58,.71,1.16,1.43,1.73,2.15,.29,.36,.57,.73,.86,1.08,1.23,1.54-1.88-2.49-.7-.91,2.3,3.1,4.58,6.2,6.72,9.41,4.84,7.22,9.2,14.76,13.01,22.57,1.01,2.07,1.99,4.16,2.92,6.26,.23,.52,.45,1.04,.69,1.56,.73,1.61-.46-1-.44-1.05-.22,.43,1.26,3.11,1.47,3.64,1.66,4.25,3.17,8.55,4.52,12.91,2.56,8.26,4.53,16.7,5.94,25.24,.16,.98,.32,1.97,.46,2.96,.08,.55,.1,1.4,.28,1.96,.02,.08-.42-3.35-.22-1.63,.23,2.09,.49,4.18,.69,6.28,.37,3.92,.62,7.85,.75,11.78,.26,7.39,.12,14.8-.39,22.18-.24,3.43-.56,6.86-.96,10.27-.09,.79-.19,1.58-.29,2.37-.32,2.68,.52-3.6,.13-.96-.24,1.63-.48,3.27-.75,4.9-.94,5.71-2.09,11.38-3.46,16.99-1.94,7.95-4.29,15.81-7.16,23.47-.4,1.07-.81,2.13-1.24,3.19-.16,.4-.33,.8-.49,1.2-.93,2.31,1.65-3.88,1.07-2.54-1.68,3.95-2.73,7.46-1.54,11.79,.98,3.55,3.72,7.39,7.03,9.14,6.56,3.47,17.58,2.37,20.93-5.49,6.93-16.27,11.76-33.26,14.54-50.73,5.33-33.5,4.25-67.95-5.82-100.51-10.72-34.66-30.79-66.47-57.46-91.07-24.47-22.56-54.07-39.38-86.05-48.63s-67.35-10.67-100.54-3.67c-27.62,5.83-54.18,17.9-77.18,34.21-14.66,10.39-28.43,22.22-40.26,35.77-20.18,23.12-35.16,50.31-43.91,79.73C1.77,180.7-1.1,208.97,.37,236.58c.92,17.23,3.24,34.64,7.63,51.35,.34,1.31,.7,2.62,1.09,3.91,2.29,7.66,10.83,13.27,18.82,10.68,7.74-2.51,13.14-10.61,10.68-18.82h0Z"/>
  <circle class="cls-1" cx="208.65" cy="64.49" r="11.11"/>
  <circle class="cls-1" cx="66.01" cy="215.72" r="11.11"/>
  <circle class="cls-1" cx="359.62" cy="215.72" r="11.11"/>
  <text/>
  <g>
    <g>
      <path class="cls-2" d="M69.36,358.74c-.94,.83-2.16,1.5-3.67,2-1.5,.5-3.22,.72-5.16,.66-1.93-.06-3.91-.58-5.93-1.54-2.02-.96-3.94-2.47-5.76-4.53-1.38-1.56-2.48-3.11-3.31-4.65-.83-1.54-1.39-3.1-1.69-4.7-.29-1.59-.32-3.28-.07-5.05,.24-1.6,.69-3.18,1.35-4.75,.66-1.57,1.52-3.06,2.58-4.49,1.06-1.43,2.32-2.79,3.79-4.08,2.38-2.1,4.81-3.63,7.31-4.6,2.49-.97,4.98-1.4,7.45-1.29,2.48,.11,4.83,.72,7.06,1.84,2.23,1.12,4.21,2.66,5.94,4.62,2.11,2.39,3.52,4.94,4.21,7.65,.69,2.71,.78,5.18,.25,7.42-.53,2.23-1.41,3.9-2.66,5.01-.69,.61-1.5,.9-2.46,.88-.95-.02-1.73-.37-2.33-1.06-.68-.77-1-1.5-.98-2.2,.02-.7,.27-1.68,.74-2.94,.78-2.07,1.06-3.96,.86-5.65-.21-1.7-.99-3.32-2.36-4.86-2.17-2.46-4.83-3.59-7.99-3.4-3.16,.19-6.45,1.81-9.89,4.84-2.3,2.03-3.93,4.04-4.88,6.03-.96,1.99-1.29,3.91-1,5.76,.29,1.85,1.14,3.56,2.54,5.15,1.52,1.72,3.23,2.8,5.13,3.23,1.9,.44,3.95,.23,6.14-.63,1-.43,1.92-.68,2.74-.73,.82-.06,1.6,.33,2.34,1.17,.63,.71,.92,1.54,.87,2.49-.05,.95-.44,1.75-1.18,2.4Z"/>
      <path class="cls-2" d="M61.16,361.65c-.21,0-.42,0-.64-.01-1.96-.06-3.99-.59-6.03-1.56-2.04-.97-4.01-2.52-5.83-4.59-1.38-1.56-2.51-3.14-3.34-4.69-.84-1.55-1.42-3.15-1.71-4.77-.3-1.61-.32-3.34-.07-5.13,.24-1.61,.7-3.23,1.37-4.81,.67-1.58,1.55-3.1,2.61-4.54,1.07-1.43,2.35-2.82,3.82-4.12,2.39-2.11,4.87-3.67,7.38-4.65,2.51-.98,5.05-1.42,7.55-1.3,2.5,.11,4.91,.74,7.15,1.86,2.25,1.13,4.27,2.7,6.01,4.67,2.13,2.41,3.56,5.02,4.26,7.75,.7,2.74,.79,5.27,.25,7.53-.54,2.27-1.46,4-2.74,5.13-.73,.64-1.61,.96-2.62,.94-1.02-.02-1.86-.41-2.51-1.14-.71-.81-1.06-1.61-1.04-2.37,.03-.73,.27-1.72,.76-3.01,.76-2.03,1.04-3.89,.84-5.54-.2-1.64-.97-3.23-2.3-4.73-2.11-2.39-4.73-3.5-7.8-3.32-3.09,.19-6.37,1.8-9.75,4.78-2.26,2-3.89,4-4.82,5.96-.93,1.94-1.26,3.83-.98,5.62,.28,1.79,1.12,3.48,2.48,5.03,1.48,1.67,3.16,2.74,5.01,3.16,1.85,.42,3.86,.22,6-.62,1.02-.44,1.96-.69,2.81-.75,.9-.06,1.75,.36,2.53,1.25,.67,.76,.98,1.65,.93,2.66-.05,1.01-.47,1.88-1.26,2.57-.96,.85-2.22,1.54-3.75,2.05-1.36,.45-2.9,.68-4.6,.68Zm4.35-39.7c-2.19,0-4.42,.43-6.62,1.29-2.45,.95-4.89,2.49-7.24,4.56-1.45,1.28-2.71,2.64-3.75,4.04-1.04,1.4-1.9,2.9-2.56,4.44s-1.1,3.12-1.34,4.69c-.25,1.74-.22,3.41,.07,4.97,.29,1.56,.85,3.12,1.66,4.63,.82,1.52,1.92,3.06,3.28,4.6,1.78,2.02,3.7,3.53,5.68,4.47,1.98,.95,3.95,1.46,5.84,1.52,1.9,.06,3.6-.16,5.07-.65,1.47-.49,2.67-1.15,3.59-1.95h0c.7-.61,1.05-1.35,1.1-2.24,.04-.89-.22-1.65-.81-2.32-.69-.78-1.39-1.14-2.14-1.09-.79,.05-1.69,.3-2.66,.72-2.23,.87-4.34,1.09-6.28,.64-1.94-.45-3.71-1.56-5.26-3.31-1.42-1.61-2.3-3.39-2.59-5.27-.3-1.89,.04-3.87,1.02-5.9,.96-2.01,2.63-4.06,4.94-6.11,3.47-3.06,6.84-4.71,10.04-4.9,3.22-.2,5.97,.98,8.18,3.48,1.39,1.57,2.2,3.25,2.41,4.99,.21,1.73-.08,3.66-.87,5.76-.46,1.23-.71,2.19-.73,2.86-.02,.64,.29,1.32,.92,2.04,.56,.64,1.27,.96,2.16,.98,.89,.03,1.65-.25,2.29-.82,1.21-1.07,2.08-2.71,2.59-4.88,.51-2.19,.43-4.64-.25-7.3-.68-2.66-2.08-5.2-4.16-7.56-1.7-1.93-3.68-3.46-5.87-4.56-2.19-1.1-4.53-1.71-6.96-1.81-.24-.01-.49-.02-.74-.02Z"/>
    </g>
    <g>
      <path class="cls-2" d="M109.25,363.76l-14.28-10.94-5.89,7.68,13.15,10.08c.97,.74,1.52,1.51,1.67,2.31,.14,.8-.06,1.55-.6,2.27-.55,.71-1.22,1.11-2.04,1.2-.81,.09-1.71-.24-2.69-1l-13.15-10.08-6.82,8.9,14.77,11.32c1,.76,1.57,1.57,1.72,2.42,.15,.85-.07,1.66-.66,2.43-.57,.74-1.28,1.15-2.14,1.22-.86,.08-1.79-.27-2.78-1.03l-17.22-13.2c-1.38-1.06-2.14-2.12-2.27-3.2-.14-1.08,.32-2.3,1.37-3.66l18.03-23.52c.7-.91,1.4-1.55,2.12-1.92,.71-.37,1.46-.46,2.23-.29,.78,.18,1.62,.61,2.51,1.3l16.73,12.83c1.01,.77,1.59,1.57,1.74,2.4,.15,.82-.06,1.6-.61,2.33-.57,.74-1.27,1.15-2.1,1.22-.83,.07-1.76-.28-2.77-1.05Z"/>
      <path class="cls-2" d="M92.05,391.82c-.84,0-1.75-.37-2.7-1.09l-17.22-13.2c-1.43-1.09-2.22-2.22-2.37-3.36-.14-1.13,.33-2.42,1.41-3.84l18.03-23.52c.72-.94,1.46-1.6,2.19-1.99,.76-.39,1.57-.5,2.4-.31,.81,.19,1.69,.64,2.6,1.34l16.73,12.83c1.05,.81,1.67,1.66,1.83,2.55,.16,.89-.06,1.73-.66,2.51-.61,.79-1.37,1.23-2.27,1.31-.89,.07-1.88-.29-2.93-1.1l-14.09-10.8-5.6,7.3,12.96,9.93c1.01,.77,1.6,1.6,1.76,2.46,.16,.86-.06,1.69-.65,2.45-.58,.76-1.32,1.2-2.2,1.29-.87,.1-1.84-.26-2.86-1.04l-12.96-9.93-6.53,8.52,14.58,11.18c1.04,.8,1.65,1.66,1.81,2.57,.16,.91-.07,1.79-.7,2.61-.61,.79-1.38,1.23-2.31,1.31-.08,0-.17,.01-.25,.01Zm.94-46.92c-.47,0-.92,.12-1.37,.35-.68,.35-1.36,.97-2.04,1.85l-18.03,23.52c-1,1.31-1.45,2.48-1.32,3.49,.13,1,.86,2.03,2.18,3.04l17.22,13.2c.94,.72,1.82,1.05,2.62,.98,.8-.07,1.44-.44,1.97-1.13,.55-.72,.75-1.45,.61-2.24-.14-.79-.69-1.55-1.63-2.27l-14.96-11.47,7.11-9.28,13.34,10.22c.93,.71,1.77,1.03,2.52,.95,.75-.08,1.37-.44,1.87-1.11,.51-.66,.69-1.34,.56-2.08-.13-.74-.66-1.46-1.58-2.17l-13.34-10.22,6.18-8.06,14.47,11.09c.96,.73,1.83,1.07,2.6,1.01,.77-.07,1.4-.43,1.93-1.13,.52-.68,.7-1.38,.57-2.14-.14-.76-.69-1.52-1.65-2.25l-16.73-12.83c-.86-.66-1.68-1.08-2.42-1.26-.24-.05-.47-.08-.7-.08Z"/>
    </g>
    <g>
      <path class="cls-2" d="M125.89,405.44l.51-5.27-14.36-7.12-3.93,3.69c-1.53,1.44-2.69,2.35-3.46,2.74-.77,.39-1.69,.32-2.75-.21-.9-.45-1.53-1.17-1.89-2.17-.36-1-.34-1.92,.07-2.75,.24-.48,.57-.94,.98-1.37,.42-.43,1.03-1.02,1.86-1.75l20.4-18.46c.58-.53,1.28-1.17,2.1-1.91,.82-.74,1.58-1.32,2.3-1.73s1.5-.63,2.35-.68c.85-.05,1.77,.17,2.75,.66,1,.49,1.73,1.09,2.21,1.8,.48,.71,.78,1.46,.89,2.26,.12,.8,.14,1.61,.09,2.43-.06,.82-.15,1.91-.28,3.27l-2.07,27.37c-.14,2.09-.4,3.53-.79,4.32-.41,.82-1.12,1.4-2.14,1.75-1.02,.34-2.01,.28-2.98-.2-.56-.28-.99-.62-1.3-1.02-.3-.4-.5-.84-.61-1.32-.1-.48-.13-1.16-.09-2.03,.04-.87,.09-1.63,.13-2.29Zm-9.31-16.83l10.55,5.23,1.9-17.22-12.45,11.99Z"/>
      <path class="cls-2" d="M129.46,412.75c-.62,0-1.22-.15-1.82-.44-.59-.29-1.06-.66-1.38-1.09-.32-.43-.54-.9-.65-1.41-.11-.5-.14-1.19-.1-2.09,.04-.87,.09-1.64,.13-2.3h0s.5-5.11,.5-5.11l-14.06-6.97-3.81,3.58c-1.57,1.47-2.72,2.38-3.52,2.78-.84,.42-1.84,.35-2.96-.21-.95-.47-1.63-1.25-2.01-2.3-.39-1.06-.36-2.05,.08-2.94,.25-.5,.59-.98,1.02-1.43,.41-.43,1.04-1.03,1.87-1.76l22.51-20.37c.83-.75,1.61-1.34,2.34-1.76,.74-.42,1.57-.66,2.45-.71,.89-.05,1.86,.18,2.87,.68,1.03,.51,1.8,1.14,2.3,1.88,.5,.74,.81,1.53,.93,2.36,.12,.81,.15,1.64,.09,2.48-.06,.82-.15,1.89-.28,3.27l-2.07,27.36c-.14,2.14-.41,3.58-.82,4.41-.43,.87-1.2,1.5-2.28,1.87-.45,.15-.9,.23-1.34,.23Zm-3.34-7.29c-.05,.66-.09,1.42-.13,2.28-.04,.85-.01,1.51,.09,1.97,.09,.44,.28,.85,.56,1.23,.28,.37,.69,.69,1.21,.95,.91,.45,1.83,.51,2.8,.19,.97-.33,1.62-.86,2-1.63,.37-.75,.63-2.18,.77-4.23l2.07-27.37c.13-1.36,.23-2.46,.28-3.26,.06-.8,.03-1.6-.08-2.38-.11-.76-.4-1.48-.85-2.16-.45-.67-1.17-1.25-2.12-1.72-.94-.47-1.83-.68-2.63-.63-.81,.05-1.57,.26-2.24,.65-.7,.4-1.45,.97-2.25,1.7l-2.1,1.91-20.4,18.46c-.82,.73-1.44,1.31-1.85,1.74-.4,.42-.71,.86-.94,1.32-.39,.78-.41,1.62-.06,2.57,.34,.94,.94,1.62,1.78,2.04,1,.5,1.83,.56,2.54,.21,.75-.37,1.89-1.28,3.4-2.7l4.05-3.81,14.66,7.26-.53,5.43Zm1.21-11.25l-11.16-5.53,13.17-12.68-2.01,18.21Zm-10.34-5.66l9.95,4.93,1.79-16.22-11.74,11.29Z"/>
    </g>
    <g>
      <path class="cls-2" d="M172.89,412.81c-.63,2.3-1.78,4.21-3.47,5.71-1.69,1.51-3.81,2.47-6.38,2.89-2.57,.41-5.41,.19-8.54-.66-3.75-1.02-6.66-2.58-8.71-4.66-1.45-1.49-2.48-3.24-3.1-5.24-.62-2-.7-3.8-.27-5.41,.26-.93,.8-1.65,1.63-2.13,.83-.49,1.75-.6,2.75-.32,.81,.22,1.43,.67,1.85,1.34,.42,.67,.69,1.57,.81,2.7,.15,1.34,.4,2.5,.74,3.46,.34,.97,.95,1.85,1.82,2.66,.88,.81,2.14,1.44,3.8,1.89,2.28,.62,4.28,.6,6-.08,1.72-.67,2.79-1.81,3.23-3.4,.34-1.26,.24-2.39-.32-3.39-.55-1-1.38-1.87-2.49-2.62-1.11-.75-2.62-1.63-4.53-2.66-2.56-1.39-4.64-2.76-6.25-4.12-1.61-1.36-2.75-2.93-3.43-4.7-.68-1.77-.72-3.76-.12-5.96,.57-2.09,1.65-3.8,3.23-5.11,1.59-1.31,3.58-2.11,5.98-2.4,2.4-.28,5.06-.03,7.98,.77,2.33,.64,4.27,1.48,5.82,2.52,1.55,1.04,2.75,2.2,3.61,3.47,.86,1.27,1.41,2.5,1.64,3.7,.23,1.2,.21,2.3-.06,3.3-.25,.92-.8,1.65-1.65,2.21-.85,.56-1.76,.71-2.73,.44-.88-.24-1.49-.64-1.83-1.21-.34-.57-.64-1.42-.9-2.57-.3-1.62-.82-2.97-1.57-4.04-.75-1.07-2.2-1.9-4.34-2.48-1.99-.54-3.71-.54-5.17,0-1.46,.54-2.35,1.42-2.69,2.65-.21,.76-.18,1.47,.08,2.14,.26,.67,.7,1.3,1.32,1.89s1.27,1.11,1.95,1.54c.68,.43,1.82,1.09,3.41,1.99,2.01,1.09,3.8,2.17,5.37,3.25,1.57,1.08,2.85,2.22,3.83,3.42s1.64,2.55,1.96,4.06c.32,1.51,.22,3.22-.3,5.14Z"/>
      <path class="cls-2" d="M160.45,421.85c-1.88,0-3.89-.29-6.01-.87-3.78-1.03-6.74-2.62-8.81-4.73-1.47-1.51-2.53-3.31-3.16-5.33-.63-2.03-.72-3.9-.27-5.54,.27-.99,.86-1.76,1.74-2.28,.88-.52,1.87-.64,2.93-.35,.87,.24,1.54,.72,1.99,1.45,.44,.7,.72,1.64,.84,2.8,.15,1.32,.4,2.47,.73,3.41,.33,.93,.92,1.79,1.76,2.56,.84,.78,2.09,1.39,3.71,1.83,2.22,.61,4.19,.58,5.85-.07,1.66-.65,2.67-1.71,3.08-3.24,.33-1.19,.23-2.27-.29-3.21-.53-.96-1.35-1.81-2.42-2.54-1.09-.74-2.61-1.63-4.51-2.65-2.56-1.39-4.68-2.78-6.29-4.15-1.63-1.38-2.81-2.99-3.5-4.8-.69-1.81-.73-3.87-.12-6.1,.58-2.13,1.7-3.89,3.31-5.23,1.61-1.34,3.67-2.16,6.1-2.45,2.42-.29,5.14-.02,8.07,.78,2.35,.64,4.33,1.5,5.89,2.56,1.56,1.06,2.8,2.24,3.67,3.53,.88,1.29,1.44,2.56,1.68,3.78,.24,1.23,.21,2.37-.07,3.41-.27,.97-.86,1.76-1.75,2.35-.9,.59-1.89,.75-2.92,.47-.94-.26-1.6-.7-1.97-1.32-.35-.58-.66-1.47-.93-2.64-.29-1.59-.81-2.92-1.54-3.96-.71-1.02-2.13-1.82-4.21-2.39-1.93-.53-3.62-.53-5.02-.01-1.39,.52-2.23,1.33-2.54,2.49-.19,.71-.17,1.38,.08,1.99,.25,.63,.68,1.24,1.27,1.81,.6,.58,1.25,1.09,1.91,1.51,.68,.42,1.82,1.09,3.4,1.99,2,1.08,3.82,2.18,5.39,3.26,1.59,1.09,2.89,2.25,3.88,3.46,1,1.22,1.68,2.62,2.01,4.16,.33,1.54,.23,3.31-.31,5.26l-.23-.06,.23,.06c-.64,2.33-1.83,4.3-3.54,5.83-1.71,1.53-3.9,2.52-6.5,2.94-.84,.14-1.72,.2-2.63,.2Zm-14.7-18.78c-.56,0-1.08,.15-1.58,.44-.78,.46-1.28,1.11-1.52,1.99-.43,1.56-.34,3.33,.26,5.28,.6,1.95,1.62,3.68,3.04,5.14,2.01,2.04,4.9,3.59,8.6,4.6,3.08,.84,5.92,1.06,8.44,.66,2.51-.4,4.61-1.36,6.26-2.83,1.64-1.47,2.79-3.36,3.4-5.6,.51-1.87,.61-3.57,.3-5.03-.31-1.46-.95-2.8-1.91-3.96-.96-1.17-2.24-2.31-3.78-3.37-1.56-1.07-3.36-2.16-5.35-3.24-1.59-.9-2.75-1.57-3.43-2-.69-.43-1.36-.96-1.99-1.57-.64-.62-1.1-1.28-1.38-1.98-.28-.71-.31-1.49-.09-2.29,.35-1.3,1.31-2.25,2.84-2.81,1.5-.56,3.29-.56,5.31,0,2.19,.6,3.69,1.46,4.47,2.57,.76,1.09,1.31,2.48,1.61,4.13,.25,1.11,.55,1.95,.87,2.49,.3,.51,.87,.88,1.69,1.1,.91,.25,1.74,.11,2.53-.41,.81-.53,1.31-1.21,1.55-2.08,.26-.96,.28-2.04,.06-3.19-.22-1.16-.76-2.37-1.6-3.61-.84-1.24-2.03-2.38-3.55-3.4-1.52-1.02-3.45-1.86-5.75-2.49-2.88-.79-5.54-1.04-7.89-.77-2.34,.28-4.31,1.06-5.86,2.34-1.54,1.28-2.6,2.96-3.16,4.99-.58,2.14-.55,4.09,.11,5.81,.66,1.73,1.79,3.28,3.36,4.6,1.59,1.34,3.68,2.72,6.21,4.09,1.91,1.02,3.44,1.92,4.55,2.67,1.13,.77,1.99,1.67,2.57,2.7,.58,1.05,.7,2.25,.34,3.57-.45,1.66-1.59,2.86-3.37,3.56-1.76,.69-3.83,.72-6.15,.08-1.69-.46-3-1.12-3.9-1.94-.9-.83-1.54-1.76-1.89-2.76-.34-.98-.6-2.16-.75-3.52-.12-1.09-.38-1.97-.77-2.6-.39-.63-.95-1.03-1.71-1.24-.34-.09-.67-.14-.99-.14Z"/>
    </g>
    <g>
      <path class="cls-2" d="M181.62,409.85l1.3-18.91c.11-1.61,.56-2.79,1.34-3.55,.78-.76,1.76-1.09,2.94-1.01,1.23,.09,2.19,.56,2.85,1.41,.67,.85,.95,2.09,.84,3.7l-1.33,19.34c-.15,2.2-.03,4.05,.36,5.56,.39,1.51,1.18,2.71,2.38,3.61,1.2,.9,2.92,1.43,5.17,1.58,3.11,.21,5.37-.46,6.77-2.03,1.4-1.57,2.22-4.03,2.45-7.39l1.35-19.5c.11-1.63,.55-2.81,1.32-3.56,.77-.75,1.75-1.08,2.95-1,1.2,.08,2.14,.55,2.83,1.39,.69,.85,.97,2.08,.86,3.71l-1.3,18.91c-.21,3.08-.69,5.62-1.43,7.64-.74,2.02-2,3.74-3.77,5.18-1.52,1.23-3.25,2.08-5.19,2.55-1.94,.48-4.18,.63-6.72,.45-3.02-.21-5.6-.71-7.74-1.52-2.14-.8-3.85-1.94-5.13-3.4s-2.17-3.29-2.67-5.47c-.5-2.18-.64-4.76-.44-7.73Z"/>
      <path class="cls-2" d="M199.56,428.26c-.64,0-1.3-.02-1.98-.07-3.03-.21-5.66-.73-7.81-1.53-2.16-.81-3.92-1.98-5.23-3.47-1.3-1.49-2.22-3.36-2.72-5.57-.5-2.19-.65-4.82-.44-7.8l1.3-18.91c.11-1.66,.59-2.91,1.41-3.7,.83-.8,1.87-1.16,3.12-1.08,1.3,.09,2.32,.59,3.03,1.5,.7,.9,1,2.2,.89,3.86l-1.33,19.34c-.15,2.17-.03,4.01,.35,5.49,.37,1.45,1.15,2.62,2.29,3.48,1.15,.87,2.85,1.38,5.05,1.54,3.02,.21,5.23-.45,6.58-1.95,1.36-1.52,2.16-3.96,2.39-7.25l1.35-19.5c.12-1.68,.59-2.93,1.4-3.72,.82-.79,1.87-1.15,3.14-1.06,1.26,.09,2.27,.59,3,1.48,.72,.89,1.03,2.2,.92,3.88l-1.3,18.91c-.21,3.08-.7,5.68-1.44,7.7-.75,2.05-2.04,3.83-3.84,5.29-1.54,1.24-3.32,2.12-5.28,2.6-1.43,.35-3.04,.53-4.81,.53Zm-17.7-18.4c-.2,2.93-.06,5.51,.43,7.66,.49,2.13,1.37,3.94,2.62,5.36,1.25,1.43,2.95,2.55,5.03,3.33,2.1,.79,4.69,1.3,7.67,1.5,2.5,.17,4.74,.02,6.64-.45,1.89-.47,3.61-1.31,5.1-2.51,1.73-1.41,2.97-3.12,3.69-5.08,.73-1.99,1.21-4.53,1.42-7.57l1.3-18.91c.11-1.56-.17-2.75-.81-3.55-.65-.8-1.52-1.23-2.66-1.31-1.14-.08-2.05,.23-2.77,.93-.72,.7-1.14,1.85-1.25,3.41l-1.35,19.5c-.24,3.4-1.08,5.94-2.51,7.54-1.45,1.62-3.79,2.32-6.96,2.1-2.29-.16-4.07-.71-5.3-1.63-1.23-.93-2.06-2.19-2.47-3.74-.39-1.52-.52-3.42-.37-5.64l1.33-19.34c.11-1.54-.16-2.73-.79-3.53-.63-.81-1.51-1.24-2.68-1.32-1.12-.08-2.02,.23-2.76,.94-.73,.71-1.16,1.85-1.26,3.39l-1.3,18.91Z"/>
    </g>
    <g>
      <path class="cls-2" d="M229.6,391.73l3.42,28.49,16.07-1.93c1.28-.15,2.3,.04,3.06,.58,.76,.54,1.2,1.28,1.31,2.23,.12,.96-.13,1.78-.73,2.46-.6,.68-1.56,1.1-2.86,1.25l-19.14,2.3c-1.73,.21-3.01-.03-3.86-.7-.85-.67-1.38-1.87-1.58-3.57l-3.62-30.14c-.19-1.6,.02-2.85,.65-3.73,.62-.89,1.52-1.4,2.7-1.54,1.19-.14,2.21,.14,3.04,.84,.83,.7,1.35,1.87,1.54,3.48Z"/>
      <path class="cls-2" d="M229.61,427.41c-1.22,0-2.19-.28-2.88-.82-.89-.71-1.46-1.97-1.67-3.73l-3.62-30.14c-.2-1.65,.03-2.97,.69-3.9,.66-.94,1.63-1.49,2.87-1.64,1.26-.15,2.34,.15,3.22,.89,.88,.74,1.42,1.96,1.63,3.64l3.4,28.25,15.84-1.9c1.34-.16,2.42,.05,3.23,.62,.81,.58,1.29,1.38,1.41,2.39,.12,1.03-.14,1.92-.79,2.64-.64,.72-1.65,1.17-3,1.33l-19.14,2.3c-.41,.05-.8,.07-1.16,.07Zm-3.99-39.81c-.18,0-.37,.01-.57,.04-1.11,.13-1.94,.61-2.53,1.44-.59,.83-.79,2.03-.61,3.57l3.62,30.14c.2,1.64,.7,2.79,1.49,3.42,.79,.63,2.03,.85,3.69,.65l19.14-2.3c1.23-.15,2.14-.54,2.71-1.17,.56-.63,.78-1.37,.68-2.27-.11-.88-.5-1.56-1.21-2.06-.71-.5-1.68-.68-2.9-.54l-16.31,1.96-3.45-28.72c-.19-1.55-.68-2.67-1.46-3.33-.65-.55-1.41-.82-2.29-.82Z"/>
    </g>
    <g>
      <path class="cls-2" d="M293,412.27l-11.22,4.39c-1.62,.63-2.92,.72-3.89,.27-.98-.45-1.78-1.47-2.4-3.06l-10.81-27.59c-.63-1.62-.74-2.92-.3-3.91,.43-.99,1.44-1.79,3.03-2.41l11.89-4.66c1.75-.69,3.31-1.17,4.68-1.46,1.37-.29,2.69-.32,3.95-.1,1.07,.18,2.1,.53,3.07,1.06,.98,.53,1.83,1.21,2.56,2.03,.73,.82,1.3,1.77,1.72,2.84,1.44,3.67,.65,7.08-2.35,10.22,5.43-.35,9.01,1.69,10.75,6.13,.8,2.05,1,4.11,.59,6.16s-1.35,3.83-2.83,5.31c-.94,.91-2.09,1.74-3.47,2.5s-3.03,1.52-4.97,2.28Zm-20.48-27.88l3.72,9.49,6.81-2.67c1.85-.73,3.22-1.46,4.09-2.21,.87-.75,1.38-1.72,1.53-2.91,.14-.86,.04-1.73-.3-2.6-.73-1.85-1.87-2.83-3.43-2.92-1.56-.09-3.69,.39-6.39,1.45l-6.03,2.36Zm13.54,11.79l-7.74,3.03,4.2,10.72,7.99-3.13c5.02-1.97,6.83-4.76,5.41-8.38-.73-1.85-1.9-2.94-3.53-3.27-1.63-.32-3.74,.02-6.32,1.03Z"/>
      <path class="cls-2" d="M279.28,417.45c-.56,0-1.05-.1-1.49-.31-1.03-.48-1.88-1.55-2.52-3.19l-10.81-27.59c-.66-1.67-.76-3.05-.3-4.09,.46-1.04,1.52-1.9,3.16-2.54l11.89-4.66c1.75-.69,3.34-1.18,4.72-1.47,1.39-.29,2.75-.33,4.04-.1,1.09,.18,2.15,.55,3.15,1.09,1,.54,1.88,1.24,2.62,2.08,.74,.84,1.33,1.82,1.76,2.91,1.4,3.58,.73,6.96-2,10.04,5.2-.18,8.69,1.94,10.4,6.31,.82,2.09,1.02,4.21,.61,6.3-.42,2.09-1.39,3.92-2.9,5.43-.95,.92-2.13,1.77-3.52,2.54-1.38,.76-3.06,1.53-5,2.29l-11.22,4.39c-.97,.38-1.83,.57-2.59,.57Zm6.99-43.62c-.73,0-1.47,.08-2.23,.24-1.36,.28-2.92,.77-4.65,1.45l-11.89,4.66c-1.52,.59-2.49,1.36-2.89,2.29-.4,.92-.3,2.18,.31,3.73l10.81,27.59c.6,1.52,1.36,2.51,2.28,2.93,.91,.42,2.16,.33,3.71-.28l11.22-4.39c1.92-.75,3.58-1.51,4.94-2.27,1.35-.75,2.5-1.58,3.42-2.46,1.44-1.44,2.37-3.19,2.76-5.19,.4-2,.2-4.03-.58-6.03-1.71-4.37-5.15-6.33-10.51-5.98l-.61,.04,.42-.44c2.92-3.05,3.7-6.41,2.3-9.97-.41-1.04-.97-1.97-1.67-2.77-.7-.8-1.54-1.46-2.49-1.98-.95-.52-1.96-.87-3-1.04-.53-.09-1.07-.14-1.63-.14Zm-3.87,36.41l-4.37-11.16,7.96-3.12c2.62-1.02,4.79-1.38,6.46-1.04,1.71,.34,2.95,1.49,3.71,3.41,.74,1.88,.63,3.57-.31,5.03-.93,1.43-2.69,2.67-5.23,3.66l-8.21,3.21Zm-3.75-10.89l4.02,10.27,7.77-3.04c2.45-.96,4.14-2.13,5.01-3.48,.87-1.34,.95-2.85,.27-4.6-.7-1.79-1.8-2.81-3.36-3.12-1.58-.31-3.66,.03-6.19,1.02l-7.52,2.94Zm-2.53-5.16l-3.89-9.93,6.26-2.45c2.72-1.07,4.91-1.56,6.49-1.47,1.65,.1,2.87,1.13,3.63,3.07,.35,.9,.46,1.82,.31,2.72-.15,1.24-.7,2.27-1.61,3.05-.89,.76-2.29,1.52-4.16,2.25l-7.03,2.75Zm-3.27-9.66l3.54,9.05,6.59-2.58c1.82-.71,3.17-1.44,4.02-2.17,.82-.7,1.31-1.63,1.45-2.76,.14-.83,.04-1.66-.28-2.48-.7-1.77-1.75-2.68-3.22-2.77-1.51-.09-3.63,.39-6.29,1.43l-5.81,2.28Z"/>
    </g>
    <g>
      <path class="cls-2" d="M306.89,388.66l-10.23-15.96c-.87-1.36-1.22-2.57-1.04-3.64,.18-1.07,.76-1.93,1.76-2.56,1.04-.67,2.09-.86,3.13-.57s2,1.11,2.88,2.47l10.46,16.33c1.19,1.86,2.39,3.28,3.6,4.26,1.21,.98,2.57,1.47,4.06,1.48,1.5,.01,3.2-.59,5.1-1.81,2.63-1.68,4.04-3.57,4.23-5.66,.19-2.09-.62-4.56-2.44-7.4l-10.54-16.46c-.88-1.37-1.23-2.59-1.06-3.65,.17-1.06,.77-1.91,1.78-2.56,1.01-.65,2.05-.84,3.1-.57,1.06,.27,2.02,1.09,2.91,2.47l10.23,15.96c1.66,2.6,2.8,4.93,3.4,6.98,.61,2.06,.63,4.2,.07,6.41-.49,1.89-1.37,3.61-2.65,5.14-1.27,1.54-2.98,2.99-5.12,4.37-2.55,1.63-4.92,2.77-7.12,3.39-2.19,.63-4.24,.74-6.15,.33-1.9-.41-3.7-1.34-5.4-2.8-1.7-1.46-3.35-3.44-4.96-5.94Z"/>
      <path class="cls-2" d="M319.56,397.89c-.81,0-1.6-.08-2.37-.25-1.93-.42-3.78-1.38-5.51-2.85-1.71-1.46-3.39-3.48-5-6l-10.23-15.96c-.9-1.4-1.26-2.68-1.08-3.81,.19-1.14,.81-2.05,1.87-2.73,1.1-.7,2.21-.9,3.32-.6,1.1,.3,2.11,1.17,3.01,2.57l10.46,16.33c1.17,1.83,2.37,3.24,3.55,4.2,1.16,.94,2.48,1.42,3.92,1.43h.04c1.43,0,3.09-.6,4.93-1.77,2.55-1.63,3.94-3.48,4.12-5.48,.19-2.03-.62-4.47-2.4-7.25l-10.54-16.46c-.91-1.42-1.28-2.7-1.09-3.82,.18-1.12,.82-2.04,1.88-2.72,1.06-.68,2.17-.88,3.29-.6,1.11,.29,2.14,1.15,3.05,2.57l10.23,15.96c1.67,2.6,2.82,4.97,3.43,7.05,.62,2.09,.64,4.29,.07,6.54-.5,1.92-1.4,3.68-2.69,5.24-1.28,1.55-3.02,3.04-5.18,4.42-2.56,1.64-4.97,2.79-7.18,3.42-1.34,.39-2.65,.58-3.89,.58Zm-20-31.86c-.68,0-1.36,.22-2.05,.66-.95,.61-1.49,1.39-1.65,2.4-.17,1.01,.17,2.18,1.01,3.48l10.23,15.96c1.59,2.47,3.24,4.46,4.91,5.89,1.66,1.42,3.44,2.35,5.3,2.75,1.86,.4,3.88,.29,6.03-.32,2.16-.62,4.54-1.75,7.06-3.37,2.11-1.35,3.82-2.81,5.07-4.32,1.24-1.5,2.12-3.2,2.6-5.05,.55-2.16,.53-4.27-.06-6.28-.6-2.03-1.73-4.36-3.38-6.92l-10.23-15.96c-.84-1.31-1.77-2.11-2.76-2.36-.99-.25-1.97-.07-2.92,.54-.96,.62-1.51,1.4-1.67,2.4-.16,.99,.18,2.17,1.02,3.48l10.54,16.46c1.84,2.87,2.67,5.41,2.47,7.55-.2,2.16-1.66,4.12-4.34,5.84-1.92,1.23-3.66,1.85-5.19,1.85h-.04c-1.55-.01-2.96-.53-4.21-1.54-1.23-.99-2.46-2.44-3.65-4.31l-10.46-16.33c-.83-1.3-1.75-2.1-2.74-2.37-.3-.08-.59-.12-.89-.12Z"/>
    </g>
    <g>
      <path class="cls-2" d="M336.19,344.16l27.32,5.42-16.67-16.49c-1.08-1.07-1.67-2.11-1.75-3.11-.08-1,.27-1.9,1.05-2.69,.81-.82,1.71-1.19,2.72-1.13,1.01,.06,2.05,.63,3.14,1.7l22.05,21.8c2.46,2.43,2.68,4.67,.67,6.71-.5,.51-1.03,.9-1.58,1.16-.55,.26-1.16,.42-1.83,.46-.67,.04-1.37,0-2.1-.11-.73-.12-1.47-.24-2.22-.38l-26.86-5.5,16.43,16.24c1.07,1.06,1.63,2.11,1.69,3.15,.06,1.04-.3,1.95-1.07,2.72-.79,.8-1.71,1.17-2.74,1.11-1.03-.06-2.08-.62-3.14-1.67l-21.63-21.39c-.92-.91-1.54-1.72-1.86-2.44-.33-.81-.41-1.67-.21-2.59,.19-.92,.61-1.71,1.25-2.36,.5-.51,1.02-.86,1.54-1.06,.52-.2,1.06-.3,1.61-.29s1.19,.08,1.92,.24c.73,.15,1.49,.32,2.27,.49Z"/>
      <path class="cls-2" d="M354.64,375.47c-.08,0-.16,0-.24,0-1.09-.07-2.19-.65-3.29-1.73l-21.63-21.39c-.93-.92-1.58-1.77-1.91-2.51-.35-.86-.43-1.78-.23-2.74,.2-.96,.64-1.79,1.32-2.47,.53-.53,1.07-.91,1.63-1.12,.55-.21,1.1-.31,1.7-.31,.56,0,1.23,.08,1.97,.24,.73,.15,1.49,.32,2.27,.49l26.54,5.26-16.11-15.93c-1.12-1.11-1.73-2.2-1.82-3.26-.09-1.07,.29-2.04,1.12-2.87,.85-.86,1.84-1.27,2.91-1.2,1.06,.07,2.17,.66,3.29,1.77l22.05,21.8c2.56,2.53,2.79,4.9,.67,7.05-.52,.53-1.08,.93-1.65,1.21-.58,.28-1.22,.44-1.92,.48-.69,.04-1.41,0-2.15-.11-.73-.12-1.47-.24-2.22-.38l-26.08-5.34,15.86,15.68c1.11,1.1,1.7,2.21,1.76,3.3,.06,1.1-.32,2.08-1.14,2.9-.78,.79-1.68,1.19-2.68,1.19Zm-22.67-31.81c-.51,0-1.02,.09-1.51,.28-.49,.19-.98,.53-1.46,1.01-.61,.61-1.01,1.37-1.19,2.24-.18,.87-.11,1.69,.2,2.46,.3,.68,.91,1.48,1.81,2.36l21.63,21.39c1.01,1,2.02,1.54,2.98,1.6,.97,.06,1.81-.28,2.56-1.04,.73-.73,1.05-1.57,1-2.54-.05-.97-.6-1.98-1.62-2.99l-16.99-16.81,27.65,5.66c.74,.13,1.48,.26,2.21,.38,.71,.11,1.4,.15,2.05,.11,.64-.04,1.22-.19,1.74-.43,.52-.25,1.03-.62,1.52-1.11,1.92-1.94,1.71-4.03-.66-6.37l-22.05-21.8c-1.04-1.02-2.04-1.57-2.98-1.63-.94-.06-1.78,.29-2.54,1.06-.74,.75-1.06,1.56-.98,2.5,.08,.94,.64,1.93,1.68,2.96l17.24,17.04-28.1-5.57c-.79-.17-1.54-.34-2.27-.49-.71-.15-1.34-.23-1.87-.23h-.02Z"/>
    </g>
  </g>
</svg>