<svg width="64" height="64" viewBox="0 0 64 64" fill="none" xmlns="http://www.w3.org/2000/svg">
<g id="Layer_1">
<g id="Group">
<path id="Vector" d="M31.5 25C38.4028 25 44 19.4035 44 12.5C44 5.59645 38.4028 0 31.5 0C24.5967 0 19 5.59645 19 12.5C19 19.4035 24.5967 25 31.5 25ZM31.5 2C37.2895 2 42 6.7102 42 12.5C42 18.2898 37.2895 23 31.5 23C25.7104 23 21 18.2898 21 12.5C21 6.7102 25.7104 2 31.5 2Z" fill="black"/>
<path id="Vector_2" d="M56.4548 45.4985C55.9939 44.0718 55.5237 42.7119 55.0403 41.4165L53.6848 43.5478C53.9739 44.3662 54.261 45.2134 54.5456 46.0947L58.9407 60.165C59.0495 60.5122 59.0124 60.7646 58.8132 61.0361C58.4094 61.5854 57.4714 62 56.6311 62H51.4958C51.4958 61.895 51.4841 61.7885 51.449 61.6836L47.449 49.6836C47.302 49.2422 46.8762 48.9746 46.4319 49.0058C46.1662 49.2788 45.8669 49.5122 45.5451 49.7099C45.4866 49.9013 45.4831 50.1118 45.5515 50.3164L49.446 62H13.0544L16.949 50.3164C17.1238 49.7925 16.8406 49.226 16.3166 49.0512C15.7908 48.876 15.2263 49.1601 15.0515 49.6836L11.0515 61.6836C11.0163 61.7885 11.0046 61.895 11.0046 62H6.28003C5.48363 62 4.71458 61.6997 4.32153 61.2353C4.05003 60.9145 3.95188 60.5049 4.02268 59.9844L7.83813 46.0259L7.84888 45.9868L7.85763 45.9472C9.50218 38.8066 12.1203 33.4458 15.6389 30.0146C18.1755 27.5412 21.2004 26.0034 24.8069 25.3564C23.9822 24.9253 23.2043 24.4175 22.4822 23.8418C14.1765 26.164 8.71313 33.3222 5.90893 45.4985L2.06324 59.5674C1.58228 62.4414 3.95043 64 6.28003 64H56.6311C58.9612 64 61.6736 62.1997 60.8493 59.5674L56.4548 45.4985Z" fill="black"/>
<path id="Vector_3" d="M62.6072 19.2743C62.1672 18.9386 61.5403 19.0236 61.2058 19.4618C56.9695 25.0055 55.5217 27.017 55.5075 27.0365C55.2546 27.3886 55.2668 27.8476 55.4992 28.1852C55.8342 30.0683 55.7619 31.7182 55.2712 33.0883C54.7063 34.6698 53.7688 36.0732 52.7766 37.558C52.4724 38.0131 52.1687 38.4677 51.8767 38.9267L48.5427 44.1694C48.4538 44.31 48.3181 44.4067 48.1599 44.4418C48.0129 44.4755 47.8611 44.4487 47.7346 44.3671C47.4602 44.1918 47.384 43.8163 47.5647 43.5307L51.1799 37.8051C51.4748 37.3383 51.3352 36.7206 50.8679 36.4257C50.4021 36.1313 49.7839 36.2704 49.4885 36.7377L45.8733 42.4628C45.7693 42.6274 45.6902 42.7997 45.6267 42.976L43.6511 46.1054C43.5627 46.2455 43.427 46.3417 43.2698 46.3769C43.1208 46.4101 42.97 46.3832 42.843 46.3017C42.573 46.1293 42.425 45.7372 42.5071 45.4726L48.4514 36.0585C48.7463 35.5917 48.6067 34.974 48.1394 34.6791C47.6731 34.3847 47.0554 34.5239 46.76 34.9911L40.9504 44.1918C40.9182 44.2289 40.8855 44.2665 40.8581 44.3095C40.8337 44.3481 40.821 44.3915 40.7991 44.4316L39.6726 46.2153C39.5847 46.3549 39.4494 46.4511 39.2927 46.4858C39.1423 46.5204 38.9914 46.4931 38.8655 46.4125C38.5915 46.2367 38.5154 45.8613 38.696 45.5751L40.4826 42.7455C40.488 42.7367 40.4963 42.7299 40.5017 42.7211C40.5075 42.7118 40.5105 42.7021 40.5159 42.6928L45.7825 34.351C46.0774 33.8842 45.9377 33.2665 45.4704 32.9716C45.0041 32.6772 44.3865 32.8163 44.091 33.2836L38.7971 41.6689C38.7126 41.7856 38.5666 41.8359 38.4836 41.8544C38.2688 41.9018 38.032 41.8642 37.8635 41.7563C37.5896 41.581 37.5134 41.206 37.6941 40.9198L43.1496 32.2795C43.7107 31.3906 43.3586 30.8044 43.1809 30.5937C43.0036 30.3837 42.489 29.9374 41.5222 30.3381L37.0364 32.204C36.8918 32.2685 36.7307 32.258 36.5539 32.1728C36.302 32.0505 36.0901 31.7973 36.0271 31.5429C35.9607 31.2748 35.8225 30.7172 38.071 29.8471C39.9719 29.1125 41.095 28.1386 42.2922 26.8041C43.7673 25.1564 45.5989 23.3996 48.7468 23.5129C48.9602 23.5185 49.1589 23.4574 49.324 23.3503C49.6399 23.3063 49.9309 23.1218 50.0837 22.8146C50.092 22.7983 50.9314 21.1205 53.8034 15.9885C54.0735 15.5065 53.9011 14.8974 53.4192 14.6276C52.9377 14.3576 52.3279 14.5302 52.0583 15.0119C49.904 18.861 48.8948 20.7614 48.5022 21.5163C44.3586 21.5141 42.0534 24.0719 40.803 25.4694C39.7536 26.6388 38.8928 27.3854 37.3498 27.9816C36.2854 28.3937 33.4573 29.488 34.0857 32.0241C34.2932 32.8603 34.8894 33.5883 35.6814 33.9721C36.3957 34.3193 37.1697 34.3388 37.8318 34.0385L40.3279 33.0019L36.0032 39.852C35.2366 41.0649 35.5881 42.6747 36.7854 43.4404C37.0002 43.5781 37.2351 43.6825 37.4797 43.7553L37.0046 44.5077C36.2395 45.7201 36.5901 47.33 37.7873 48.0971C38.2043 48.3632 38.6784 48.5009 39.1623 48.5009C39.3503 48.5009 39.5403 48.4799 39.7283 48.4379C40.324 48.3051 40.8337 47.9653 41.2048 47.4877C41.3689 47.6747 41.5495 47.849 41.7649 47.9867C42.1819 48.2533 42.656 48.3915 43.1404 48.3915C43.3274 48.3915 43.5163 48.3705 43.7034 48.329C44.3845 48.1777 44.9665 47.7675 45.342 47.1733L46.2522 45.7314C46.3738 45.849 46.508 45.957 46.656 46.0517C47.073 46.3188 47.5471 46.4565 48.0315 46.4565C48.218 46.4565 48.4065 46.436 48.5935 46.3945C49.2751 46.2431 49.8572 45.8324 50.2336 45.2377L53.51 40.0859C53.8108 39.6098 54.1247 39.1401 54.4392 38.6694C55.4558 37.1484 56.5066 35.5756 57.1545 33.7616C57.7702 32.0414 57.8664 30.0224 57.4543 27.7616C58.0774 26.9128 59.6721 24.7626 62.7947 20.6762C63.1301 20.2375 63.0461 19.6098 62.6072 19.2743Z" fill="black"/>
</g>
</g>
</svg>
