<svg width="100" height="100" viewBox="0 0 100 100" fill="none" xmlns="http://www.w3.org/2000/svg">
<g id="Layer_1">
<path id="Vector" d="M26.0536 94.0133C39.1342 96.7668 52.7771 91.6528 60.0006 81.3005L66.6656 71.7485L72.7058 91.8985C73.3489 93.8349 74.5951 95.5145 76.262 96.6912C77.9289 97.868 79.9288 98.48 81.9688 98.4376C84.4245 98.5263 86.8154 97.6392 88.619 95.9703C90.4227 94.3013 91.4922 91.9862 91.594 89.531C91.5966 88.6015 91.4405 87.6783 91.1324 86.8012L80.543 56.2385C81.7891 55.7127 82.8421 54.8142 83.5574 53.6662C84.2727 52.5183 84.6153 51.1771 84.5381 49.8267C84.461 48.4764 83.9678 47.183 83.1264 46.124C82.285 45.065 81.1365 44.2923 79.8386 43.9119L45.116 33.6996C44.6359 31.9049 43.8132 30.2201 42.6933 28.7377C41.509 27.2383 40.0205 26.0066 38.3259 25.1239C36.6312 24.2411 34.7689 23.7273 32.8613 23.6161L31.6742 23.507C23.7205 22.7746 16.4871 28.1251 15.5449 35.4204L10.498 73.6864C9.24687 83.1452 15.934 91.8839 26.0536 94.0133ZM81.0379 48.6199C81.2536 49.0292 81.3838 49.478 81.4206 49.9392C81.4575 50.4003 81.4002 50.8641 81.2523 51.3024C80.9744 52.1319 80.3918 52.8247 79.6224 53.2409C78.853 53.657 77.9543 53.7654 77.108 53.544L31.8344 41.6299C31.134 41.4458 30.4946 41.0801 29.9807 40.5698C29.4668 40.0594 29.0967 39.4226 28.9077 38.7235C28.7187 38.0243 28.7175 37.2877 28.9042 36.588C29.091 35.8883 29.4591 35.2502 29.9713 34.7382C30.494 34.2152 31.1481 33.8427 31.8647 33.6601C32.5813 33.4775 33.3339 33.4915 34.0432 33.7007L78.9567 46.9102C79.4013 47.0394 79.815 47.2575 80.1728 47.5514C80.5305 47.8453 80.8249 48.2089 81.0379 48.6199ZM45.9221 48.5689L56.6281 51.386L45.9221 66.0279V48.5689ZM13.5956 74.0952L18.6432 35.8247C19.3741 30.1736 25.0809 26.0484 31.3889 26.6183L32.5745 26.7274C34.4472 26.7901 36.2654 27.3736 37.8249 28.4123C39.3844 29.451 40.6236 30.9038 41.4033 32.6077L34.925 30.7023C34.0042 30.4315 33.0388 30.3463 32.0849 30.4519C31.131 30.5575 30.2075 30.8516 29.3683 31.3173C28.5291 31.7829 27.7907 32.4107 27.1963 33.1642C26.6018 33.9177 26.1631 34.7818 25.9055 35.7064C25.648 36.631 25.5769 37.5975 25.6962 38.5498C25.8155 39.5021 26.123 40.4212 26.6007 41.2536C27.0784 42.0861 27.7168 42.8152 28.4788 43.3988C29.2408 43.9823 30.1112 44.4085 31.0393 44.6527L42.797 47.7466V70.8123C42.797 71.1418 42.9012 71.4629 43.0947 71.7297C43.2882 71.9964 43.5611 72.1952 43.8743 72.2975C44.1876 72.3998 44.5251 72.4005 44.8388 72.2994C45.1524 72.1984 45.4261 72.0007 45.6207 71.7347L59.4207 52.8604C59.5855 52.6413 59.7501 52.4408 59.9165 52.2513L76.3129 56.5659C76.6734 56.6574 77.0411 56.7177 77.4119 56.7463L88.1828 87.8335C88.3743 88.3789 88.4711 88.953 88.4689 89.531C88.3664 91.157 87.6259 92.6767 86.4086 93.7595C85.1913 94.8422 83.5956 95.4004 81.9688 95.3126C80.601 95.3573 79.2547 94.9632 78.1269 94.188C76.9991 93.4129 76.1489 92.2972 75.7004 91.0043L68.7309 67.7545C68.6466 67.473 68.4846 67.2211 68.2635 67.0276C68.0425 66.834 67.7713 66.7068 67.4812 66.6604C67.1911 66.6116 66.893 66.6467 66.6222 66.7616C66.3513 66.8764 66.1189 67.0663 65.9523 67.3088L57.4379 79.5121C50.9209 88.8497 38.5658 93.4457 26.6968 90.9555C18.1937 89.1664 12.561 81.9177 13.5956 74.0952Z" fill="#111827"/>
<path id="Vector_2" d="M54.6875 32.8125C57.7778 32.8125 60.7988 31.8961 63.3683 30.1792C65.9378 28.4623 67.9405 26.022 69.1231 23.1669C70.3057 20.3118 70.6152 17.1702 70.0123 14.1392C69.4094 11.1083 67.9212 8.32416 65.736 6.13896C63.5508 3.95377 60.7667 2.46563 57.7358 1.86274C54.7048 1.25984 51.5632 1.56927 48.7081 2.75189C45.853 3.93451 43.4127 5.9372 41.6958 8.50672C39.9789 11.0762 39.0625 14.0972 39.0625 17.1875C39.0671 21.3301 40.7148 25.3017 43.644 28.231C46.5733 31.1602 50.5449 32.8079 54.6875 32.8125ZM54.6875 4.68751C57.1598 4.68751 59.5765 5.42062 61.6321 6.79414C63.6877 8.16765 65.2899 10.1199 66.236 12.404C67.1821 14.688 67.4296 17.2014 66.9473 19.6261C66.465 22.0509 65.2745 24.2782 63.5263 26.0263C61.7782 27.7745 59.5509 28.965 57.1261 29.4473C54.7014 29.9296 52.188 29.6821 49.904 28.736C47.6199 27.7899 45.6676 26.1877 44.2941 24.1321C42.9206 22.0765 42.1875 19.6598 42.1875 17.1875C42.1913 13.8735 43.5095 10.6962 45.8529 8.35286C48.1962 6.00948 51.3735 4.6913 54.6875 4.68751Z" fill="#111827"/>
<path id="Vector_3" d="M7.8125 3.125H4.6875V18.75H7.8125V3.125Z" fill="#111827"/>
<path id="Vector_4" d="M7.8125 21.875H4.6875V25H7.8125V21.875Z" fill="#111827"/>
<path id="Vector_5" d="M14.0625 3.125H10.9375V9.375H14.0625V3.125Z" fill="#111827"/>
<path id="Vector_6" d="M14.0625 12.5H10.9375V18.75H14.0625V12.5Z" fill="#111827"/>
<path id="Vector_7" d="M20.3125 3.125H17.1875V21.875H20.3125V3.125Z" fill="#111827"/>
<path id="Vector_8" d="M26.5625 3.125H23.4375V12.5H26.5625V3.125Z" fill="#111827"/>
<path id="Vector_9" d="M26.5625 15.625H23.4375V18.75H26.5625V15.625Z" fill="#111827"/>
<path id="Vector_10" d="M32.8125 3.125H29.6875V18.75H32.8125V3.125Z" fill="#111827"/>
<path id="Vector_11" d="M76.5625 3.125H73.4375V21.875H76.5625V3.125Z" fill="#111827"/>
<path id="Vector_12" d="M76.5625 25H73.4375V28.125H76.5625V25Z" fill="#111827"/>
<path id="Vector_13" d="M82.8125 3.125H79.6875V12.5H82.8125V3.125Z" fill="#111827"/>
<path id="Vector_14" d="M82.8125 15.625H79.6875V21.875H82.8125V15.625Z" fill="#111827"/>
<path id="Vector_15" d="M89.0625 3.125H85.9375V15.625H89.0625V3.125Z" fill="#111827"/>
<path id="Vector_16" d="M89.0625 18.75H85.9375V28.125H89.0625V18.75Z" fill="#111827"/>
<path id="Vector_17" d="M95.3125 3.125H92.1875V12.5H95.3125V3.125Z" fill="#111827"/>
<path id="Vector_18" d="M95.3125 15.625H92.1875V25H95.3125V15.625Z" fill="#111827"/>
<path id="Vector_19" d="M95.3125 28.125H92.1875V34.375H95.3125V28.125Z" fill="#111827"/>
<path id="Vector_20" d="M7.8125 28.125H4.6875V34.375H7.8125V28.125Z" fill="#111827"/>
</g>
</svg>
