<svg width="100" height="100" viewBox="0 0 100 100" fill="none" xmlns="http://www.w3.org/2000/svg">
<g id="judge 1" clip-path="url(#clip0_2011_3156)">
<g id="Group">
<path id="Vector" d="M8.9744 99.9999H53.9299C54.7392 99.9999 55.3949 99.344 55.3949 98.5349C55.3949 97.7258 54.7392 97.0699 53.9299 97.0699H46.2616C46.2678 97.0293 46.2711 96.9875 46.276 96.9464C46.2797 96.9152 46.284 96.8841 46.2869 96.8527C46.2967 96.747 46.3032 96.6403 46.3032 96.5319V93.9015C46.3032 93.5431 46.2485 93.1969 46.1469 92.8713C46.1252 92.8018 46.0979 92.7348 46.0719 92.667C49.6151 93.9439 53.4191 94.5948 57.3825 94.5995H57.4175C61.0972 94.5995 64.7041 93.9371 68.1382 92.6305C69.4862 92.1177 70.1949 90.6398 69.7563 89.2609L63.0092 67.1282C64.3783 66.3566 65.6025 65.3135 66.6046 64.0393C67.7104 64.1933 68.7429 63.8172 69.4778 63.0826L74.0211 58.5392L84.8588 62.7364C85.5025 63.0027 86.1473 63.3689 86.7692 63.8215L82.8648 67.8125C80.6952 70.0303 79.5 72.9604 79.5 76.0635V80.7301C79.5 81.5392 80.1557 82.1952 80.965 82.1952C81.7743 82.1952 82.43 81.5392 82.43 80.7301V76.0635C82.43 73.7312 83.3284 71.5286 84.9592 69.8616L88.8927 65.8409C90.6195 67.9535 91.5634 70.5519 91.5634 73.2042V95.9942C91.5634 96.5876 91.0805 97.0703 90.4873 97.0703H82.43V87.5669C82.43 86.7578 81.7743 86.1019 80.965 86.1019C80.1557 86.1019 79.5 86.7578 79.5 87.5669V97.0703H60.7667C59.9574 97.0703 59.3017 97.7262 59.3017 98.5353C59.3017 99.3444 59.9574 100 60.7667 100H90.4873C92.6964 100 94.4935 98.2032 94.4935 95.9942V73.2042C94.4935 67.5187 90.9856 62.0895 85.9603 60.0214C85.9508 60.0175 85.9414 60.0136 85.9318 60.0101C84.0484 59.2807 68.2686 53.1694 66.2639 52.3931L66.2608 48.5264C67.2808 47.7687 68.1577 46.9299 68.9498 45.9865C70.7613 48.6927 73.8293 50.5568 76.9822 50.6781C82.7383 50.8984 87.4713 46.3125 87.4713 40.5936C87.4713 37.3918 86.0021 34.4506 83.4401 32.5238H83.4399C83.2397 32.3732 83.1653 32.1273 83.2504 31.8972C83.5897 30.9814 83.7618 30.0184 83.7618 29.0347C83.7618 27.1753 83.1567 25.4202 82.0122 23.9591C81.8551 23.7588 81.8551 23.4897 82.0122 23.2892C83.1567 21.8281 83.7618 20.0728 83.7618 18.2136C83.7618 15.5949 82.4976 13.1079 80.3801 11.5606C79.1122 10.6345 77.8822 9.26305 77.0059 7.79821C72.6739 0.557645 65.9107 -1.74187 57.9617 1.32395C57.4057 1.53824 56.7939 1.53824 56.239 1.32395C48.2897 -1.74167 41.5266 0.557449 37.1946 7.79782C36.3181 9.26266 35.0881 10.6341 33.8199 11.5604C31.7025 13.1075 30.4383 15.5945 30.4383 18.2132C30.4383 20.0726 31.0434 21.8277 32.1881 23.2892C32.3449 23.4893 32.3449 23.7582 32.1879 23.9587C31.0434 25.4198 30.4383 27.1749 30.4383 29.0343C30.4383 30.02 30.6111 30.9849 30.9518 31.902C31.036 32.1288 30.9608 32.3728 30.7604 32.5236C29.451 33.5083 28.4122 34.7821 27.7143 36.2465C25.4554 36.2465 12.0078 36.2465 8.96131 36.2465C7.05638 36.2465 5.50657 37.7964 5.50657 39.7015V49.8731C5.50657 51.778 7.05638 53.328 8.96131 53.328H16.1935V73.855C16.1935 75.9817 17.5888 77.7878 19.5117 78.408V82.6829H14.864C11.824 82.6829 9.35042 85.1563 9.35042 88.1965V90.4333H8.9744C7.06224 90.4333 5.50638 91.989 5.50638 93.9013V96.5317C5.50657 98.4441 7.06224 99.9999 8.9744 99.9999ZM44.2584 89.2275C44.0984 89.7305 44.0931 90.2444 44.2136 90.7206C43.7909 90.5366 43.3252 90.4333 42.8357 90.4333L42.4603 90.4331V88.1965C42.4603 85.1563 39.9869 82.6829 36.9467 82.6829H34.5048V76.0629C34.5048 72.96 33.3097 70.0297 31.1399 67.8121L27.2476 63.8335C27.8743 63.373 28.5206 62.9949 29.1479 62.7355L39.9777 58.5058L44.5543 63.0824C45.273 63.8008 46.2852 64.1743 47.3533 64.0479C48.3579 65.3311 49.5913 66.3713 50.9916 67.1378L44.2584 89.2275ZM31.5749 76.0631V82.6831H22.4417V78.4089C24.3894 77.779 25.7597 75.9516 25.7597 73.8554C25.7597 73.8554 25.7597 73.8554 25.7597 73.8552V66.5025L29.0457 69.8614C30.6766 71.5282 31.5749 73.7306 31.5749 76.0631ZM42.9578 57.342L47.7418 55.4736L49.9523 57.684C50.1367 57.8684 50.1292 58.1616 49.9523 58.338C49.9317 58.3585 47.2789 61.0114 47.2789 61.0114C47.1058 61.1823 46.8112 61.1956 46.6262 61.0104L42.9578 57.342ZM66.9075 89.9629C65.3489 90.5429 63.7517 90.9754 62.1269 91.2602L61.3443 84.9432C61.2449 84.1401 60.5126 83.5701 59.7103 83.6694C58.9073 83.7688 58.3371 84.5005 58.4365 85.3034L59.2179 91.6102C58.6203 91.6495 58.0203 91.6694 57.4179 91.6694C57.4075 91.6694 57.3968 91.6694 57.3864 91.6694C56.516 91.6684 55.6547 91.6327 54.8035 91.5643L55.5791 85.3036C55.6786 84.5005 55.1084 83.769 54.3053 83.6696C53.5045 83.5694 52.771 84.1403 52.6714 84.9434L51.897 91.1924C50.2515 90.9019 48.6515 90.4808 47.1085 89.9274L53.7234 68.226C54.8271 68.519 55.988 68.6649 57.1397 68.6665H57.1536H57.1539C57.1571 68.6665 57.1602 68.6663 57.1631 68.6663C58.1855 68.6651 59.2366 68.5327 60.2872 68.2465L66.9075 89.9629ZM57.1534 65.736C57.1499 65.736 57.1463 65.736 57.1428 65.736C54.3706 65.7331 51.7261 64.6679 49.9003 62.5337L51.6956 60.7381C53.4191 61.3396 55.26 61.6449 57.1823 61.6472H57.2002C58.9688 61.6472 60.6942 61.3445 62.3435 60.7456L64.0874 62.4893C62.3007 64.6009 59.7377 65.736 57.1534 65.736ZM50.2787 53.8664C50.5273 53.4427 50.6627 52.9557 50.6627 52.4256V50.2134C54.48 51.852 59.1944 52.0587 63.3325 50.2509L63.3342 52.4384C63.3358 52.9643 63.4768 53.4618 63.729 53.8912L62.0077 55.6123C61.323 56.2969 60.9958 57.2039 61.0201 58.103C59.7842 58.5138 58.4981 58.7236 57.1862 58.7176C55.7247 58.7158 54.3266 58.5027 53.013 58.0866C53.0327 57.193 52.7051 56.2928 52.0246 55.6123L50.2787 53.8664ZM71.034 57.382L67.4056 61.0104C67.2246 61.1915 66.9323 61.1907 66.752 61.0104L64.0798 58.3384C64.0796 58.3382 64.0792 58.3376 64.0788 58.3374C63.9081 58.1659 63.8904 57.8733 64.0792 57.6842L66.2383 55.5252L71.034 57.382ZM69.644 36.0553C69.644 42.8193 64.113 48.6301 57.1424 48.5975C49.5297 48.5684 44.3609 42.6327 44.3609 36.1584V24.6359C48.0325 24.5859 51.6476 23.4645 54.7999 21.7002C56.1755 20.9302 57.8111 20.9003 59.2181 21.6062C60.0014 21.9996 64.099 24.5011 69.644 24.6328V36.0553ZM32.5211 34.8651C33.7633 33.931 34.2362 32.33 33.698 30.8814C33.4791 30.2919 33.3681 29.6703 33.3681 29.0341C33.3681 27.8361 33.7574 26.7059 34.4944 25.7653C35.4825 24.504 35.4825 22.7425 34.4944 21.4818C33.7578 20.5412 33.3681 19.4108 33.3681 18.213C33.3681 16.5261 34.1831 14.9235 35.5481 13.9261C37.1215 12.7768 38.6379 11.0914 39.7086 9.30211C43.3258 3.25642 48.5329 1.49253 55.1846 4.0577C56.4199 4.53413 57.7806 4.53413 59.0159 4.0577C65.6675 1.49233 70.8744 3.25681 74.4917 9.30211C75.5621 11.0916 77.0787 12.777 78.652 13.9261C80.0172 14.9233 80.8322 16.5261 80.8322 18.213C80.8322 19.411 80.4426 20.5412 79.7058 21.4818C78.718 22.7429 78.7178 24.5042 79.7058 25.7655C80.4426 26.7059 80.8322 27.8363 80.8322 29.0341C80.8322 29.6691 80.7216 30.2897 80.5034 30.8781C79.9652 32.3294 80.438 33.9316 81.6793 34.8651C83.4983 36.2331 84.5414 38.3208 84.5414 40.593C84.5414 44.6541 81.1765 47.9095 77.095 47.7496C74.4587 47.648 71.8972 45.8011 70.7826 43.2726C71.992 40.994 72.5741 38.4877 72.5741 36.0553C72.5741 22.5118 72.576 23.8725 72.5708 23.7135C72.5342 22.5618 71.5792 21.6773 70.4517 21.7043C67.1091 21.7777 63.7468 20.7735 60.8409 19.1487C58.4975 17.8384 55.7045 17.836 53.3701 19.1426C53.1351 19.2741 52.8827 19.4081 52.6198 19.5423C49.8267 20.9667 46.7085 21.8014 43.5749 21.6992C42.4074 21.6634 41.4324 22.5921 41.4309 23.785C41.4309 23.7858 41.4307 23.7868 41.4307 23.7875V36.1586C41.4307 38.6148 42.0229 41.1751 43.3024 43.5152C42.1306 45.9093 39.6226 47.6529 37.1051 47.7498C36.8854 47.7582 36.6658 47.7568 36.4464 47.7453V39.7013C36.4464 37.7964 34.8964 36.2463 32.9915 36.2463H31.1282C31.5243 35.7281 31.9916 35.2634 32.5211 34.8651ZM30.1033 39.1764H32.9917C33.281 39.1764 33.5166 39.4118 33.5166 39.7013V49.8729C33.5166 50.1622 33.2812 50.3978 32.9917 50.3978H30.1033V39.1764ZM32.9919 53.3276C34.6222 53.3276 35.9892 52.191 36.3503 50.6695C36.6394 50.6829 36.9287 50.6888 37.2182 50.6777C40.3223 50.5581 43.3127 48.7911 45.136 46.1617C45.881 47.0262 46.6868 47.7918 47.7324 48.5489L47.7326 52.3316C34.0012 57.6944 36.6613 56.6556 28.0694 60.0111C28.0612 60.0142 28.053 60.0175 28.0448 60.0209C27.2754 60.3375 26.5044 60.7682 25.7599 61.2902V53.3276H32.9919ZM11.8496 50.3976H8.96111C8.67201 50.3976 8.43644 50.1622 8.43644 49.8727V39.7011C8.43644 39.4118 8.67182 39.1762 8.96111 39.1762H11.8496V50.3976ZM14.7796 50.3976V39.1764H27.1732V50.3976C20.6243 50.3976 21.0419 50.3976 14.7796 50.3976ZM19.1233 73.855V53.3276H22.8297V64.5517V64.5537V73.855C22.8297 74.8774 21.9977 75.7082 20.9767 75.7082C19.9547 75.7084 19.1233 74.877 19.1233 73.855ZM12.2805 88.1967C12.2805 86.7721 13.4394 85.6132 14.864 85.6132H36.9469C38.3715 85.6132 39.5304 86.7721 39.5304 88.1967V90.4327H12.2805V88.1967ZM8.43663 93.9013C8.43663 93.6046 8.67787 93.3634 8.97459 93.3634H42.8353C43.1321 93.3634 43.3733 93.6046 43.3733 93.9013V96.5317C43.3733 96.8285 43.1321 97.0697 42.8353 97.0697H8.9744C8.67768 97.0697 8.43644 96.8283 8.43644 96.5317L8.43663 93.9013Z" fill="#111827"/>
</g>
</g>
<defs>
<clipPath id="clip0_2011_3156">
<rect width="100" height="100" fill="white"/>
</clipPath>
</defs>
</svg>
