<svg width="100" height="90" viewBox="0 0 100 90" fill="none" xmlns="http://www.w3.org/2000/svg">
<g id="Layer_1" clip-path="url(#clip0_2011_726)">
<g id="Group">
<path id="Vector" d="M48.1872 106.284H47.6872V106.784V178.428C47.6872 183.572 43.5168 187.74 38.3738 187.74C33.2323 187.74 29.0618 183.572 29.0618 178.428V100.65V85.619V56.4039V55.5183L28.3036 55.9758C23.0849 59.1244 15.8852 63.8173 9.65839 68.0884L9.65825 68.0885C8.66032 68.7736 7.50469 69.1143 6.35074 69.1143C5.0972 69.1143 3.84722 68.7129 2.80166 67.9152C0.793171 66.3827 -0.0044924 63.7337 0.823884 61.3473L0.823915 61.3472C1.457 59.5222 3.31479 54.3463 5.89698 48.6664C8.48541 42.9728 11.7772 36.8288 15.2659 33.0286L15.2737 33.0201L15.2811 33.0112C17.6624 30.1635 22.046 25.3514 26.3217 22.8557C27.1243 22.3888 28.1552 22.6594 28.6228 23.4614C29.0909 24.2642 28.8197 25.2945 28.0171 25.7625L28.0171 25.7625C25.5767 27.1859 23.0528 29.5136 20.9814 31.6798L20.6326 32.0446L21.0006 32.3899C22.3441 33.6508 23.6313 35.4263 24.3564 37.0355C24.7199 37.8421 24.9265 38.5729 24.9492 39.1563C24.9717 39.7357 24.8147 40.0933 24.5412 40.2984L24.5411 40.2985C23.9289 40.7578 23.2621 41.5175 22.5677 42.4744C21.8678 43.4388 21.1185 44.6339 20.3463 45.9917L19.3969 47.6609L21.0398 46.6666C30.7745 40.7751 32.8347 40.7753 34.005 40.7754H34.0198H34.0474L34.0748 40.7723C34.2814 40.7495 34.4875 40.7365 34.6952 40.7365H65.3587C65.5664 40.7365 65.7724 40.7495 65.9791 40.7723L66.0065 40.7754H66.0341H66.0493C67.2197 40.7753 69.2798 40.7751 79.0141 46.6666L80.6558 47.6603L79.7077 45.9918C78.9358 44.6336 78.1867 43.4385 77.4867 42.474C76.7923 41.5172 76.1252 40.7577 75.5126 40.2984L75.2126 40.6984L75.5126 40.2983C75.2391 40.0933 75.0821 39.736 75.1045 39.1568C75.1271 38.5736 75.3336 37.843 75.697 37.0365C76.4218 35.4277 77.7086 33.6524 79.0517 32.3915L79.4196 32.0461L79.0708 31.6814C76.998 29.5137 74.4733 27.1843 72.0368 25.7633L71.7849 26.1952L72.0367 25.7633C71.2341 25.2953 70.963 24.265 71.4311 23.4621C71.899 22.6596 72.9286 22.3883 73.7324 22.8566C78.0063 25.3499 82.3875 30.1595 84.7696 33.0073L84.777 33.0162L84.7848 33.0247C88.2739 36.8241 91.5663 42.9689 94.1553 48.6636C96.7381 54.3445 98.5965 59.5218 99.23 61.3472C100.058 63.7338 99.2606 66.3828 97.2522 67.9152C96.2067 68.7128 94.9559 69.1143 93.7031 69.1143C92.5493 69.1143 91.3943 68.7736 90.3955 68.0885L90.1126 68.5008L90.3954 68.0884C84.1679 63.8173 76.9682 59.1236 71.7495 55.975L70.9912 55.5175V56.4032V85.619V100.65V178.428C70.9912 183.572 66.8208 187.74 61.6777 187.74C56.5363 187.74 52.3658 183.572 52.3658 178.428V106.784V106.284H51.8658H48.1872Z" stroke="#111827"/>
<path id="Vector_2" d="M67.3834 17.8571C67.3834 27.4432 59.6123 35.2143 50.0262 35.2143C40.4401 35.2143 32.6691 27.4432 32.6691 17.8571C32.6691 8.27106 40.4401 0.5 50.0262 0.5C59.6123 0.5 67.3834 8.27106 67.3834 17.8571Z" stroke="#111827"/>
</g>
</g>
<defs>
<clipPath id="clip0_2011_726">
<rect width="100" height="89.6825" fill="white"/>
</clipPath>
</defs>
</svg>
