<svg width="100" height="100" viewBox="0 0 100 100" fill="none" xmlns="http://www.w3.org/2000/svg">
<g id="Frame">
<path id="Vector" d="M96.7641 71.2937L90.7391 56.2359C90.9878 56.2187 91.2288 56.1422 91.4419 56.0128C91.655 55.8834 91.834 55.7049 91.9641 55.4922L96.6516 47.6797C96.7587 47.5013 96.8291 47.3034 96.8587 47.0975C96.8883 46.8916 96.8764 46.6819 96.8239 46.4806C96.7714 46.2793 96.6792 46.0906 96.5527 45.9254C96.4263 45.7602 96.2681 45.622 96.0875 45.5187L90.6188 42.3937V29.6875C90.6133 28.0536 90.0947 26.4628 89.1361 25.1397C88.1775 23.8166 86.8274 22.8282 85.2766 22.314C86.963 20.8545 88.1628 18.9142 88.7153 16.7534C89.2678 14.5926 89.1466 12.3145 88.3677 10.2246C87.5889 8.13469 86.1898 6.33281 84.3579 5.06055C82.5261 3.78828 80.3491 3.10645 78.1188 3.10645C75.8884 3.10645 73.7114 3.78828 71.8796 5.06055C70.0477 6.33281 68.6486 8.13469 67.8698 10.2246C67.091 12.3145 66.9697 14.5926 67.5222 16.7534C68.0747 18.9142 69.2746 20.8545 70.9609 22.314C69.4113 22.8293 68.0625 23.8182 67.1051 25.1412C66.1477 26.4641 65.63 28.0544 65.625 29.6875V35.8547L56.5797 47.4781C56.3459 47.7787 56.2298 48.1543 56.2534 48.5344C56.277 48.9145 56.4386 49.2728 56.7078 49.5422L57.5844 50.4187L46.1375 61.864L36.1953 51.9203C35.3022 51.068 34.115 50.5925 32.8805 50.5925C31.6459 50.5925 30.4588 51.068 29.5656 51.9203L5.25782 76.2281L2.50001 78.9891C2.13462 79.3512 1.84435 79.7819 1.64587 80.2564C1.44739 80.731 1.34459 81.2401 1.34339 81.7545C1.3422 82.269 1.44261 82.7785 1.63888 83.254C1.83516 83.7295 2.12341 84.1616 2.48711 84.5254C2.8508 84.8892 3.28277 85.1776 3.75822 85.374C4.23366 85.5704 4.74322 85.6709 5.25763 85.6699C5.77204 85.6688 6.28118 85.5662 6.75582 85.3678C7.23046 85.1695 7.66124 84.8793 8.02344 84.5141L9.68126 82.8562L16.3094 89.4859L14.6484 91.1437C13.9213 91.8775 13.5144 92.8694 13.5168 93.9025C13.5192 94.9355 13.9307 95.9255 14.6613 96.6559C15.3919 97.3863 16.382 97.7975 17.415 97.7996C18.4481 97.8017 19.4399 97.3945 20.1734 96.6672L22.9359 93.9062L47.2438 69.5984C47.9236 68.9124 48.375 68.0331 48.5361 67.0808C48.6972 66.1284 48.5601 65.1496 48.1438 64.2781L59.7938 52.6281L62.9578 55.7922C63.2508 56.0852 63.6481 56.2499 64.0625 56.25C64.0953 56.25 64.1281 56.25 64.1609 56.25C64.3824 56.2362 64.5984 56.1755 64.7945 56.0717C64.9906 55.968 65.1624 55.8237 65.2984 55.6484L66.4391 54.1766C67.0685 56.3365 68.0573 58.3749 69.3641 60.2062L65.7297 75.9375L56.5109 89.7625C56.2938 90.0878 56.2066 90.4827 56.2665 90.8692C56.3263 91.2557 56.529 91.6057 56.8344 91.85L64.6469 98.1C64.9255 98.3196 65.2702 98.4386 65.625 98.4375C65.8716 98.4375 66.1146 98.3792 66.3343 98.2673C66.554 98.1554 66.7441 97.9932 66.8891 97.7937L79.3891 80.6062C79.4921 80.464 79.5708 80.3055 79.6219 80.1375L81.7594 73.0312L84.375 75.6469V95.3125C84.375 95.7269 84.5396 96.1243 84.8326 96.4173C85.1257 96.7104 85.5231 96.875 85.9375 96.875H95.3125C95.7269 96.875 96.1243 96.7104 96.4174 96.4173C96.7104 96.1243 96.875 95.7269 96.875 95.3125V71.875C96.8749 71.676 96.8373 71.4788 96.7641 71.2937ZM5.81095 82.3047C5.66425 82.4512 5.46536 82.5334 5.25805 82.5332C5.05073 82.5331 4.85197 82.4506 4.70548 82.3039C4.55899 82.1572 4.47677 81.9583 4.47692 81.751C4.47699 81.6483 4.49728 81.5467 4.53663 81.4519C4.57598 81.3571 4.63362 81.271 4.70626 81.1984L6.36251 79.5422L7.46876 80.6469L5.81095 82.3047ZM16.8594 94.4578C16.7129 94.3113 16.6306 94.1126 16.6306 93.9055C16.6306 93.6983 16.7129 93.4996 16.8594 93.3531L18.5156 91.6953L19.6219 92.8L17.9688 94.4578C17.8961 94.531 17.8097 94.5891 17.7145 94.6288C17.6193 94.6685 17.5172 94.6889 17.4141 94.6889C17.3109 94.6889 17.2088 94.6685 17.1136 94.6288C17.0184 94.5891 16.932 94.531 16.8594 94.4578ZM45.0328 67.3891L21.8313 90.5906L8.57188 77.3328L31.775 54.1312C32.0725 53.8468 32.4681 53.6881 32.8797 53.6881C33.2912 53.6881 33.6869 53.8468 33.9844 54.1312L45.0328 65.1781C45.1781 65.3232 45.2933 65.4956 45.372 65.6852C45.4506 65.8749 45.4911 66.0782 45.4911 66.2836C45.4911 66.4889 45.4506 66.6922 45.372 66.8819C45.2933 67.0716 45.1781 67.2439 45.0328 67.3891ZM70.3125 14.0625C70.3125 12.5173 70.7707 11.0069 71.6292 9.72209C72.4876 8.43734 73.7077 7.43599 75.1353 6.84468C76.5628 6.25337 78.1337 6.09866 79.6492 6.4001C81.1646 6.70155 82.5567 7.44562 83.6493 8.53822C84.7419 9.63081 85.4859 11.0229 85.7874 12.5383C86.0888 14.0538 85.9341 15.6247 85.3428 17.0522C84.7515 18.4797 83.7502 19.6999 82.4654 20.5583C81.1806 21.4168 79.6702 21.875 78.125 21.875C76.0538 21.8725 74.0681 21.0486 72.6035 19.584C71.1389 18.1194 70.315 16.1337 70.3125 14.0625ZM63.9141 52.3297L59.8938 48.3078L65.625 40.9375V48.4844C65.625 49.0016 65.6625 49.514 65.7 50.025L63.9141 52.3297ZM76.7047 78.9828L65.3234 94.6328L59.9078 90.3L68.4875 77.4297C68.592 77.2726 68.6672 77.0979 68.7094 76.914L71.8875 63.1641L79.25 70.5266L76.7047 78.9828ZM93.75 93.75H87.5V75C87.4999 74.5856 87.3352 74.1883 87.0422 73.8953L73.7766 60.6297C72.1775 59.038 70.9099 57.1451 70.0471 55.0604C69.1843 52.9757 68.7434 50.7406 68.75 48.4844V29.6875C68.75 28.4443 69.2439 27.252 70.1229 26.3729C71.002 25.4938 72.1943 25 73.4375 25H82.8125C84.0557 25 85.248 25.4938 86.1271 26.3729C87.0061 27.252 87.5 28.4443 87.5 29.6875V40.6109L85.6688 39.564L82.7328 30.7562L79.7641 31.7437L82.8891 41.1187C83.0108 41.4836 83.2628 41.7906 83.5969 41.9812L93.1484 47.4391L90.0234 52.6422L79.3188 47.2906L73.2969 33.7406L70.4406 35.0094L76.6906 49.0719C76.8378 49.4036 77.0957 49.6737 77.4203 49.8359L87.5 54.8719V56.25C87.5001 56.449 87.5377 56.6462 87.6109 56.8312L93.75 72.175V93.75Z" fill="#111827"/>
<path id="Vector_2" d="M30.1443 67.6458L22.3319 75.4583L24.5416 77.668L32.354 69.8555L30.1443 67.6458Z" fill="#111827"/>
<path id="Vector_3" d="M36.3946 61.3952L33.2701 64.5198L35.4798 66.7295L38.6043 63.605L36.3946 61.3952Z" fill="#111827"/>
</g>
</svg>
