<svg width="100" height="72" viewBox="0 0 100 72" fill="none" xmlns="http://www.w3.org/2000/svg">
<g id="Layer_1" clip-path="url(#clip0_2011_2162)">
<g id="Group">
<path id="Vector" d="M13.339 50.4774L12.3645 50.3199C10.4717 56.0228 8.66301 66.7777 8.89529 87.0878C8.9218 89.3998 7.06957 91.2948 4.7585 91.3227H4.75839H4.75829H4.75818H4.75808H4.75797H4.75786H4.75776H4.75765H4.75755H4.75744H4.75734H4.75723H4.75712H4.75702H4.75691H4.75681H4.7567H4.75659H4.75649H4.75638H4.75628H4.75617H4.75606H4.75596H4.75585H4.75574H4.75564H4.75553H4.75543H4.75532H4.75521H4.75511H4.755H4.75489H4.75479H4.75468H4.75458H4.75447H4.75436H4.75426H4.75415H4.75404H4.75394H4.75383H4.75372H4.75362H4.75351H4.75341H4.7533H4.75319H4.75309H4.75298H4.75287H4.75277H4.75266H4.75255H4.75245H4.75234H4.75223H4.75213H4.75202H4.75191H4.75181H4.7517H4.75159H4.75149H4.75138H4.75127H4.75117H4.75106H4.75095H4.75085H4.75074H4.75063H4.75053H4.75042H4.75031H4.75021H4.7501H4.74999H4.74989H4.74978H4.74967H4.74956H4.74946H4.74935H4.74924H4.74914H4.74903H4.74892H4.74882H4.74871H4.7486H4.7485H4.74839H4.74828H4.74817H4.74807H4.74796H4.74785H4.74775H4.74764H4.74753H4.74743H4.74732H4.74721H4.7471H4.747H4.74689H4.74678H4.74668H4.74657H4.74646H4.74635H4.74625H4.74614H4.74603H4.74593H4.74582H4.74571H4.7456H4.7455H4.74539H4.74528H4.74518H4.74507H4.74496H4.74485H4.74475H4.74464H4.74453H4.74442H4.74432H4.74421H4.7441H4.744H4.74389H4.74378H4.74367H4.74357H4.74346H4.74335H4.74324H4.74314H4.74303H4.74292H4.74282H4.74271H4.7426H4.74249H4.74239H4.74228H4.74217H4.74206H4.74196H4.74185H4.74174H4.74163H4.74153H4.74142H4.74131H4.7412H4.7411H4.74099H4.74088H4.74077H4.74067H4.74056H4.74045H4.74035H4.74024H4.74013H4.74002H4.73991H4.73981H4.7397H4.73959H4.73948H4.73938H4.73927H4.73916H4.73906H4.73895H4.73884H4.73873H4.73863H4.73852H4.73841H4.7383H4.73819H4.73809H4.73798H4.73787H4.73776H4.73766H4.73755H4.73744H4.73733H4.73723H4.73712H4.73701H4.7369H4.7368H4.73669H4.73658H4.73647H4.73637H4.73626H4.73615H4.73604H4.73594H4.73583H4.73572H4.73561H4.73551H4.7354H4.73529H4.73518H4.73508H4.73497H4.73486H4.73475H4.73465H4.73454H4.73443H4.73432H4.73422H4.73411H4.734H4.73389H4.73379H4.73368H4.73357H4.73346H4.73335H4.73325H4.73314H4.73303H4.73292H4.73282H4.73271H4.7326H4.73249H4.73239H4.73228H4.73217H4.73206H4.73196H4.73185H4.73174H4.73163H4.73153H4.73142H4.73131H4.7312H4.7311H4.73099H4.73088H4.73077H4.73067H4.73056H4.73045H4.73034H4.73024H4.73013H4.73002H4.72991H4.72981H4.7297H4.72959H4.72948H4.72938H4.72927H4.72916H4.72905H4.72895H4.72884H4.72873H4.72862H4.72852H4.72841H4.7283H4.72819H4.72809H4.72798H4.72787H4.72776H4.72766H4.72755H4.72744H4.72733H4.72723H4.72712H4.72701H4.7269H4.7268H4.72669H4.72658H4.72647H4.72637H4.72626H4.72615H4.72605H4.72594H4.72583H4.72572H4.72562H4.72551H4.7254H4.72529H4.72519H4.72508H4.72497H4.72486H4.72476H4.72465H4.72454H4.72444H4.72433H4.72422H4.72411H4.72401H4.7239H4.72379H4.72368H4.72358H4.72347H4.72336H4.72326H4.72315H4.72304H4.72293H4.72283H4.72272H4.72261H4.72251H4.7224H4.72229H4.72218H4.72208H4.72197H4.72186H4.72176H4.72165H4.72154H4.72143H4.72133H4.72122H4.72111H4.72101H4.7209H4.72079H4.72069H4.72058H4.72047H4.72036H4.72026H4.72015H4.72004H4.71994H4.71983H4.71972H4.71961H4.71951H4.7194H4.71929H4.71919H4.71908H4.71897H4.71887H4.71876H4.71865H4.71855H4.71844H4.71833H4.71823H4.71812H4.71801H4.71791H4.7178H4.71769H4.71759H4.71748H4.71737H4.71727H4.71716H4.71705H4.71695H4.71684H4.71673H4.71663H4.71652H4.71641H4.71631H4.7162H4.71609H4.71599H4.71588H4.71577H4.71567H4.71556H4.71545H4.71535H4.71524H4.71513H4.71503H4.71492H4.71481H4.71471H4.7146H4.7145H4.71439H4.71428H4.71418H4.71407H4.71396H4.71386H4.71375H4.71364H4.71354H4.71343H4.71333H4.71322H4.71311H4.71301H4.7129H4.7128H4.71269H4.71258H4.71248H4.71237H4.71226H4.71216H4.71205H4.71195H4.71184H4.71173H4.71163H4.71152H4.71142H4.71131H4.7112H4.7111H4.71099H4.71089H4.71078H4.71067H4.71057H4.71046H4.71036H4.71025H4.71015H4.71004H4.70993H4.70983H4.70972H4.70962H4.70951H4.70941H4.7093H4.70919H4.70909H4.70898H4.70888H4.70877H4.70867H4.70856H4.70846H4.70835H4.70824H4.70814H4.70803H4.70793H4.70782H4.70772H4.70761H4.70751H4.7074H4.7073H4.70719H4.70708H4.70698C2.41643 91.3227 0.54683 89.4795 0.521009 87.1835L0.521008 87.1834C0.370402 73.9999 1.03395 63.4439 2.52499 55.3896C4.01889 47.3199 6.33075 41.8353 9.41563 38.7157L9.41565 38.7157C11.4703 36.6378 13.9407 35.5024 16.5914 35.3611L16.6272 35.3592L16.6624 35.3522C16.9409 35.2968 17.2293 35.2673 17.5257 35.2673H43.3656H43.4672L43.5608 35.2276L87.7465 16.4881L87.7468 16.488L87.7609 16.4845C87.7718 16.4817 87.788 16.4774 87.8064 16.4717L87.8309 16.4642L87.8546 16.4541L97.3999 12.4057L97.4 12.4056C98.0366 12.1354 98.7724 12.4326 99.0419 13.0692L99.0421 13.0697C99.3122 13.7061 99.0153 14.4414 98.3782 14.7116L90.4821 18.0601L89.9756 18.2748L90.2377 18.7586C90.8515 19.8918 91.3139 21.2183 91.4573 22.3108C91.5293 22.8593 91.5161 23.3137 91.427 23.6442C91.34 23.9666 91.1978 24.1212 91.0344 24.1906L48.2813 42.3218L47.9765 42.4511V42.7821V69.5641V82.222V136.231C47.9765 140.43 44.5707 143.836 40.371 143.836C36.1698 143.836 32.764 140.43 32.764 136.231V94.4266V93.9266H32.264H29.0507H28.5507V94.4266V136.231C28.5507 140.43 25.1448 143.836 20.9468 143.836C16.744 143.836 13.339 140.43 13.339 136.231V82.222V69.5634V50.4774Z" stroke="#111827"/>
<path id="Vector_2" d="M46.1735 16.0156C46.1735 24.5847 39.2269 31.5312 30.6578 31.5312C22.0888 31.5312 15.1422 24.5847 15.1422 16.0156C15.1422 7.44658 22.0888 0.5 30.6578 0.5C39.2269 0.5 46.1735 7.44658 46.1735 16.0156Z" stroke="#111827"/>
</g>
</g>
<defs>
<clipPath id="clip0_2011_2162">
<rect width="100" height="71.0938" fill="white"/>
</clipPath>
</defs>
</svg>
