<svg width="64" height="64" viewBox="0 0 64 64" fill="none" xmlns="http://www.w3.org/2000/svg">
<g id="Frame">
<g id="outline">
<path id="Vector" d="M58.1002 33.01L61.0002 3.10001C61.0142 2.96054 60.9988 2.81967 60.9548 2.68656C60.9109 2.55344 60.8395 2.43105 60.7452 2.32733C60.6509 2.2236 60.5358 2.14086 60.4075 2.08447C60.2792 2.02809 60.1404 1.99931 60.0002 2.00001H48.0002C47.7405 1.99988 47.4908 2.10083 47.3042 2.2815C47.1175 2.46217 47.0085 2.70838 47.0002 2.96801L46.0322 33H45.0002C44.8732 33.0011 44.7476 33.0266 44.6302 33.075L39.6302 35.075C39.5038 35.1293 39.39 35.2093 39.2962 35.31C38.8933 35.1097 38.4501 35.0037 38.0002 35H36.0002C35.472 35.0031 34.9542 35.147 34.5002 35.417C34.0462 35.147 33.5284 35.0031 33.0002 35H31.0002C30.472 35.0031 29.9542 35.147 29.5002 35.417C29.0462 35.147 28.5284 35.0031 28.0002 35H26.0002C25.5493 35.0019 25.1047 35.1065 24.7002 35.306C24.6064 35.2053 24.4927 35.1253 24.3662 35.071L19.3662 33.071C19.2498 33.0245 19.1256 33.0004 19.0002 33H17.9682L17.0002 2.96801C16.9919 2.70838 16.8829 2.46217 16.6963 2.2815C16.5096 2.10083 16.26 1.99988 16.0002 2.00001H4.00022C3.86004 1.99931 3.72129 2.02809 3.59295 2.08447C3.46461 2.14086 3.34956 2.2236 3.25527 2.32733C3.16097 2.43105 3.08954 2.55344 3.0456 2.68656C3.00166 2.81967 2.9862 2.96054 3.00022 3.10001L5.90022 33.01C4.87539 33.0316 3.89828 33.4472 3.17198 34.1706C2.44567 34.8939 2.02603 35.8693 2.00028 36.894C1.97453 37.9188 2.34465 38.914 3.03371 39.6729C3.72277 40.4318 4.67777 40.896 5.70022 40.969L3.02522 50.726C2.29522 53.285 2.59022 54.726 4.20022 56.6L7.21922 60.625C7.69737 61.1348 8.28878 61.5249 8.94562 61.7638C9.60247 62.0026 10.3063 62.0836 11.0002 62H18.0002C19.0611 62 20.0785 61.5786 20.8286 60.8284C21.5788 60.0783 22.0002 59.0609 22.0002 58V46.829C22.0031 45.8005 21.8019 44.7816 21.4083 43.8313C21.0147 42.881 20.4365 42.0183 19.7072 41.293L19.3622 40.947L23.8252 40.055C24.104 40.3527 24.4408 40.5902 24.8149 40.7527C25.189 40.9152 25.5924 40.9994 26.0002 41H28.0002C28.5284 40.997 29.0462 40.853 29.5002 40.583C29.9542 40.853 30.472 40.997 31.0002 41H33.0002C33.5284 40.997 34.0462 40.853 34.5002 40.583C34.9542 40.853 35.472 40.997 36.0002 41H38.0002C38.4081 40.9994 38.8115 40.9152 39.1856 40.7527C39.5596 40.5902 39.8964 40.3527 40.1752 40.055L44.6382 40.947L44.2932 41.293C43.5639 42.0183 42.9857 42.881 42.5921 43.8313C42.1985 44.7816 41.9974 45.8005 42.0002 46.829V58C42.0002 59.0609 42.4216 60.0783 43.1718 60.8284C43.9219 61.5786 44.9394 62 46.0002 62H53.0002C53.6992 62.0833 54.4079 61.9999 55.0684 61.7565C55.7289 61.5132 56.3224 61.1169 56.8002 60.6L59.7602 56.651C61.4102 54.725 61.7052 53.285 60.9782 50.736L58.3002 40.969C59.3227 40.896 60.2777 40.4318 60.9667 39.6729C61.6558 38.914 62.0259 37.9188 62.0002 36.894C61.9744 35.8693 61.5548 34.8939 60.8285 34.1706C60.1022 33.4472 59.125 33.0316 58.1002 33.01ZM5.10022 4.00001H15.0292L15.9652 33H7.90822L5.10022 4.00001ZM4.00022 37C4.00022 36.4696 4.21094 35.9609 4.58601 35.5858C4.96108 35.2107 5.46979 35 6.00022 35H18.0002V39H6.00022C5.46979 39 4.96108 38.7893 4.58601 38.4142C4.21094 38.0392 4.00022 37.5304 4.00022 37ZM20.0002 46.829V58C20.0002 58.5304 19.7895 59.0392 19.4144 59.4142C19.0394 59.7893 18.5307 60 18.0002 60C17.4698 60 16.9611 59.7893 16.586 59.4142C16.2109 59.0392 16.0002 58.5304 16.0002 58V52C16.0002 51.7836 15.93 51.5731 15.8002 51.4L12.8002 47.4L11.2002 48.6L13.0002 51C12.5807 51.0013 12.1661 51.0911 11.7836 51.2634C11.4011 51.4357 11.0592 51.6867 10.7802 52H8.00022V54H10.0002V57H12.0002V54C12.0002 53.7348 12.1056 53.4804 12.2931 53.2929C12.4807 53.1054 12.735 53 13.0002 53C13.2654 53 13.5198 53.1054 13.7073 53.2929C13.8949 53.4804 14.0002 53.7348 14.0002 54V58C14.0044 58.7043 14.1963 59.3947 14.5562 60H11.0002C9.93822 60 9.20022 59.9 8.80022 59.4L5.76022 55.349C4.56022 53.949 4.40422 53.183 4.95222 51.264L7.76322 41H16.5862L18.2932 42.707C18.8362 43.2471 19.2666 43.8895 19.5596 44.597C19.8526 45.3046 20.0024 46.0632 20.0002 46.829ZM23.0002 38.18L20.0002 38.78V35.48L23.0002 36.68V38.18ZM28.0002 39H26.0002C25.735 39 25.4806 38.8947 25.2931 38.7071C25.1056 38.5196 25.0002 38.2652 25.0002 38C25.0002 37.7348 25.1056 37.4804 25.2931 37.2929C25.4806 37.1054 25.735 37 26.0002 37H28.0002C28.0589 37.0061 28.1168 37.0178 28.1732 37.035C27.9426 37.6577 27.9426 38.3424 28.1732 38.965C28.1168 38.9822 28.0589 38.9939 28.0002 39ZM33.0002 39H31.0002C30.9416 38.9939 30.8836 38.9822 30.8272 38.965C31.0579 38.3424 31.0579 37.6577 30.8272 37.035C30.8836 37.0178 30.9416 37.0061 31.0002 37H33.0002C33.0589 37.0061 33.1168 37.0178 33.1732 37.035C32.9426 37.6577 32.9426 38.3424 33.1732 38.965C33.1168 38.9822 33.0589 38.9939 33.0002 39ZM38.0002 39H36.0002C35.9416 38.9939 35.8836 38.9822 35.8272 38.965C36.0579 38.3424 36.0579 37.6577 35.8272 37.035C35.8836 37.0178 35.9416 37.0061 36.0002 37H38.0002C38.2654 37 38.5198 37.1054 38.7073 37.2929C38.8949 37.4804 39.0002 37.7348 39.0002 38C39.0002 38.2652 38.8949 38.5196 38.7073 38.7071C38.5198 38.8947 38.2654 39 38.0002 39ZM44.0002 38.78L41.0002 38.18V36.68L44.0002 35.48V38.78ZM48.9692 4.00001H58.9002L56.0922 33H48.0332L48.9692 4.00001ZM59.0512 51.274C59.5962 53.183 59.4442 53.945 58.2002 55.4L55.2192 59.375C54.8002 59.9 54.0622 60 53.0002 60H49.4442C49.8041 59.3947 49.9961 58.7043 50.0002 58V54C50.0002 53.7348 50.1056 53.4804 50.2931 53.2929C50.4806 53.1054 50.735 53 51.0002 53C51.2654 53 51.5198 53.1054 51.7073 53.2929C51.8949 53.4804 52.0002 53.7348 52.0002 54V57H54.0002V54H56.0002V52H53.2202C52.9412 51.6867 52.5993 51.4357 52.2168 51.2634C51.8343 51.0911 51.4198 51.0013 51.0002 51L52.8002 48.6L51.2002 47.4L48.2002 51.4C48.0704 51.5731 48.0002 51.7836 48.0002 52V58C48.0002 58.5304 47.7895 59.0392 47.4144 59.4142C47.0394 59.7893 46.5307 60 46.0002 60C45.4698 60 44.9611 59.7893 44.586 59.4142C44.2109 59.0392 44.0002 58.5304 44.0002 58V46.829C43.9981 46.0632 44.1478 45.3046 44.4408 44.597C44.7338 43.8895 45.1643 43.2471 45.7072 42.707L47.4142 41H56.2372L59.0512 51.274ZM58.0002 39H46.0002V35H58.0002C58.5307 35 59.0394 35.2107 59.4144 35.5858C59.7895 35.9609 60.0002 36.4696 60.0002 37C60.0002 37.5304 59.7895 38.0392 59.4144 38.4142C59.0394 38.7893 58.5307 39 58.0002 39Z" fill="black"/>
</g>
</g>
</svg>
