<svg width="64" height="64" viewBox="0 0 64 64" fill="none" xmlns="http://www.w3.org/2000/svg">
<g id="Frame" clip-path="url(#clip0_818_12457)">
<g id="Outline">
<g id="Outline_2">
<path id="Vector" d="M14.4933 16.2747C12.6341 16.7563 10.9876 17.8418 9.81227 19.3608C8.63696 20.8798 7.9995 22.7461 8 24.6667V55.3333C8.00282 57.631 8.91682 59.8338 10.5415 61.4585C12.1662 63.0832 14.369 63.9972 16.6667 64H47.3333C49.631 63.9972 51.8338 63.0832 53.4585 61.4585C55.0832 59.8338 55.9972 57.631 56 55.3333V24.6667C56.0005 22.7461 55.363 20.8798 54.1877 19.3608C53.0124 17.8418 51.3659 16.7563 49.5067 16.2747C49.0775 16.1654 48.6968 15.9169 48.4241 15.568C48.1514 15.219 48.0023 14.7895 48 14.3467V13.3333H50C50.8841 13.3333 51.7319 12.9821 52.357 12.357C52.9821 11.7319 53.3333 10.8841 53.3333 10V3.33333C53.3333 2.44928 52.9821 1.60143 52.357 0.976311C51.7319 0.351189 50.8841 0 50 0L14 0C13.1159 0 12.2681 0.351189 11.643 0.976311C11.0179 1.60143 10.6667 2.44928 10.6667 3.33333V10C10.6667 10.8841 11.0179 11.7319 11.643 12.357C12.2681 12.9821 13.1159 13.3333 14 13.3333H16V14.3467C15.9977 14.7895 15.8486 15.219 15.5759 15.568C15.3032 15.9169 14.9225 16.1654 14.4933 16.2747ZM47.3333 62.6667H16.6667C14.8383 62.6638 13.0767 61.9789 11.7266 60.7459C10.3765 59.513 9.53499 57.8206 9.36667 56H54.6333C54.4653 57.8207 53.6239 59.5132 52.2737 60.7463C50.9235 61.9793 49.1618 62.6641 47.3333 62.6667ZM54.6667 54.6667H9.33333V26.6667H54.6667V54.6667ZM46.6667 1.33333H50C50.5304 1.33333 51.0391 1.54405 51.4142 1.91912C51.7893 2.29419 52 2.8029 52 3.33333V10C52 10.5304 51.7893 11.0391 51.4142 11.4142C51.0391 11.7893 50.5304 12 50 12H46.6667V1.33333ZM37.3333 1.33333H45.3333V12H37.3333V1.33333ZM28 1.33333H36V12H28V1.33333ZM18.6667 1.33333H26.6667V12H18.6667V1.33333ZM14 12C13.4696 12 12.9609 11.7893 12.5858 11.4142C12.2107 11.0391 12 10.5304 12 10V3.33333C12 2.8029 12.2107 2.29419 12.5858 1.91912C12.9609 1.54405 13.4696 1.33333 14 1.33333H17.3333V12H14ZM17.3333 14.3467V13.3333H46.6667V14.3467C46.6687 15.0853 46.916 15.8022 47.3697 16.3851C47.8234 16.9679 48.4578 17.3835 49.1733 17.5667C50.7462 17.9743 52.1391 18.8928 53.1333 20.1779C54.1276 21.463 54.6669 23.0419 54.6667 24.6667V25.3333H9.33333V24.6667C9.33306 23.0419 9.87239 21.463 10.8667 20.1779C11.8609 18.8928 13.2538 17.9743 14.8267 17.5667C15.5422 17.3835 16.1766 16.9679 16.6303 16.3851C17.084 15.8022 17.3313 15.0853 17.3333 14.3467Z" fill="black"/>
<path id="Vector_2" d="M34.6667 34.6667H38.124L32.6747 40.8947C32.3383 41.2806 32.1196 41.7547 32.0443 42.2611C31.9691 42.7674 32.0404 43.2846 32.25 43.7516C32.4596 44.2186 32.7986 44.6158 33.2269 44.8961C33.6552 45.1765 34.1548 45.3282 34.6667 45.3334H44C44.7072 45.3334 45.3855 45.0525 45.8856 44.5524C46.3857 44.0523 46.6667 43.374 46.6667 42.6667C46.6667 41.9595 46.3857 41.2812 45.8856 40.7811C45.3855 40.281 44.7072 40.0001 44 40.0001H40.5427L45.992 33.7734C46.3389 33.3914 46.564 32.9146 46.6388 32.4041C46.7136 31.8935 46.6347 31.3722 46.412 30.9067C46.2172 30.4306 45.8822 30.0251 45.4513 29.744C45.0204 29.463 44.5142 29.3198 44 29.3334H34.6667C33.9594 29.3334 33.2811 29.6144 32.781 30.1145C32.281 30.6146 32 31.2928 32 32.0001C32 32.7073 32.281 33.3856 32.781 33.8857C33.2811 34.3858 33.9594 34.6667 34.6667 34.6667ZM34.6667 30.6667H44.0227C44.2744 30.6763 44.5185 30.7562 44.7271 30.8975C44.9357 31.0388 45.1005 31.2358 45.2027 31.4661C45.3049 31.6964 45.3405 31.9507 45.3054 32.2002C45.2702 32.4497 45.1658 32.6843 45.004 32.8774L38.5733 40.2281C38.4891 40.3245 38.4344 40.443 38.4158 40.5696C38.3971 40.6963 38.4153 40.8256 38.4682 40.9421C38.5211 41.0587 38.6064 41.1575 38.7139 41.2269C38.8214 41.2963 38.9467 41.3333 39.0747 41.3334H44C44.3536 41.3334 44.6928 41.4739 44.9428 41.7239C45.1929 41.974 45.3333 42.3131 45.3333 42.6667C45.3333 43.0204 45.1929 43.3595 44.9428 43.6096C44.6928 43.8596 44.3536 44.0001 44 44.0001H34.644C34.3907 44.0051 34.1419 43.9319 33.9317 43.7904C33.7215 43.6489 33.5601 43.446 33.4693 43.2094C33.3551 42.981 33.3124 42.7233 33.3469 42.4702C33.3814 42.2171 33.4914 41.9803 33.6627 41.7907L40.0933 34.4401C40.178 34.3437 40.233 34.225 40.2519 34.0982C40.2708 33.9714 40.2527 33.8418 40.1998 33.725C40.1468 33.6082 40.0614 33.5091 39.9536 33.4397C39.8458 33.3702 39.7202 33.3333 39.592 33.3334H34.6667C34.313 33.3334 33.9739 33.1929 33.7239 32.9429C33.4738 32.6928 33.3333 32.3537 33.3333 32.0001C33.3333 31.6465 33.4738 31.3073 33.7239 31.0573C33.9739 30.8072 34.313 30.6667 34.6667 30.6667Z" fill="black"/>
<path id="Vector_3" d="M19.6 43.2733H22.092L17.904 48.1693C17.6072 48.5055 17.4164 48.9219 17.3554 49.3662C17.2944 49.8105 17.3661 50.2629 17.5614 50.6666C17.7321 51.065 18.0166 51.404 18.3793 51.6412C18.742 51.8784 19.1667 52.0032 19.6 52C21.4667 51.9666 27.0667 52 27.0667 52C27.6774 52 28.2631 51.7574 28.6949 51.3255C29.1268 50.8937 29.3694 50.308 29.3694 49.6973C29.3694 49.0866 29.1268 48.5009 28.6949 48.0691C28.2631 47.6372 27.6774 47.3946 27.0667 47.3946H24.5747L28.7627 42.4986C29.0598 42.1623 29.2508 41.7457 29.3118 41.3011C29.3727 40.8565 29.3009 40.4038 29.1054 40C28.9405 39.5974 28.6573 39.2544 28.2933 39.0164C27.9293 38.7783 27.5015 38.6563 27.0667 38.6666H19.6C18.9893 38.6666 18.4036 38.9092 17.9718 39.3411C17.54 39.7729 17.2974 40.3586 17.2974 40.9693C17.2974 41.58 17.54 42.1657 17.9718 42.5975C18.4036 43.0294 18.9893 43.272 19.6 43.272V43.2733ZM19.6 40H27.0894C27.2624 40.0036 27.4306 40.0582 27.5729 40.1568C27.7152 40.2555 27.8252 40.3938 27.8894 40.5546C27.9759 40.7239 28.0094 40.9152 27.9856 41.1038C27.9618 41.2924 27.8818 41.4695 27.756 41.612L22.612 47.6253C22.5292 47.7221 22.4759 47.8407 22.4583 47.9669C22.4408 48.0932 22.4598 48.2218 22.5131 48.3375C22.5664 48.4533 22.6518 48.5513 22.7592 48.62C22.8665 48.6888 22.9913 48.7253 23.1187 48.7253H27.0667C27.3241 48.7253 27.571 48.8276 27.7531 49.0096C27.9351 49.1916 28.0374 49.4385 28.0374 49.696C28.0374 49.9534 27.9351 50.2003 27.7531 50.3823C27.571 50.5644 27.3241 50.6666 27.0667 50.6666H19.5774C19.4024 50.6709 19.2307 50.6195 19.0869 50.5198C18.9431 50.4201 18.8347 50.2773 18.7774 50.112C18.6912 49.9426 18.6579 49.7513 18.6817 49.5628C18.7054 49.3743 18.7852 49.1973 18.9107 49.0546L24.0547 43.0413C24.1375 42.9444 24.1909 42.8259 24.2084 42.6996C24.2259 42.5734 24.2069 42.4448 24.1536 42.329C24.1003 42.2133 24.0149 42.1152 23.9076 42.0465C23.8002 41.9778 23.6755 41.9413 23.548 41.9413H19.6C19.3426 41.9413 19.0957 41.839 18.9137 41.657C18.7316 41.4749 18.6294 41.2281 18.6294 40.9706C18.6294 40.7132 18.7316 40.4663 18.9137 40.2843C19.0957 40.1022 19.3426 40 19.6 40Z" fill="black"/>
</g>
</g>
</g>
<defs>
<clipPath id="clip0_818_12457">
<rect width="64" height="64" fill="white"/>
</clipPath>
</defs>
</svg>
