<svg width="64" height="64" viewBox="0 0 64 64" fill="none" xmlns="http://www.w3.org/2000/svg">
<g id="a">
<path id="Vector" d="M27.0706 44.3171C24.9365 45.0612 22.9939 46.2658 21.3862 47.873C18.5542 50.7158 16.9946 54.4834 16.9946 58.4795C16.9946 60.1338 18.3403 61.4795 19.9946 61.4795H43.9946C45.6295 61.5031 47.0158 60.0966 46.9946 58.4795C47.0773 52.2277 42.853 46.3021 36.9186 44.3171C47.1899 39.0765 43.5863 23.6119 31.9945 23.4795C20.3997 23.6128 16.8019 39.0798 27.0706 44.3171ZM41.186 49.2852C43.6421 51.75 44.9946 55.0156 44.9946 58.4795C44.9946 58.7461 44.8926 58.9922 44.6885 59.1924C44.5078 59.377 44.2617 59.4795 43.9946 59.4795H40.9946V57.4795C40.9946 56.9268 40.5469 56.4795 39.9946 56.4795C39.4424 56.4795 38.9946 56.9268 38.9946 57.4795V59.4795H24.9946V57.4795C24.9946 56.9268 24.5469 56.4795 23.9946 56.4795C23.4424 56.4795 22.9946 56.9268 22.9946 57.4795V59.4795H19.9946C19.4434 59.4795 18.9946 59.0313 18.9946 58.4795C18.9188 52.9376 22.7517 47.712 28.0568 46.0947C28.7878 50.563 35.2029 50.5601 35.9324 46.0947C37.9124 46.7268 39.7128 47.8123 41.186 49.2852ZM29.9946 45.4795V45.2896C31.3064 45.5403 32.6829 45.5403 33.9946 45.2896C34.1343 48.0495 30.0942 48.2386 29.9946 45.4795ZM40.9947 34.4796C40.9946 38.4268 38.4624 41.877 34.6939 43.0654C29.0977 44.9629 22.8364 40.4053 22.9948 34.4794C23.4889 22.5406 40.5015 22.5425 40.9947 34.4796Z" fill="black"/>
<path id="Vector_2" d="M29.5955 41.2793C30.662 40.4444 32.7234 40.0138 34.3947 41.2793C34.833 41.6085 35.4616 41.5245 35.7946 41.0791C36.9528 39.1518 32.4474 38.3745 31.9948 38.4795C30.2522 38.4795 28.9909 39.2315 28.3943 39.6797C27.3531 40.4699 28.5461 42.0603 29.5955 41.2793Z" fill="black"/>
<path id="Vector_3" d="M48.9946 15.4795C47.3403 15.4795 45.9946 16.8252 45.9946 18.4795C46.017 19.7921 47.9719 19.7954 47.9946 18.4794C47.9946 17.9282 48.4434 17.4795 48.9946 17.4795C52.95 17.3762 52.9501 11.5826 48.9946 11.4795H46.9946C46.4424 11.4795 45.9946 11.9272 45.9946 12.4795C45.9946 13.0317 46.4424 13.4795 46.9946 13.4795H48.9946C50.3084 13.5032 50.3089 15.4559 48.9946 15.4795Z" fill="black"/>
<path id="Vector_4" d="M46.995 20.4795C45.6813 20.5043 45.6814 22.4545 46.9951 22.4795C48.3087 22.454 48.3084 20.5044 46.995 20.4795Z" fill="black"/>
<path id="Vector_5" d="M38.002 20.8017C38.2557 27.1122 46.3407 29.8365 50.358 24.9648C55.7091 31.4492 65.4545 24.2661 60.7984 17.2295C64.6094 12.0485 58.7855 4.83929 52.917 7.51513C51.7467 0.872189 42.2849 0.850209 41.0777 7.47997C33.5885 7.46471 31.2855 17.5587 38.002 20.8017ZM40.9948 9.47948C41.5096 9.44841 42.2033 9.76207 42.6553 9.32958C42.9137 9.10857 43.0395 8.7727 42.9952 8.43456C43.3202 2.73388 51.6543 3.4843 50.9244 9.14702C50.7429 10.0395 51.894 10.6844 52.5631 10.0707C55.3681 7.55382 60.0688 9.70702 59.9946 13.4796C59.9947 14.6186 59.563 15.708 58.7793 16.5469C58.4204 16.9311 58.4204 17.5278 58.7793 17.9121C61.4712 20.6726 59.3521 25.5553 55.4945 25.4794C53.6607 25.4795 52.0259 24.3813 51.3301 22.6816C51.0411 21.8836 49.8264 21.8749 49.5025 22.6294C47.141 27.519 39.7102 25.6298 40.0103 20.1971C40.0371 19.7509 39.7647 19.3413 39.3433 19.1933C34.0912 17.31 35.4095 9.5252 40.9948 9.47948Z" fill="black"/>
<path id="Vector_6" d="M47.9949 27.4795C44.0391 27.5832 44.0399 33.3763 47.9949 33.4795C51.9508 33.3758 51.95 27.5826 47.9949 27.4795ZM47.9949 29.4795C49.309 29.5031 49.3088 31.4561 47.9949 31.4795C46.6808 31.4559 46.681 29.5029 47.9949 29.4795Z" fill="black"/>
<path id="Vector_7" d="M43.9946 34.4795C44.0198 35.7931 45.9694 35.793 45.9946 34.4795C45.9692 33.1659 44.0196 33.1661 43.9946 34.4795Z" fill="black"/>
<path id="Vector_8" d="M16.9946 14.4795C15.3403 14.4795 13.9946 15.8252 13.9946 17.4795C14.017 18.7921 15.9719 18.7954 15.9946 17.4794C15.9946 16.9282 16.4434 16.4795 16.9946 16.4795C20.95 16.3762 20.9501 10.5826 16.9946 10.4795H14.9946C13.6805 10.5019 13.6801 12.4572 14.9947 12.4795H16.9946C18.3084 12.5032 18.3089 14.4559 16.9946 14.4795Z" fill="black"/>
<path id="Vector_9" d="M14.995 19.4795C13.6813 19.5043 13.6814 21.4545 14.995 21.4795C16.3087 21.454 16.3084 19.5044 14.995 19.4795Z" fill="black"/>
<path id="Vector_10" d="M8.49492 27.4795C10.5442 27.4795 12.4212 26.5303 13.6316 24.9644C17.6503 29.8389 25.7351 27.1092 25.9876 20.8018C32.707 17.5551 30.3978 7.46442 22.9119 7.47998C21.7024 0.845701 12.2405 0.876711 11.0726 7.51514C5.09984 4.92243 -0.57906 11.9267 3.19121 17.2295C0.12126 21.3787 3.32726 27.5792 8.49492 27.4795ZM11.4267 10.0709C12.0962 10.6881 13.2453 10.0365 13.0652 9.14692C12.3334 3.49183 20.6642 2.72785 20.9944 8.43269C20.9501 8.7707 21.0754 9.10841 21.3343 9.3296C21.7856 9.76283 22.4801 9.44819 22.9949 9.4795C28.5744 9.52491 29.9037 17.3078 24.6462 19.1934C24.2249 19.3413 23.9524 19.751 23.9793 20.1973C24.2781 25.6263 16.8516 27.5228 14.4871 22.6288C14.1535 21.8489 12.9378 21.9096 12.6595 22.6812C10.7954 27.2038 4.01969 25.8757 3.99497 20.9794C3.99491 19.8404 4.42655 18.751 5.21024 17.9121C5.56913 17.5279 5.56913 16.9312 5.21024 16.5469C1.44132 12.3675 7.09355 6.4773 11.4267 10.0709Z" fill="black"/>
<path id="Vector_11" d="M15.9949 27.4795C12.039 27.5832 12.0398 33.3763 15.995 33.4795C19.9508 33.3758 19.95 27.5826 15.9949 27.4795ZM15.9949 31.4795C14.6808 31.4559 14.681 29.5029 15.995 29.4795C17.309 29.5031 17.3088 31.4561 15.9949 31.4795Z" fill="black"/>
<path id="Vector_12" d="M19.9946 34.4795C19.9692 33.1659 18.0196 33.1661 17.9946 34.4795C18.0198 35.7931 19.9694 35.793 19.9946 34.4795Z" fill="black"/>
</g>
</svg>
