<svg width="32" height="32" viewBox="0 0 32 32" fill="none" xmlns="http://www.w3.org/2000/svg">
<g clip-path="url(#clip0_930_13082)">
<path d="M16.0002 8.00002C17.4729 8.00002 18.6668 6.80611 18.6668 5.33335C18.6668 3.86059 17.4729 2.66669 16.0002 2.66669C14.5274 2.66669 13.3335 3.86059 13.3335 5.33335C13.3335 6.80611 14.5274 8.00002 16.0002 8.00002Z" fill="#111827"/>
<path d="M25.3332 17.3333V14.6667C23.2865 14.6933 21.2132 13.6667 19.9065 12.22L18.1798 10.3133C17.9465 10.06 17.6665 9.85999 17.3665 9.70666C17.3532 9.69999 17.3465 9.69332 17.3398 9.68666H17.3265C16.8665 9.41999 16.3198 9.28666 15.7398 9.34666C14.3532 9.47999 13.3332 10.7267 13.3332 12.12V20C13.3332 21.4733 14.5265 22.6667 15.9998 22.6667H22.6665V29.3333H25.3332V22C25.3332 20.5267 24.1398 19.3333 22.6665 19.3333H18.6665V14.7333C20.3865 16.1533 22.9932 17.3267 25.3332 17.3333ZM17.0998 24C16.5532 25.5533 15.0732 26.6667 13.3332 26.6667C11.1265 26.6667 9.33317 24.8733 9.33317 22.6667C9.33317 20.9267 10.4465 19.4467 11.9998 18.9V16.1333C8.95984 16.7533 6.6665 19.44 6.6665 22.6667C6.6665 26.3467 9.65317 29.3333 13.3332 29.3333C16.5598 29.3333 19.2465 27.04 19.8665 24H17.0998Z" fill="#111827"/>
</g>
<defs>
<clipPath id="clip0_930_13082">
<rect width="32" height="32" fill="white"/>
</clipPath>
</defs>
</svg>
