<svg width="106" height="106" viewBox="0 0 106 106" fill="none" xmlns="http://www.w3.org/2000/svg">
<g id="Frame">
<g id="About">
<path id="Vector" d="M89.4375 30.8785C89.4375 22.9725 83.0291 16.5625 75.1232 16.5625H30.8768C22.9709 16.5625 16.5625 22.9725 16.5625 30.8785V75.1215C16.5625 83.0275 22.9709 89.4375 30.8768 89.4375H75.1232C83.0291 89.4375 89.4375 83.0275 89.4375 75.1215V30.8785ZM82.8125 75.1215C82.8125 79.3688 79.3705 82.8125 75.1232 82.8125H30.8768C26.6295 82.8125 23.1875 79.3688 23.1875 75.1215V30.8785C23.1875 26.6312 26.6295 23.1875 30.8768 23.1875H75.1232C79.3705 23.1875 82.8125 26.6312 82.8125 30.8785V75.1215ZM63.1445 72.875C63.1445 74.7042 61.6628 76.1875 59.832 76.1875H46.582C44.7512 76.1875 43.2695 74.7042 43.2695 72.875C43.2695 71.0458 44.7512 69.5625 46.582 69.5625H49.6875V49.6875H46.582C44.7512 49.6875 43.2695 48.2042 43.2695 46.375C43.2695 44.5458 44.7512 43.0625 46.582 43.0625H56.3125V69.5625H59.832C61.6628 69.5625 63.1445 71.0458 63.1445 72.875ZM48.0312 34.9883C48.0312 32.2435 50.2569 30.0195 53 30.0195C55.7431 30.0195 57.9688 32.2435 57.9688 34.9883C57.9688 37.733 55.7431 39.957 53 39.957C50.2569 39.957 48.0312 37.733 48.0312 34.9883Z" fill="black"/>
</g>
</g>
</svg>
