<svg width="53" height="48" viewBox="0 0 53 48" fill="none" xmlns="http://www.w3.org/2000/svg">
<path d="M16.334 40.7397H36.0689V43.7397H16.334V40.7397Z" stroke="#111827" stroke-linejoin="round"/>
<path d="M23.7354 40.7397V34.7397C23.7354 33.9113 24.4717 33.2397 25.3799 33.2397H27.0245C27.9328 33.2397 28.6691 33.9113 28.6691 34.7397V40.7397" stroke="#111827" stroke-linejoin="round"/>
<path d="M28.669 8.48975C28.669 8.78522 28.6052 9.07791 28.4813 9.35089C28.3573 9.62387 28.1756 9.87182 27.9465 10.0807C27.7175 10.2897 27.4455 10.4555 27.1462 10.5685C26.8469 10.6816 26.5261 10.7397 26.2022 10.7397C25.8782 10.7397 25.5575 10.6816 25.2582 10.5685C24.9589 10.4555 24.6869 10.2897 24.4579 10.0807C24.2288 9.87182 24.0471 9.62387 23.9231 9.35089C23.7992 9.07791 23.7353 8.78522 23.7354 8.48975C23.7353 8.19427 23.7992 7.90177 23.9231 7.62878C24.0471 7.3558 24.2288 7.10767 24.4579 6.89874C24.6869 6.68981 24.9589 6.52421 25.2582 6.41113C25.5575 6.29806 25.8782 6.23975 26.2022 6.23975C26.5261 6.23975 26.8469 6.29806 27.1462 6.41113C27.4455 6.52421 27.7175 6.68981 27.9465 6.89874C28.1756 7.10767 28.3573 7.3558 28.4813 7.62878C28.6052 7.90177 28.669 8.19427 28.669 8.48975Z" stroke="#111827" stroke-linejoin="round"/>
<path d="M26.2012 24.6147V32.8541" stroke="#111827" stroke-linecap="round" stroke-linejoin="round"/>
<path d="M26.2012 4V6.22931" stroke="#111827" stroke-linecap="round" stroke-linejoin="round"/>
<path d="M23.7349 8.48975H9.75602M9.75602 8.48975L4 24.9897V26.1147C4 27.4077 4.56312 28.6476 5.56548 29.5619C6.56784 30.4761 7.92733 30.9897 9.34488 30.9897C10.0468 30.9897 10.7418 30.8638 11.3903 30.6188C12.0387 30.3738 12.628 30.0146 13.1243 29.5619C13.6206 29.1092 14.0143 28.5719 14.2829 27.9804C14.5515 27.3889 14.6898 26.7549 14.6898 26.1147V24.9897L9.75602 8.48975Z" stroke="#111827" stroke-linejoin="round"/>
<path d="M4 25.7397H14.6898" stroke="#111827"/>
<path d="M28.6689 8.48975H42.6479M42.6479 8.48975L48.4039 24.9897V26.1147C48.4039 27.4077 47.8408 28.6476 46.8384 29.5619C45.8361 30.4761 44.4766 30.9897 43.059 30.9897C41.6415 30.9897 40.282 30.4761 39.2796 29.5619C38.2772 28.6476 37.7141 27.4077 37.7141 26.1147V24.9897L42.6479 8.48975Z" stroke="#111827" stroke-linejoin="round"/>
<path d="M37.7139 25.7397H48.4036" stroke="#111827"/>
<path d="M26.2012 11.1255V19.3649" stroke="#111827" stroke-linecap="round" stroke-linejoin="round"/>
<path d="M27.0245 21.9897C27.0245 22.1887 26.9378 22.3794 26.7836 22.52C26.6294 22.6607 26.4203 22.7397 26.2022 22.7397C25.9841 22.7397 25.7749 22.6607 25.6207 22.52C25.4665 22.3794 25.3799 22.1887 25.3799 21.9897C25.3799 21.7908 25.4665 21.6001 25.6207 21.4595C25.7749 21.3188 25.9841 21.2397 26.2022 21.2397C26.4203 21.2397 26.6294 21.3188 26.7836 21.4595C26.9378 21.6001 27.0245 21.7908 27.0245 21.9897Z" fill="#111827"/>
</svg>
