<svg width="35" height="35" viewBox="0 0 35 35" fill="none" xmlns="http://www.w3.org/2000/svg">
<g id="Group">
<g id="Group_2">
<path id="Vector" d="M17.5 31.25C17.2125 31.25 16.9237 31.1512 16.69 30.9525C16.3875 30.695 9.2625 24.5775 6.29 17.905C6.00875 17.275 6.2925 16.535 6.92375 16.255C7.5525 15.975 8.2925 16.2575 8.57375 16.8888C10.7475 21.77 15.545 26.5125 17.4788 28.3013C20.8912 24.9888 27.5 17.5863 27.5 12.7875C27.5 7.115 23.0138 2.5 17.5 2.5C11.9863 2.5 7.5 7.115 7.5 12.7875C7.5 13.4775 6.94 14.0375 6.25 14.0375C5.56 14.0375 5 13.4775 5 12.7875C5 5.73625 10.6075 0 17.5 0C24.3925 0 30 5.73625 30 12.7875C30 20.1775 18.82 30.4863 18.3437 30.9225C18.105 31.14 17.8025 31.25 17.5 31.25Z" fill="#111827"/>
</g>
<g id="Group_3">
<path id="Vector_2" d="M17.5 17.5C14.7425 17.5 12.5 15.2575 12.5 12.5C12.5 9.7425 14.7425 7.5 17.5 7.5C20.2575 7.5 22.5 9.7425 22.5 12.5C22.5 15.2575 20.2575 17.5 17.5 17.5ZM17.5 10C16.1212 10 15 11.1212 15 12.5C15 13.8787 16.1212 15 17.5 15C18.8787 15 20 13.8787 20 12.5C20 11.1212 18.8787 10 17.5 10Z" fill="#111827"/>
</g>
<g id="Group_4">
<path id="Vector_3" d="M33.75 34.9999H1.25001C0.805005 34.9999 0.392505 34.7637 0.168755 34.3774C-0.0549947 33.9912 -0.0562447 33.5174 0.165005 33.1299L5.16501 24.3799C5.50751 23.7812 6.27126 23.5712 6.87001 23.9149C7.46876 24.2574 7.67751 25.0212 7.33501 25.6199L3.40376 32.4999H31.595L27.6638 25.6199C27.3213 25.0212 27.53 24.2574 28.1288 23.9149C28.7275 23.5699 29.4913 23.7812 29.8338 24.3799L34.8338 33.1299C35.055 33.5174 35.0538 33.9912 34.83 34.3774C34.6075 34.7637 34.195 34.9999 33.75 34.9999Z" fill="#111827"/>
</g>
</g>
</svg>
