<svg width="24" height="30" viewBox="0 0 24 30" fill="none" xmlns="http://www.w3.org/2000/svg">
<path id="Icon (Stroke)" fill-rule="evenodd" clip-rule="evenodd" d="M19.3572 14.4987C18.6261 16.322 17.2382 17.8189 15.4809 18.7064C14.6965 19.1026 13.8384 19.3773 12.9323 19.5055C12.5501 19.5595 12.1594 19.5875 11.7621 19.5875C11.3647 19.5875 10.974 19.5595 10.5918 19.5055C9.68573 19.3773 8.82768 19.1026 8.04325 18.7064C6.2859 17.8189 4.898 16.322 4.16691 14.4987C3.80026 13.5844 3.5988 12.5879 3.5988 11.5451C3.5988 10.6568 2.86784 9.93668 1.96615 9.93668C1.80879 9.93668 1.65662 9.95862 1.51263 9.99955C0.831586 10.1932 0.333496 10.8118 0.333496 11.5451C0.333496 12.7711 0.532383 13.9513 0.900095 15.0561C1.67307 17.3786 3.1921 19.368 5.17803 20.7493C5.1958 20.7617 5.21361 20.774 5.23145 20.7863C6.09006 21.3763 7.03475 21.8532 8.04325 22.1949C8.71269 22.4217 9.41025 22.589 10.1294 22.6904V26.0213H5.23145C4.86825 26.0213 4.53275 26.1382 4.26156 26.3358C3.8595 26.6288 3.5988 27.0993 3.5988 27.6298C3.5988 28.5181 4.32977 29.2383 5.23145 29.2383H18.2927C19.1944 29.2383 19.9253 28.5181 19.9253 27.6298C19.9253 27.0993 19.6646 26.6288 19.2626 26.3358C18.9914 26.1382 18.6559 26.0213 18.2927 26.0213H13.3947V22.6904C14.1139 22.589 14.8114 22.4217 15.4809 22.1949C16.4894 21.8532 17.4341 21.3763 18.2927 20.7863C18.3105 20.774 18.3283 20.7617 18.3461 20.7493C20.332 19.368 21.8511 17.3786 22.624 15.0561C22.9917 13.9513 23.1906 12.7711 23.1906 11.5451C23.1906 10.8118 22.6925 10.1932 22.0115 9.99955C21.8675 9.95862 21.7153 9.93668 21.558 9.93668C20.6563 9.93668 19.9253 10.6568 19.9253 11.5451C19.9253 12.5879 19.7239 13.5844 19.3572 14.4987ZM16.66 11.5451C16.66 14.2101 14.4671 16.3705 11.7621 16.3705C9.057 16.3705 6.86411 14.2101 6.86411 11.5451V5.11129C6.86411 2.44629 9.057 0.285889 11.7621 0.285889C14.4671 0.285889 16.66 2.44629 16.66 5.11129V11.5451Z" fill="#111827"/>
</svg>
