<svg width="106" height="106" viewBox="0 0 106 106" fill="none" xmlns="http://www.w3.org/2000/svg">
<g id="Frame" clip-path="url(#clip0_1416_15315)">
<g id="9-Money">
<path id="Vector" d="M99.375 19.875H6.625C4.86794 19.875 3.18285 20.573 1.94042 21.8154C0.697989 23.0578 0 24.7429 0 26.5L0 79.5C0 81.2571 0.697989 82.9422 1.94042 84.1846C3.18285 85.427 4.86794 86.125 6.625 86.125H99.375C101.132 86.125 102.817 85.427 104.06 84.1846C105.302 82.9422 106 81.2571 106 79.5V26.5C106 24.7429 105.302 23.0578 104.06 21.8154C102.817 20.573 101.132 19.875 99.375 19.875ZM101.583 79.5C101.583 80.0857 101.351 80.6474 100.937 81.0615C100.522 81.4757 99.9607 81.7083 99.375 81.7083H6.625C6.03931 81.7083 5.47761 81.4757 5.06347 81.0615C4.64933 80.6474 4.41667 80.0857 4.41667 79.5V26.5C4.41667 25.9143 4.64933 25.3526 5.06347 24.9385C5.47761 24.5243 6.03931 24.2917 6.625 24.2917H99.375C99.9607 24.2917 100.522 24.5243 100.937 24.9385C101.351 25.3526 101.583 25.9143 101.583 26.5V79.5Z" fill="black"/>
<path id="Vector_2" d="M92.7503 41.9587C90.4076 41.9587 88.1608 41.028 86.5042 39.3714C84.8476 37.7149 83.917 35.4681 83.917 33.1253C83.917 32.5396 83.6843 31.9779 83.2702 31.5638C82.856 31.1497 82.2943 30.917 81.7087 30.917H24.292C23.7063 30.917 23.1446 31.1497 22.7305 31.5638C22.3163 31.9779 22.0837 32.5396 22.0837 33.1253C22.0837 35.4681 21.153 37.7149 19.4964 39.3714C17.8399 41.028 15.5931 41.9587 13.2503 41.9587C12.6646 41.9587 12.1029 42.1913 11.6888 42.6055C11.2747 43.0196 11.042 43.5813 11.042 44.167V61.8337C11.042 62.4193 11.2747 62.981 11.6888 63.3952C12.1029 63.8093 12.6646 64.042 13.2503 64.042C15.5931 64.042 17.8399 64.9726 19.4964 66.6292C21.153 68.2858 22.0837 70.5326 22.0837 72.8753C22.0837 73.461 22.3163 74.0227 22.7305 74.4369C23.1446 74.851 23.7063 75.0837 24.292 75.0837H81.7087C82.2943 75.0837 82.856 74.851 83.2702 74.4369C83.6843 74.0227 83.917 73.461 83.917 72.8753C83.917 70.5326 84.8476 68.2858 86.5042 66.6292C88.1608 64.9726 90.4076 64.042 92.7503 64.042C93.336 64.042 93.8977 63.8093 94.3119 63.3952C94.726 62.981 94.9587 62.4193 94.9587 61.8337V44.167C94.9587 43.5813 94.726 43.0196 94.3119 42.6055C93.8977 42.1913 93.336 41.9587 92.7503 41.9587ZM26.3237 70.667C25.8662 67.9515 24.5741 65.446 22.6269 63.4988C20.6797 61.5515 18.1742 60.2594 15.4587 59.802V46.1987C18.1742 45.7412 20.6797 44.4491 22.6269 42.5019C24.5741 40.5547 25.8662 38.0492 26.3237 35.3337H39.7503C37.0077 37.3907 34.7816 40.058 33.2484 43.1244C31.7152 46.1908 30.917 49.572 30.917 53.0003C30.917 56.4287 31.7152 59.8099 33.2484 62.8763C34.7816 65.9427 37.0077 68.61 39.7503 70.667H26.3237ZM53.0003 70.667C49.5062 70.667 46.0905 69.6309 43.1853 67.6896C40.28 65.7484 38.0156 62.9892 36.6785 59.7611C35.3413 56.5329 34.9914 52.9807 35.6731 49.5537C36.3548 46.1267 38.0374 42.9788 40.5081 40.5081C42.9788 38.0374 46.1267 36.3548 49.5537 35.6731C52.9807 34.9914 56.5329 35.3413 59.7611 36.6785C62.9892 38.0156 65.7484 40.28 67.6896 43.1853C69.6309 46.0905 70.667 49.5062 70.667 53.0003C70.667 57.6858 68.8057 62.1794 65.4925 65.4925C62.1794 68.8057 57.6858 70.667 53.0003 70.667ZM90.542 59.802C87.8265 60.2594 85.321 61.5515 83.3738 63.4988C81.4266 65.446 80.1344 67.9515 79.677 70.667H66.2503C68.993 68.61 71.2191 65.9427 72.7523 62.8763C74.2855 59.8099 75.0837 56.4287 75.0837 53.0003C75.0837 49.572 74.2855 46.1908 72.7523 43.1244C71.2191 40.058 68.993 37.3907 66.2503 35.3337H79.7432C80.1966 38.0399 81.479 40.5387 83.4134 42.4849C85.3477 44.4311 87.8386 45.7287 90.542 46.1987V59.802Z" fill="black"/>
<path id="Vector_3" d="M15.4587 30.917H11.042V35.3337H15.4587V30.917Z" fill="black"/>
<path id="Vector_4" d="M94.9587 30.917H90.542V35.3337H94.9587V30.917Z" fill="black"/>
<path id="Vector_5" d="M94.9587 70.667H90.542V75.0837H94.9587V70.667Z" fill="black"/>
<path id="Vector_6" d="M15.4587 70.667H11.042V75.0837H15.4587V70.667Z" fill="black"/>
</g>
</g>
<defs>
<clipPath id="clip0_1416_15315">
<rect width="106" height="106" fill="white"/>
</clipPath>
</defs>
</svg>
