<svg width="48" height="48" viewBox="0 0 48 48" fill="none" xmlns="http://www.w3.org/2000/svg">
<g id="Layer_1_1_">
<g id="Group">
<path id="Vector" d="M41.7345 18.924L39.5752 16.7648C38.9302 16.1198 38.0378 15.75 37.125 15.75C36.2122 15.75 35.3197 16.1198 34.674 16.7655L34.0148 17.4247C33.282 18.156 31.9672 18.156 31.2345 17.4247L30.5752 16.7655C30.21 16.3988 30 15.8925 30 15.375C30 14.8575 30.21 14.3512 30.576 13.9845L31.2352 13.3253C31.8802 12.6803 32.25 11.7878 32.25 10.875C32.25 9.96225 31.8802 9.06975 31.2345 8.424L29.0752 6.26475C28.4302 5.61975 27.5378 5.25 26.625 5.25H26.4683C25.671 5.25 24.8918 5.5275 24.2753 6.0315L22.0328 7.863C20.8995 8.7885 20.25 10.158 20.25 11.6205V11.751C20.25 12.5813 20.4652 13.404 20.8732 14.1293C23.682 19.1235 27.7515 23.3423 32.6407 26.331L33.798 27.0375C34.56 27.504 35.4352 27.75 36.3285 27.75C37.773 27.75 39.1313 27.1133 40.056 26.0047L41.9468 23.736C42.4643 23.1143 42.7493 22.326 42.7493 21.5168V21.375C42.75 20.4622 42.3802 19.5697 41.7345 18.924ZM38.5155 17.826L40.6748 19.9852C41.04 20.3512 41.25 20.8575 41.25 21.375V21.516C41.25 21.8123 41.1765 22.1003 41.0498 22.3635L36.192 17.5057C36.933 17.1277 37.9163 17.2282 38.5155 17.826ZM26.625 6.75C27.1425 6.75 27.6488 6.96 28.0155 7.326L30.1748 9.48525C30.54 9.85125 30.75 10.3575 30.75 10.875C30.75 11.205 30.6562 11.5268 30.4995 11.814L25.6305 6.945C25.8915 6.822 26.1765 6.75 26.4683 6.75H26.625ZM38.9032 25.0448C38.265 25.8105 37.3267 26.25 36.3285 26.25C35.7112 26.25 35.1068 26.0798 34.581 25.758L33.423 25.05C28.7512 22.1955 24.864 18.1642 22.1805 13.3935C21.8985 12.8925 21.75 12.3255 21.75 11.751V11.6205C21.75 10.6103 22.1992 9.6645 22.9822 9.02475L24.4177 7.8525L29.5043 12.939C28.866 13.5833 28.5 14.469 28.5 15.375C28.5 16.2878 28.8698 17.1803 29.5155 17.826L30.1748 18.4852C30.8198 19.1302 31.7122 19.5 32.625 19.5C33.531 19.5 34.4168 19.134 35.061 18.4965L40.1325 23.568L38.9032 25.0448Z" fill="#111827"/>
<path id="Vector_2" d="M6.75 42.75H5.25V44.25H6.75V42.75Z" fill="#111827"/>
<path id="Vector_3" d="M25.5 42.75H8.25V44.25H25.5V42.75Z" fill="#111827"/>
<path id="Vector_4" d="M28.5 42.75H27V44.25H28.5V42.75Z" fill="#111827"/>
<path id="Vector_5" d="M47.25 16.5C47.25 7.81575 40.1842 0.75 31.5 0.75C27.2213 0.75 23.34 2.4705 20.4982 5.25H6C3.93225 5.25 2.25 6.93225 2.25 9V43.5C2.25 45.5677 3.93225 47.25 6 47.25H33.75H35.25H36V45.75H35.25H33.75C32.5095 45.75 31.5 44.7405 31.5 43.5C31.5 42.2595 32.5095 41.25 33.75 41.25H35.25H36V31.587C42.4972 29.6445 47.25 23.6205 47.25 16.5ZM6 6.75H8.25V39.75H6C5.1525 39.75 4.3785 40.0433 3.75 40.5195V9C3.75 7.7595 4.7595 6.75 6 6.75ZM30.7695 45.75H6C4.7595 45.75 3.75 44.7405 3.75 43.5C3.75 42.2595 4.7595 41.25 6 41.25H30.7695C30.2933 41.8785 30 42.6525 30 43.5C30 44.3475 30.2933 45.1215 30.7695 45.75ZM34.5 39.75H33.75H9.75V6.75H19.1542C17.0295 9.435 15.75 12.8182 15.75 16.5C15.75 25.1842 22.8158 32.25 31.5 32.25C32.5268 32.25 33.528 32.1442 34.5 31.9552V39.75ZM31.5 30.75C23.6423 30.75 17.25 24.3577 17.25 16.5C17.25 8.64225 23.6423 2.25 31.5 2.25C39.3577 2.25 45.75 8.64225 45.75 16.5C45.75 24.3577 39.3577 30.75 31.5 30.75Z" fill="#111827"/>
</g>
</g>
</svg>
