<svg width="20" height="20" viewBox="0 0 20 20" fill="none" xmlns="http://www.w3.org/2000/svg">
<g id="return to home">
<path id="Vector (Stroke)" fill-rule="evenodd" clip-rule="evenodd" d="M6.04962 2.79101C6.34914 3.14045 6.30868 3.66653 5.95924 3.96605L3.72589 5.88042L6.00617 8.16077C6.33161 8.48621 6.3316 9.01385 6.00616 9.33928C5.68072 9.66471 5.15308 9.6647 4.82765 9.33926L1.91106 6.4226C1.74693 6.25846 1.6587 6.03331 1.66761 5.80137C1.67651 5.56942 1.78176 5.3517 1.95799 5.20064L4.87457 2.70064C5.22401 2.40112 5.75009 2.44158 6.04962 2.79101Z" fill="black"/>
<path id="Vector (Stroke)_2" fill-rule="evenodd" clip-rule="evenodd" d="M1.66699 5.83333C1.66699 5.3731 2.04009 5 2.50033 5H12.0811C15.3966 5 18.1998 7.69539 18.329 11.0092C18.4656 14.512 15.5834 17.5 12.0811 17.5H4.99966C4.53942 17.5 4.16633 17.1269 4.16633 16.6667C4.16633 16.2064 4.53942 15.8333 4.99966 15.8333H12.0811C14.6398 15.8333 16.7633 13.6294 16.6636 11.0741C16.5693 8.65495 14.5014 6.66667 12.0811 6.66667H2.50033C2.04009 6.66667 1.66699 6.29357 1.66699 5.83333Z" fill="black"/>
</g>
</svg>
