<svg width="150" height="50" viewBox="0 0 150 50" fill="none" xmlns="http://www.w3.org/2000/svg">
<g id="Download_on_the_App_Store_Badge_RO_RGB_blk_100317 1" clip-path="url(#clip0_2213_41)">
<g id="Group">
<g id="Group_2">
<g id="Group_3">
<path id="Vector" d="M137.668 4.04297e-05H11.9184C11.46 4.04297e-05 11.0071 4.04298e-05 10.5499 0.00254043C10.1672 0.00504043 9.78761 0.0123029 9.40125 0.0184154C8.56189 0.0282927 7.72451 0.102136 6.89637 0.239303C6.06941 0.379456 5.26834 0.643685 4.52028 1.02305C3.77312 1.40563 3.09043 1.90275 2.49696 2.49638C1.90038 3.08834 1.40308 3.77256 1.02419 4.52274C0.64425 5.27143 0.380801 6.07371 0.242938 6.90189C0.103764 7.72902 0.028873 8.56569 0.0189375 9.40439C0.0073375 9.78764 0.0061125 10.1722 0 10.5555V39.4483C0.0061125 39.8364 0.0073375 40.2124 0.0189375 40.6007C0.028876 41.4393 0.103767 42.2759 0.242938 43.103C0.38042 43.9317 0.643885 44.7344 1.02419 45.4834C1.40291 46.2312 1.90028 46.9126 2.49696 47.5013C3.08818 48.0976 3.77132 48.595 4.52028 48.9747C5.26833 49.355 6.06931 49.6208 6.89637 49.7632C7.72465 49.8992 8.56195 49.9731 9.40125 49.9842C9.78761 49.9927 10.1672 49.9975 10.5499 49.9975C11.0071 50 11.46 50 11.9184 50H137.668C138.118 50 138.574 50 139.023 49.9975C139.404 49.9975 139.795 49.9927 140.176 49.9842C141.014 49.9737 141.849 49.8998 142.676 49.7632C143.506 49.6199 144.309 49.3541 145.061 48.9747C145.809 48.5948 146.492 48.0974 147.083 47.5013C147.678 46.9103 148.176 46.2294 148.56 45.4834C148.937 44.7339 149.198 43.9312 149.333 43.103C149.473 42.2758 149.55 41.4394 149.565 40.6007C149.57 40.2124 149.57 39.8364 149.57 39.4483C149.58 38.9942 149.58 38.5425 149.58 38.081V11.9202C149.58 11.4624 149.58 11.0083 149.57 10.5555C149.57 10.1722 149.57 9.78764 149.565 9.40434C149.55 8.56557 149.473 7.72909 149.333 6.90184C149.198 6.07414 148.937 5.27192 148.56 4.52269C147.788 3.01904 146.564 1.79507 145.061 1.02294C144.309 0.6445 143.505 0.380341 142.676 0.23919C141.849 0.101419 141.014 0.0275501 140.176 0.0182404C139.795 0.0121404 139.404 0.00481543 139.023 0.00237793C138.574 -0.00012207 138.118 -0.00012207 137.668 -0.00012207V4.04297e-05Z" fill="#A6A6A6"/>
<path id="Vector_2" d="M10.556 48.9062C10.1752 48.9062 9.80354 48.9014 9.42568 48.8929C8.6429 48.8827 7.86196 48.8145 7.08925 48.689C6.36874 48.5649 5.67076 48.3341 5.01833 48.0041C4.37188 47.6769 3.78227 47.2478 3.27208 46.7334C2.7545 46.225 2.3236 45.6353 1.99644 44.9878C1.66567 44.336 1.43677 43.6374 1.31769 42.9163C1.18909 42.1414 1.11952 41.3579 1.10956 40.5725C1.10164 40.3089 1.09126 39.4311 1.09126 39.4311V10.5554C1.09126 10.5554 1.10231 9.69116 1.10963 9.43725C1.11916 8.6531 1.18833 7.87082 1.31654 7.09716C1.43584 6.37406 1.66492 5.67344 1.99586 5.01954C2.32182 4.37243 2.75033 3.78233 3.26479 3.2721C3.77867 2.75703 4.37017 2.32576 5.01771 1.99401C5.66864 1.66512 6.36531 1.43592 7.08436 1.31409C7.85961 1.1873 8.64326 1.11875 9.42875 1.10901L10.5567 1.09375H139.017L140.159 1.10963C140.937 1.11887 141.714 1.18681 142.482 1.31286C143.208 1.43622 143.912 1.66702 144.57 1.99768C145.868 2.66623 146.923 3.72395 147.589 5.02259C147.915 5.67197 148.14 6.36688 148.258 7.08374C148.388 7.86374 148.46 8.65217 148.475 9.44275C148.479 9.79675 148.479 10.177 148.479 10.5554C148.489 11.0242 148.489 11.4703 148.489 11.9202V38.081C148.489 38.5351 148.489 38.9783 148.479 39.425C148.479 39.8315 148.479 40.2039 148.474 40.5871C148.46 41.3636 148.388 42.138 148.26 42.904C148.144 43.6303 147.916 44.3344 147.585 44.9915C147.256 45.632 146.828 46.2166 146.316 46.7236C145.805 47.2409 145.215 47.6724 144.567 48.0018C143.91 48.3342 143.207 48.5659 142.482 48.689C141.709 48.8152 140.928 48.8834 140.145 48.8929C139.779 48.9014 139.396 48.9062 139.023 48.9062L137.668 48.9087L10.556 48.9062Z" fill="black"/>
</g>
<g id="&#60;Group&#62;">
<g id="&#60;Group&#62;_2">
<g id="&#60;Group&#62;_3">
<path id="&#60;Path&#62;" d="M30.9611 25.3759C30.9745 24.3326 31.2517 23.3096 31.7667 22.4022C32.2817 21.4947 33.0179 20.7323 33.9068 20.1858C33.3421 19.3794 32.5972 18.7157 31.7312 18.2475C30.8651 17.7793 29.9019 17.5195 28.9178 17.4887C26.8188 17.2684 24.7839 18.7448 23.7142 18.7448C22.6239 18.7448 20.977 17.5106 19.2036 17.5471C18.0565 17.5841 16.9386 17.9177 15.9587 18.5153C14.9789 19.1129 14.1705 19.9541 13.6125 20.9569C11.195 25.1424 12.9982 31.2938 15.314 34.677C16.4726 36.3337 17.8267 38.1843 19.5985 38.1187C21.3323 38.0467 21.9799 37.013 24.0727 37.013C26.1462 37.013 26.7537 38.1187 28.5615 38.0769C30.422 38.0467 31.5942 36.4129 32.7121 34.7405C33.5446 33.56 34.1852 32.2554 34.6101 30.8749C33.5293 30.4177 32.6069 29.6525 31.958 28.6746C31.3091 27.6967 30.9624 26.5495 30.9611 25.3759Z" fill="white"/>
<path id="&#60;Path&#62;_2" d="M27.5466 15.2637C28.561 14.0459 29.0607 12.4807 28.9397 10.9004C27.3899 11.0632 25.9584 11.8039 24.9302 12.9749C24.4276 13.547 24.0426 14.2125 23.7973 14.9335C23.552 15.6545 23.4512 16.4167 23.5006 17.1766C24.2758 17.1846 25.0427 17.0166 25.7435 16.6852C26.4443 16.3539 27.0608 15.8678 27.5466 15.2637Z" fill="white"/>
</g>
</g>
<g id="Group_4">
<path id="Vector_3" d="M52.8778 33.9246H46.9611L45.5402 38.1202H43.0341L48.6383 22.5977H51.2421L56.8463 38.1202H54.2975L52.8778 33.9246ZM47.5739 31.9886H52.2639L49.9519 25.1795H49.8872L47.5739 31.9886Z" fill="white"/>
<path id="Vector_4" d="M68.9496 32.4622C68.9496 35.979 67.0673 38.2385 64.2267 38.2385C63.5072 38.2762 62.7915 38.1104 62.1618 37.7603C61.532 37.4101 61.0136 36.8897 60.6659 36.2585H60.6122V41.864H58.2892V26.803H60.5378V28.6853H60.5805C60.9442 28.0572 61.4713 27.5395 62.1059 27.1872C62.7404 26.8349 63.4586 26.6612 64.184 26.6846C67.0563 26.6846 68.9496 28.9551 68.9496 32.4622ZM66.5619 32.4622C66.5619 30.1709 65.3778 28.6646 63.5712 28.6646C61.7963 28.6646 60.6024 30.2027 60.6024 32.4622C60.6024 34.7425 61.7963 36.2696 63.5712 36.2696C65.3778 36.2696 66.5619 34.7742 66.5619 32.4622Z" fill="white"/>
<path id="Vector_5" d="M81.4057 32.4622C81.4057 35.979 79.5233 38.2385 76.6828 38.2385C75.9632 38.2762 75.2476 38.1104 74.6178 37.7602C73.9881 37.4101 73.4697 36.8896 73.122 36.2585H73.0682V41.864H70.7452V26.803H72.9938V28.6853H73.0365C73.4002 28.0572 73.9273 27.5395 74.5619 27.1872C75.1964 26.8349 75.9146 26.6612 76.64 26.6846C79.5124 26.6846 81.4057 28.9551 81.4057 32.4622ZM79.018 32.4622C79.018 30.1709 77.8339 28.6646 76.0272 28.6646C74.2523 28.6646 73.0585 30.2026 73.0585 32.4622C73.0585 34.7424 74.2523 36.2695 76.0272 36.2695C77.8339 36.2695 79.018 34.7742 79.018 32.4622H79.018Z" fill="white"/>
<path id="Vector_6" d="M89.6381 33.7952C89.8102 35.3345 91.3056 36.3452 93.349 36.3452C95.3071 36.3452 96.7157 35.3345 96.7157 33.9465C96.7157 32.7417 95.8661 32.0203 93.8544 31.5259L91.8427 31.0413C88.9924 30.3528 87.6691 29.0198 87.6691 26.8567C87.6691 24.1785 90.0031 22.3389 93.3173 22.3389C96.5973 22.3389 98.8459 24.1785 98.9216 26.8567H96.5766C96.4362 25.3076 95.1557 24.3726 93.2843 24.3726C91.413 24.3726 90.1325 25.3186 90.1325 26.6956C90.1325 27.793 90.9503 28.4387 92.9511 28.9331L94.6613 29.353C97.8461 30.1062 99.1693 31.3855 99.1693 33.656C99.1693 36.56 96.8561 38.3789 93.1769 38.3789C89.7345 38.3789 87.4103 36.6027 87.2601 33.7951L89.6381 33.7952Z" fill="white"/>
<path id="Vector_7" d="M104.183 24.1249V26.8031H106.335V28.6427H104.183V34.8817C104.183 35.851 104.614 36.3026 105.56 36.3026C105.815 36.2982 106.07 36.2802 106.324 36.2489V38.0775C105.899 38.1569 105.466 38.1929 105.034 38.1849C102.742 38.1849 101.849 37.3243 101.849 35.1295V28.6427H100.203V26.8031H101.849V24.1249H104.183Z" fill="white"/>
<path id="Vector_8" d="M107.581 32.4623C107.581 28.9015 109.678 26.6639 112.949 26.6639C116.23 26.6639 118.317 28.9014 118.317 32.4623C118.317 36.0328 116.241 38.2606 112.949 38.2606C109.658 38.2606 107.581 36.0328 107.581 32.4623ZM115.95 32.4623C115.95 30.0197 114.831 28.578 112.949 28.578C111.066 28.578 109.948 30.0306 109.948 32.4623C109.948 34.9147 111.066 36.3453 112.949 36.3453C114.831 36.3453 115.95 34.9147 115.95 32.4623H115.95Z" fill="white"/>
<path id="Vector_9" d="M120.233 26.803H122.448V28.7293H122.502C122.652 28.1277 123.004 27.596 123.5 27.2236C123.996 26.8513 124.605 26.6609 125.224 26.6846C125.492 26.6836 125.759 26.7127 126.02 26.7713V28.9441C125.682 28.8408 125.329 28.7934 124.976 28.8037C124.639 28.79 124.302 28.8495 123.99 28.9782C123.678 29.1068 123.397 29.3014 123.167 29.5488C122.937 29.7962 122.763 30.0904 122.658 30.4112C122.552 30.732 122.517 31.0719 122.556 31.4075V38.1201H120.233L120.233 26.803Z" fill="white"/>
<path id="Vector_10" d="M136.73 34.7963C136.418 36.8507 134.417 38.2606 131.857 38.2606C128.565 38.2606 126.522 36.0548 126.522 32.516C126.522 28.9662 128.576 26.6639 131.76 26.6639C134.891 26.6639 136.86 28.8148 136.86 32.2462V33.0421H128.867V33.1825C128.83 33.599 128.882 34.0186 129.02 34.4134C129.157 34.8082 129.377 35.1692 129.665 35.4723C129.953 35.7755 130.303 36.014 130.69 36.1719C131.077 36.3297 131.493 36.4034 131.911 36.3881C132.46 36.4395 133.011 36.3123 133.482 36.0255C133.953 35.7387 134.318 35.3076 134.525 34.7963L136.73 34.7963ZM128.878 31.4186H134.536C134.556 31.0441 134.5 30.6693 134.369 30.3178C134.238 29.9663 134.036 29.6456 133.775 29.3759C133.515 29.1062 133.201 28.8933 132.854 28.7505C132.507 28.6077 132.135 28.5382 131.76 28.5463C131.381 28.544 131.006 28.6167 130.656 28.7601C130.306 28.9035 129.988 29.1149 129.72 29.3819C129.452 29.649 129.24 29.9664 129.095 30.316C128.951 30.6656 128.877 31.0403 128.878 31.4186V31.4186Z" fill="white"/>
</g>
</g>
</g>
<g id="&#60;Group&#62;_4">
<g id="Group_5">
<path id="Vector_11" d="M47.2827 10.9137C47.7698 10.8788 48.2585 10.9524 48.7136 11.1292C49.1687 11.3059 49.579 11.5815 49.9147 11.9361C50.2504 12.2906 50.5033 12.7152 50.6551 13.1793C50.8068 13.6434 50.8537 14.1354 50.7923 14.6198C50.7923 17.0026 49.5044 18.3723 47.2827 18.3723H44.5887V10.9137H47.2827ZM45.7471 17.3175H47.1533C47.5014 17.3383 47.8496 17.2812 48.1728 17.1505C48.496 17.0197 48.7859 16.8185 49.0215 16.5616C49.2571 16.3046 49.4325 15.9983 49.5348 15.6651C49.6372 15.3318 49.6639 14.9799 49.6131 14.635C49.6602 14.2914 49.6308 13.9417 49.5269 13.6109C49.423 13.2801 49.2472 12.9763 49.0121 12.7214C48.777 12.4665 48.4885 12.2667 48.1671 12.1364C47.8458 12.0061 47.4996 11.9485 47.1533 11.9677H45.7471V17.3175Z" fill="white"/>
<path id="Vector_12" d="M57.1399 16.8524C56.989 17.3668 56.662 17.8118 56.2161 18.1095C55.7703 18.4072 55.2339 18.5386 54.701 18.4808C54.3301 18.4906 53.9616 18.4196 53.621 18.2727C53.2803 18.1258 52.9758 17.9065 52.7284 17.63C52.481 17.3536 52.2967 17.0267 52.1884 16.6719C52.08 16.3171 52.0501 15.943 52.1008 15.5755C52.0515 15.2069 52.0819 14.832 52.19 14.4762C52.2981 14.1203 52.4814 13.7919 52.7275 13.513C52.9735 13.2342 53.2767 13.0115 53.6163 12.86C53.9559 12.7085 54.3242 12.6317 54.6961 12.6349C56.2622 12.6349 57.2071 13.7049 57.2071 15.4724V15.86H53.2325V15.9222C53.2151 16.1288 53.2411 16.3367 53.3087 16.5326C53.3764 16.7286 53.4842 16.9082 53.6254 17.06C53.7665 17.2119 53.9378 17.3325 54.1283 17.4143C54.3188 17.496 54.5243 17.537 54.7315 17.5347C54.9972 17.5666 55.2664 17.5188 55.5049 17.3973C55.7434 17.2758 55.9403 17.0861 56.0706 16.8524L57.1399 16.8524ZM53.2324 15.0384H56.0754C56.0894 14.8495 56.0638 14.6598 56.0001 14.4814C55.9364 14.303 55.8361 14.1399 55.7056 14.0026C55.5751 13.8652 55.4173 13.7567 55.2424 13.684C55.0675 13.6113 54.8793 13.576 54.6899 13.5803C54.4978 13.5779 54.3072 13.614 54.1292 13.6864C53.9512 13.7589 53.7896 13.8662 53.6538 14.0021C53.5179 14.138 53.4107 14.2997 53.3383 14.4777C53.266 14.6556 53.23 14.8463 53.2325 15.0384H53.2324Z" fill="white"/>
<path id="Vector_13" d="M60.7556 12.6349C62.0215 12.6349 62.8491 13.2239 62.9578 14.2163H61.8921C61.7896 13.8031 61.3855 13.5394 60.7556 13.5394C60.1355 13.5394 59.6644 13.8336 59.6644 14.2731C59.6644 14.6093 59.9488 14.8212 60.5592 14.9609L61.4942 15.1776C62.5647 15.426 63.0664 15.8862 63.0664 16.7133C63.0664 17.7728 62.0789 18.4808 60.7349 18.4808C59.3958 18.4808 58.523 17.876 58.4241 16.8787H59.5362C59.632 17.116 59.8048 17.3143 60.0268 17.4417C60.2489 17.5691 60.5072 17.6182 60.7605 17.5812C61.4527 17.5812 61.9446 17.2712 61.9446 16.8213C61.9446 16.4856 61.6809 16.2683 61.117 16.134L60.1355 15.9064C59.065 15.6531 58.5694 15.1727 58.5694 14.3353C58.5694 13.3374 59.4837 12.6349 60.7556 12.6349Z" fill="white"/>
<path id="Vector_14" d="M68.2483 14.5831C68.1775 14.2912 68.0045 14.0343 67.7606 13.859C67.5168 13.6837 67.2182 13.6014 66.919 13.6272C65.9888 13.6272 65.4199 14.3401 65.4199 15.5395C65.4199 16.7596 65.9937 17.4883 66.919 17.4883C67.2152 17.5227 67.5139 17.4476 67.7587 17.2772C68.0035 17.1068 68.1776 16.8528 68.2483 16.563H69.3286C69.2572 17.133 68.9659 17.6525 68.5169 18.0108C68.0679 18.369 67.4967 18.5377 66.9251 18.4808C66.5487 18.4927 66.1743 18.4222 65.828 18.2742C65.4817 18.1263 65.172 17.9045 64.9204 17.6244C64.6688 17.3442 64.4814 17.0125 64.3714 16.6524C64.2614 16.2923 64.2314 15.9124 64.2835 15.5395C64.234 15.1693 64.2659 14.7928 64.377 14.4363C64.4881 14.0797 64.6756 13.7517 64.9266 13.4751C65.1775 13.1985 65.4858 12.98 65.83 12.8349C66.1741 12.6898 66.5457 12.6215 66.919 12.6349C67.4953 12.5818 68.0695 12.7557 68.5195 13.1195C68.9696 13.4834 69.2599 14.0085 69.3286 14.5831L68.2483 14.5831Z" fill="white"/>
<path id="Vector_15" d="M70.4309 16.7804C70.4309 15.7672 71.1853 15.1831 72.5244 15.1001L74.0491 15.0122V14.5264C74.0491 13.9319 73.656 13.5962 72.8968 13.5962C72.2766 13.5962 71.847 13.8239 71.7237 14.2218H70.6482C70.7618 13.255 71.6712 12.6349 72.948 12.6349C74.3592 12.6349 75.1551 13.3374 75.1551 14.5264V18.3722H74.0857V17.5812H73.9978C73.8194 17.8649 73.5689 18.0962 73.2719 18.2515C72.9749 18.4068 72.642 18.4804 72.3072 18.4649C72.0709 18.4895 71.8321 18.4643 71.6061 18.3909C71.3802 18.3176 71.1721 18.1976 70.9953 18.0389C70.8185 17.8802 70.677 17.6862 70.5798 17.4695C70.4826 17.2527 70.4319 17.018 70.4309 16.7804ZM71.8836 10.2258C71.9026 10.4925 72.022 10.7421 72.2177 10.9243C72.4134 11.1066 72.6709 11.2079 72.9383 11.2079C73.2057 11.2079 73.4631 11.1066 73.6588 10.9243C73.8545 10.7421 73.9739 10.4925 73.9929 10.2258H74.8865C74.834 10.706 74.6061 11.1499 74.2464 11.4724C73.8868 11.7949 73.4207 11.9732 72.9376 11.9732C72.4546 11.9732 71.9885 11.7949 71.6289 11.4724C71.2692 11.1499 71.0413 10.706 70.9888 10.2258H71.8836ZM74.0491 16.2994V15.8289L72.6746 15.9168C71.8994 15.9686 71.5479 16.2323 71.5479 16.7285C71.5479 17.2351 71.9873 17.5299 72.5916 17.5299C72.7687 17.5478 72.9475 17.53 73.1175 17.4773C73.2875 17.4247 73.4452 17.3384 73.5812 17.2236C73.7172 17.1088 73.8287 16.9679 73.9091 16.8091C73.9895 16.6503 74.0371 16.477 74.0491 16.2994V16.2994Z" fill="white"/>
<path id="Vector_16" d="M76.8946 12.7436H77.9639V13.6066H78.0469C78.1666 13.307 78.3782 13.0531 78.6512 12.8812C78.9243 12.7094 79.2448 12.6285 79.5667 12.6502C79.7331 12.6479 79.8992 12.6635 80.0623 12.6966V13.7928C79.8584 13.7493 79.6506 13.7268 79.4422 13.7257C79.259 13.7092 79.0743 13.7313 78.9001 13.7904C78.726 13.8496 78.5661 13.9445 78.4308 14.0691C78.2954 14.1938 78.1877 14.3453 78.1145 14.514C78.0412 14.6828 78.0041 14.865 78.0054 15.0489V18.3723H76.8946L76.8946 12.7436Z" fill="white"/>
<path id="Vector_17" d="M84.8309 14.5831C84.7601 14.2912 84.5871 14.0343 84.3433 13.859C84.0994 13.6837 83.8008 13.6014 83.5016 13.6272C82.5714 13.6272 82.0026 14.3401 82.0026 15.5395C82.0026 16.7596 82.5763 17.4883 83.5016 17.4883C83.7979 17.5227 84.0965 17.4476 84.3413 17.2772C84.5861 17.1068 84.7602 16.8528 84.8309 16.563H85.9112C85.8398 17.133 85.5485 17.6525 85.0995 18.0108C84.6505 18.369 84.0793 18.5377 83.5077 18.4808C83.1313 18.4927 82.7568 18.4222 82.4105 18.2743C82.0642 18.1264 81.7544 17.9046 81.5027 17.6245C81.2511 17.3443 81.0637 17.0126 80.9536 16.6524C80.8435 16.2923 80.8134 15.9125 80.8655 15.5395C80.8161 15.1693 80.848 14.7928 80.9592 14.4362C81.0703 14.0796 81.2579 13.7516 81.5089 13.475C81.76 13.1984 82.0683 12.9799 82.4125 12.8348C82.7566 12.6897 83.1283 12.6215 83.5016 12.6349C84.0779 12.5818 84.6521 12.7557 85.1021 13.1195C85.5522 13.4834 85.8424 14.0084 85.9112 14.5831H84.8309Z" fill="white"/>
<path id="Vector_18" d="M87.0136 16.7804C87.0136 15.7672 87.768 15.1831 89.1071 15.1001L90.6317 15.0122V14.5264C90.6317 13.9319 90.2387 13.5962 89.4794 13.5962C88.8593 13.5962 88.4296 13.8239 88.3063 14.2218H87.2309C87.3444 13.255 88.2538 12.6349 89.5307 12.6349C90.9418 12.6349 91.7377 13.3374 91.7377 14.5264V18.3722H90.6684V17.5812H90.5805C90.4021 17.8649 90.1516 18.0962 89.8546 18.2515C89.5575 18.4068 89.2246 18.4804 88.8898 18.4649C88.6535 18.4895 88.4147 18.4643 88.1887 18.3909C87.9628 18.3175 87.7547 18.1976 87.5779 18.0389C87.4012 17.8802 87.2596 17.6862 87.1624 17.4695C87.0652 17.2527 87.0145 17.018 87.0136 16.7804ZM90.6317 16.2994V15.8289L89.2572 15.9167C88.4821 15.9686 88.1305 16.2323 88.1305 16.7285C88.1305 17.2351 88.57 17.5299 89.1743 17.5299C89.3513 17.5478 89.5302 17.5299 89.7002 17.4773C89.8702 17.4247 90.0279 17.3384 90.1639 17.2236C90.2998 17.1088 90.4113 16.9678 90.4917 16.8091C90.5721 16.6503 90.6197 16.477 90.6317 16.2994Z" fill="white"/>
<path id="Vector_19" d="M94.9811 13.7048V16.5991C94.9811 17.1887 95.224 17.4469 95.777 17.4469C95.9186 17.4464 96.06 17.4379 96.2006 17.4213V18.3466C96.0011 18.3823 95.799 18.4013 95.5963 18.4033C95.5133 18.4033 95.4303 18.4033 95.3534 18.3978L95.1154 19.0027C95.7977 19.0186 96.1908 19.3335 96.1908 19.8761C96.1908 20.4865 95.7099 20.8844 94.8883 20.8844C94.632 20.8892 94.3763 20.8596 94.1278 20.7965V20.1764C94.3314 20.2224 94.5392 20.2465 94.7479 20.2484C95.141 20.2484 95.3473 20.1294 95.3473 19.9023C95.3473 19.6802 95.1361 19.5868 94.6136 19.5868H94.3085V19.0857L94.6503 18.2691C94.1022 18.067 93.869 17.6331 93.869 16.8835V13.7048H92.9755V12.7691H93.869V11.3422H94.9811V12.7692H96.2006V13.7048H94.9811Z" fill="white"/>
<path id="Vector_20" d="M97.5214 11.0791C97.5128 10.9352 97.5477 10.7921 97.6214 10.6682C97.6951 10.5444 97.8043 10.4455 97.9349 10.3844C98.0654 10.3234 98.2113 10.3029 98.3536 10.3257C98.4959 10.3485 98.6281 10.4135 98.7331 10.5123C98.838 10.6111 98.9109 10.7391 98.9422 10.8798C98.9736 11.0205 98.9619 11.1674 98.9089 11.3014C98.8558 11.4353 98.7637 11.5503 98.6445 11.6314C98.5253 11.7124 98.3845 11.7558 98.2404 11.756C98.1483 11.7606 98.0562 11.7467 97.9696 11.7149C97.883 11.683 97.8038 11.634 97.7366 11.5708C97.6694 11.5076 97.6157 11.4314 97.5788 11.3469C97.5418 11.2624 97.5223 11.1713 97.5214 11.0791ZM97.6862 12.7435H98.7934V18.3722H97.6862V12.7435Z" fill="white"/>
<path id="Vector_21" d="M103.36 15.5554C103.36 13.7769 104.274 12.6502 105.696 12.6502C106.048 12.634 106.397 12.7182 106.703 12.8931C107.009 13.0679 107.258 13.3262 107.423 13.6377H107.506V10.5463H108.616V18.3722H107.552V17.4829H107.464C107.287 17.7923 107.029 18.0473 106.717 18.2204C106.406 18.3935 106.053 18.4781 105.696 18.465C104.265 18.465 103.36 17.3383 103.36 15.5554ZM104.508 15.5554C104.508 16.7493 105.07 17.4677 106.011 17.4677C106.948 17.4677 107.526 16.7389 107.526 15.5603C107.526 14.3872 106.942 13.6481 106.011 13.6481C105.076 13.6481 104.508 14.3714 104.508 15.5554Z" fill="white"/>
<path id="Vector_22" d="M115.198 16.8524C115.047 17.3668 114.72 17.8118 114.275 18.1095C113.829 18.4072 113.292 18.5386 112.759 18.4808C112.389 18.4906 112.02 18.4196 111.679 18.2727C111.339 18.1258 111.034 17.9065 110.787 17.63C110.539 17.3536 110.355 17.0267 110.247 16.6719C110.138 16.3171 110.109 15.943 110.159 15.5755C110.11 15.2069 110.14 14.832 110.248 14.4762C110.357 14.1203 110.54 13.7919 110.786 13.513C111.032 13.2342 111.335 13.0115 111.675 12.86C112.014 12.7085 112.383 12.6317 112.755 12.6349C114.321 12.6349 115.266 13.7049 115.266 15.4724V15.86H111.291V15.9222C111.274 16.1288 111.299 16.3367 111.367 16.5326C111.435 16.7286 111.543 16.9082 111.684 17.06C111.825 17.2119 111.996 17.3325 112.187 17.4143C112.377 17.496 112.583 17.537 112.79 17.5347C113.056 17.5666 113.325 17.5188 113.563 17.3973C113.802 17.2758 113.999 17.0861 114.129 16.8524L115.198 16.8524ZM111.291 15.0384H114.134C114.148 14.8495 114.122 14.6598 114.059 14.4814C113.995 14.303 113.895 14.1399 113.764 14.0026C113.634 13.8652 113.476 13.7567 113.301 13.684C113.126 13.6113 112.938 13.576 112.748 13.5803C112.556 13.5779 112.366 13.614 112.188 13.6864C112.01 13.7588 111.848 13.8662 111.712 14.002C111.576 14.1379 111.469 14.2996 111.397 14.4776C111.324 14.6556 111.288 14.8463 111.291 15.0384H111.291Z" fill="white"/>
<path id="Vector_23" d="M125.067 15.5554C125.067 17.3437 124.162 18.4649 122.74 18.4649C122.391 18.4886 122.043 18.4122 121.736 18.2447C121.43 18.0772 121.177 17.8256 121.009 17.5195H120.921V20.2435H119.81V12.7435H120.88V13.6737H120.962C121.134 13.3567 121.39 13.0934 121.702 12.9128C122.014 12.7322 122.37 12.6413 122.73 12.6501C124.162 12.6501 125.067 13.7664 125.067 15.5554ZM123.924 15.5554C123.924 14.3664 123.361 13.648 122.42 13.648C121.485 13.648 120.9 14.3817 120.9 15.5603C120.9 16.7334 121.485 17.4676 122.415 17.4676C123.361 17.4676 123.924 16.7492 123.924 15.5554Z" fill="white"/>
<path id="Vector_24" d="M131.317 16.8524C131.166 17.3668 130.839 17.8118 130.393 18.1095C129.947 18.4072 129.411 18.5386 128.878 18.4808C128.507 18.4906 128.138 18.4196 127.798 18.2727C127.457 18.1258 127.152 17.9065 126.905 17.63C126.658 17.3536 126.473 17.0267 126.365 16.6719C126.257 16.3171 126.227 15.943 126.277 15.5755C126.228 15.2069 126.258 14.832 126.367 14.4762C126.475 14.1203 126.658 13.7919 126.904 13.513C127.15 13.2342 127.453 13.0115 127.793 12.86C128.133 12.7085 128.501 12.6317 128.873 12.6349C130.439 12.6349 131.384 13.7049 131.384 15.4724V15.86H127.409V15.9222C127.392 16.1288 127.418 16.3367 127.485 16.5326C127.553 16.7286 127.661 16.9082 127.802 17.06C127.943 17.2119 128.114 17.3325 128.305 17.4143C128.495 17.496 128.701 17.537 128.908 17.5347C129.174 17.5666 129.443 17.5188 129.681 17.3973C129.92 17.2758 130.117 17.0861 130.247 16.8524L131.317 16.8524ZM127.409 15.0384H130.252C130.266 14.8495 130.24 14.6598 130.177 14.4814C130.113 14.303 130.013 14.1399 129.882 14.0026C129.752 13.8652 129.594 13.7567 129.419 13.684C129.244 13.6113 129.056 13.576 128.867 13.5803C128.674 13.5779 128.484 13.614 128.306 13.6864C128.128 13.7588 127.966 13.8662 127.83 14.0021C127.695 14.1379 127.587 14.2997 127.515 14.4776C127.443 14.6556 127.407 14.8463 127.409 15.0384H127.409Z" fill="white"/>
</g>
</g>
</g>
</g>
<defs>
<clipPath id="clip0_2213_41">
<rect width="149.58" height="50" fill="white"/>
</clipPath>
</defs>
</svg>
