<svg width="708" height="396" viewBox="0 0 708 396" fill="none" xmlns="http://www.w3.org/2000/svg">
<path d="M573.515 8.0647H148.543V315.943H573.515V8.0647Z" fill="#F2F2F2"/>
<path d="M484.191 89.3142H237.865V243.944H484.191V89.3142Z" fill="white"/>
<path d="M237.865 89.3142L361.028 162.004L484.191 89.3142H237.865Z" fill="#D97706"/>
<path d="M573.515 8.0647H148.543V33.4261H573.515V8.0647Z" fill="#E0E0E0"/>
<path d="M559.282 27.1083C562.795 27.1083 565.642 24.2594 565.642 20.7452C565.642 17.2309 562.795 14.3821 559.282 14.3821C555.769 14.3821 552.921 17.2309 552.921 20.7452C552.921 24.2594 555.769 27.1083 559.282 27.1083Z" fill="white"/>
<path d="M453.078 268.637C478.526 268.637 499.156 247.999 499.156 222.542C499.156 197.084 478.526 176.447 453.078 176.447C427.631 176.447 407.001 197.084 407.001 222.542C407.001 247.999 427.631 268.637 453.078 268.637Z" fill="#D97706"/>
<path d="M445.177 247.367C444.304 247.367 443.464 247.033 442.829 246.433L425.326 229.912C424.666 229.289 424.281 228.429 424.254 227.522C424.228 226.615 424.563 225.734 425.186 225.074C425.809 224.413 426.668 224.028 427.575 224.001C428.482 223.975 429.363 224.31 430.023 224.933L444.988 239.06L475.948 204.93C476.557 204.258 477.409 203.855 478.315 203.811C479.222 203.767 480.108 204.085 480.78 204.695C481.452 205.305 481.855 206.157 481.899 207.064C481.943 207.971 481.625 208.858 481.015 209.53L447.71 246.244C447.405 246.581 447.035 246.854 446.623 247.046C446.21 247.239 445.764 247.347 445.309 247.364C445.265 247.366 445.221 247.367 445.177 247.367Z" fill="white"/>
<path d="M74.1756 131.464C74.1756 131.464 69.0527 123.322 69.2621 121.118C69.4715 118.913 75.8753 116.683 75.8753 116.683C75.8753 116.683 74.9488 114.733 74.1229 112.593C73.1705 110.124 72.3514 107.401 73.2451 107.13C74.1065 106.868 75.4141 109.109 76.6115 111.716C78.1504 115.062 79.5086 119.004 79.5086 119.004C79.5086 119.004 79.6502 115.11 81.0899 115.358C81.6817 115.46 81.9315 116.164 81.9335 118.955C81.9335 122.136 82.431 127.096 82.431 127.096L74.1756 131.464Z" fill="#FECDD3"/>
<path d="M90.4401 167.962C88.9559 167.962 87.5055 167.519 86.2744 166.69C85.0433 165.861 84.0875 164.683 83.5293 163.307L70.1182 130.269L83.9398 124.656L88.0001 134.66L91.1873 118.724L105.817 121.653L97.758 161.963C97.4434 163.537 96.63 164.967 95.4386 166.042C94.2471 167.116 92.7412 167.778 91.1441 167.928C90.9083 167.951 90.6736 167.962 90.4401 167.962Z" fill="#FBBF24"/>
<path d="M66.2302 141.177L74.5246 139.853C74.8505 139.801 75.1618 139.68 75.438 139.5C75.7143 139.319 75.9493 139.082 76.1276 138.804C76.306 138.526 76.4236 138.214 76.4729 137.887C76.5222 137.561 76.5021 137.228 76.4137 136.909L71.195 118.173C71.0407 117.618 70.6874 117.139 70.2026 116.828C69.7179 116.517 69.1356 116.395 68.5669 116.486L60.2725 117.81C59.9466 117.862 59.6353 117.982 59.359 118.163C59.0828 118.344 58.8478 118.581 58.6695 118.859C58.4911 119.136 58.3735 119.449 58.3242 119.775C58.2748 120.102 58.295 120.435 58.3833 120.753L63.602 139.49C63.7565 140.045 64.1098 140.524 64.5946 140.835C65.0793 141.146 65.6615 141.267 66.2302 141.177Z" fill="#E0E0E0"/>
<path d="M141.381 309.639C128.943 306.496 127.719 306.027 127.316 305.874L132.456 292.451C132.416 292.435 132.363 292.416 132.299 292.394C133.31 292.727 139.627 294.372 144.9 295.704L141.381 309.639Z" fill="#FECDD3"/>
<path d="M140.821 328.415C140.697 328.781 140.498 329.117 140.238 329.402C139.977 329.688 139.661 329.917 139.308 330.075C138.955 330.232 138.574 330.316 138.187 330.319C137.801 330.323 137.418 330.247 137.062 330.096C136.569 329.886 136.146 329.54 135.843 329.099C135.54 328.657 135.37 328.138 135.352 327.602L135.361 309.957C135.363 309.616 135.438 309.279 135.581 308.969C135.725 308.659 135.934 308.384 136.194 308.163C138.438 306.49 140.086 304.142 140.896 301.462C141.442 299.346 141.383 297.12 140.726 295.036C140.655 294.849 140.638 294.645 140.678 294.448C140.719 294.251 140.814 294.07 140.953 293.925C141.093 293.781 141.27 293.679 141.465 293.631C141.66 293.584 141.865 293.593 142.055 293.658L149.809 296.259C150.037 296.336 150.249 296.457 150.43 296.616C150.612 296.774 150.761 296.967 150.868 297.183C150.975 297.4 151.038 297.635 151.054 297.876C151.07 298.116 151.038 298.358 150.96 298.586L140.821 328.415Z" fill="#E0E0E0"/>
<path d="M107.332 390.022C107.332 390.022 107.284 375.136 107.284 373.818H121.653C121.653 375.132 121.701 389.976 121.701 389.976L107.332 390.022Z" fill="#FECDD3"/>
<path d="M144.982 183.903C135.762 174.68 92.9269 187.12 92.9269 187.12L92.8879 187.388L92.0107 186.894C81.1156 208.8 65.6874 241.586 55.0132 263.916C54.1977 265.452 53.7064 267.138 53.5696 268.871C53.4328 270.605 53.6536 272.348 54.2182 273.992C54.7829 275.636 55.6793 277.147 56.8518 278.43C58.0244 279.713 59.4481 280.742 61.0345 281.452L107.665 302.207C105.271 328.518 102.521 354.808 100.233 381.078L125.354 384.214C129.92 352.874 134.614 321.57 138.806 290.19L139.49 288.651L139.039 288.451C141.61 269.119 144.567 249.809 146.014 230.337C147.244 213.777 149.942 188.865 144.982 183.903ZM84.3821 264.126C93.3724 249.136 103.951 231.47 113.104 216.476C112.635 236.165 111.468 255.839 109.936 275.5L84.3821 264.126Z" fill="#262626"/>
<path d="M79.5867 136.266L74.695 142.906C74.695 142.906 61.5467 140.269 60.3137 130.136C60.1714 128.969 60.2945 125.742 61.739 126.175C65.5023 127.303 70.1852 133.08 73.4696 133.848C72.7203 132.506 71.8062 130.61 72.3953 130.264C73.9465 129.352 78.1162 134.853 79.5867 136.266Z" fill="#FECDD3"/>
<path d="M128.994 112.701C128.994 112.701 123.491 110.337 123.491 95.8752L112.43 94.7478C112.43 94.7478 114.71 107.527 109.533 112.066L128.994 112.701Z" fill="#FECDD3"/>
<g opacity="0.15">
<path d="M111.545 109.192L120.029 101.526L112.913 102.035C112.907 104.485 112.443 106.912 111.545 109.192Z" fill="black"/>
</g>
<path d="M129.216 89.7982C128.819 94.2181 126.78 98.54 123.052 100.264C119 102.27 114.518 103.254 109.998 103.13C97.9906 103.13 98.1261 75.8064 103.356 70.0723C108.587 64.3383 125.48 66.3124 128.224 74.9603C129.643 79.4335 129.595 85.5906 129.216 89.7982Z" fill="#FECDD3"/>
<path d="M111.799 87.8433C112.347 87.8433 112.791 87.3992 112.791 86.8515C112.791 86.3037 112.347 85.8596 111.799 85.8596C111.252 85.8596 110.808 86.3037 110.808 86.8515C110.808 87.3992 111.252 87.8433 111.799 87.8433Z" fill="#0F1011"/>
<path d="M103.95 87.8433C104.498 87.8433 104.942 87.3992 104.942 86.8515C104.942 86.3037 104.498 85.8596 103.95 85.8596C103.403 85.8596 102.959 86.3037 102.959 86.8515C102.959 87.3992 103.403 87.8433 103.95 87.8433Z" fill="#0F1011"/>
<path d="M102.027 84.887C101.906 84.8892 101.789 84.844 101.701 84.7611C101.612 84.6783 101.56 84.5642 101.554 84.4431C101.549 84.3221 101.59 84.2036 101.671 84.1129C101.751 84.0222 101.864 83.9664 101.984 83.9574L104.6 83.7096C104.722 83.6995 104.844 83.7378 104.939 83.8163C105.033 83.8949 105.094 84.0074 105.107 84.1299C105.112 84.1909 105.106 84.2524 105.088 84.3109C105.07 84.3695 105.041 84.4239 105.002 84.4711C104.963 84.5183 104.915 84.5573 104.861 84.5859C104.807 84.6145 104.747 84.6321 104.686 84.6378L102.072 84.8849L102.027 84.887Z" fill="#0F1011"/>
<path d="M113.747 84.8869C113.724 84.8869 113.701 84.8851 113.679 84.8814L111.047 84.4707C110.986 84.4617 110.928 84.4407 110.875 84.409C110.823 84.3774 110.777 84.3356 110.74 84.2861C110.704 84.2366 110.678 84.1805 110.663 84.1208C110.648 84.0611 110.646 83.9991 110.655 83.9384C110.664 83.8777 110.686 83.8194 110.718 83.767C110.749 83.7145 110.792 83.6689 110.841 83.6327C110.891 83.5966 110.947 83.5706 111.007 83.5563C111.067 83.542 111.129 83.5396 111.189 83.5494L113.822 83.9601C113.936 83.9789 114.04 84.04 114.112 84.1315C114.184 84.2231 114.22 84.3383 114.211 84.4544C114.202 84.5706 114.151 84.6794 114.066 84.7593C113.981 84.8392 113.87 84.8845 113.753 84.8862L113.747 84.8869Z" fill="#0F1011"/>
<path d="M111.98 94.6746C111.98 94.6746 108.365 95.3591 105.734 94.6746C105.734 94.6746 105.951 97.0758 108.857 97.0758C111.763 97.0758 111.98 94.6746 111.98 94.6746Z" fill="white"/>
<path d="M120.265 79.1645C120.855 99.1341 123.755 100.962 123.755 100.962C123.755 100.962 133.198 94.1729 133.514 82.1257C133.813 70.8314 125.025 64.8989 119.351 64.109C97.7909 61.1095 97.0342 80.5842 97.0342 80.5842C107.854 82.4399 122.592 79.374 122.592 79.374" fill="#0F1011"/>
<path d="M117.137 88.8481C117.13 89.4048 117.233 89.9573 117.441 90.4736C117.65 90.99 117.958 91.4599 118.349 91.856C118.74 92.2522 119.206 92.5667 119.719 92.7814C120.233 92.9961 120.784 93.1066 121.34 93.1066C121.896 93.1066 122.447 92.9961 122.961 92.7814C123.474 92.5667 123.94 92.2522 124.331 91.856C124.722 91.4599 125.031 90.99 125.239 90.4736C125.447 89.9573 125.55 89.4048 125.543 88.8481C125.552 88.2934 125.45 87.7425 125.242 87.2281C125.034 86.7138 124.725 86.2465 124.333 85.8542C123.941 85.462 123.474 85.1526 122.96 84.9447C122.446 84.7368 121.895 84.6345 121.34 84.6439C118.347 84.7918 117.137 86.527 117.137 88.8481Z" fill="#FECDD3"/>
<path d="M137.423 82.1256C142.716 82.1256 147.007 77.8333 147.007 72.5385C147.007 67.2437 142.716 62.9514 137.423 62.9514C132.13 62.9514 127.84 67.2437 127.84 72.5385C127.84 77.8333 132.13 82.1256 137.423 82.1256Z" fill="#0F1011"/>
<path d="M145.714 115.414C142.587 112.285 137.188 110.266 130.606 110.259C130.113 114.099 106.808 114.113 106.63 110.348C105.74 110.362 105.049 110.376 104.618 110.396C88.8006 111.081 88.8471 123.832 90.4031 137.926L77.3875 132.184L71.3662 145.84L92.0802 154.979C92.0939 155.39 92.1034 155.8 92.1089 156.211C92.3758 178.43 86.375 182.619 89.3316 189.409C92.1979 196.001 148.531 198.739 149.284 187.144C149.763 179.765 143.263 173.324 143.263 158.942C143.263 144.561 156.49 126.194 145.714 115.414Z" fill="#FBBF24"/>
<path d="M106.63 110.348C106.808 114.113 108.854 119.651 115.169 120.068C123.585 120.623 130.113 114.099 130.606 110.259H130.585C122.299 110.259 111.463 110.273 106.63 110.348Z" fill="#FECDD3"/>
<g opacity="0.15">
<path d="M107.837 92.6958C107.812 92.6957 107.787 92.6929 107.763 92.6875L105.324 92.1516C105.277 92.1412 105.232 92.1208 105.193 92.0918C105.155 92.0629 105.122 92.026 105.099 91.9836C105.075 91.9412 105.061 91.8943 105.057 91.8459C105.053 91.7976 105.059 91.7489 105.075 91.7032L106.353 88.0911C106.386 88.0084 106.449 87.9416 106.53 87.9047C106.611 87.8678 106.703 87.8638 106.786 87.8935C106.87 87.9231 106.939 87.9842 106.978 88.0638C107.018 88.1433 107.025 88.2351 106.998 88.3197L105.849 91.5663L107.91 92.0195C107.992 92.0378 108.065 92.0857 108.114 92.1542C108.163 92.2226 108.185 92.3067 108.176 92.3903C108.167 92.474 108.127 92.5514 108.065 92.6078C108.002 92.6641 107.921 92.6954 107.837 92.6958Z" fill="black"/>
</g>
<path d="M89.8815 395.872C89.4951 395.87 89.1132 395.789 88.7596 395.633C88.4061 395.477 88.0885 395.249 87.8268 394.965C87.5651 394.681 87.3648 394.345 87.2384 393.98C87.1121 393.615 87.0624 393.227 87.0925 392.842C87.1341 392.308 87.3275 391.796 87.6498 391.368C87.9722 390.94 88.4101 390.614 88.9119 390.426L105.636 384.822C105.96 384.715 106.304 384.679 106.643 384.717C106.982 384.755 107.309 384.865 107.602 385.041C109.901 386.637 112.651 387.453 115.448 387.369C117.627 387.214 119.718 386.449 121.484 385.162C121.639 385.035 121.827 384.955 122.026 384.931C122.225 384.906 122.427 384.939 122.608 385.025C122.79 385.111 122.943 385.247 123.05 385.417C123.157 385.587 123.213 385.783 123.213 385.984V394.165C123.213 394.406 123.165 394.645 123.073 394.868C122.98 395.091 122.844 395.293 122.673 395.464C122.503 395.634 122.3 395.769 122.076 395.861C121.853 395.952 121.614 395.999 121.373 395.998L89.8815 395.872Z" fill="#E0E0E0"/>
</svg>
