<svg width="169" height="50" viewBox="0 0 169 50" fill="none" xmlns="http://www.w3.org/2000/svg">
<g id="google-play-badge (1) 2" clip-path="url(#clip0_2213_77)">
<g id="g10">
<g id="g12">
<path id="path16" d="M161.383 49.6914H7.06157C3.66651 49.6914 0.888733 46.9136 0.888733 43.5186V6.48153C0.888733 3.08647 3.66651 0.308689 7.06157 0.308689H161.383C164.778 0.308689 167.555 3.08647 167.555 6.48153V43.5186C167.555 46.9136 164.778 49.6914 161.383 49.6914Z" fill="black"/>
<path id="path18" d="M161.383 0.308689H7.06157C3.66651 0.308689 0.888733 3.08647 0.888733 6.48153V43.5186C0.888733 46.9136 3.66651 49.6914 7.06157 49.6914H161.383C164.778 49.6914 167.555 46.9136 167.555 43.5186V6.48153C167.555 3.08647 164.778 0.308689 161.383 0.308689ZM161.383 1.29634C164.242 1.29634 166.568 3.62276 166.568 6.48153V43.5186C166.568 46.3778 164.242 48.7042 161.383 48.7042H7.06157C4.20281 48.7042 1.87639 46.3778 1.87639 43.5186V6.48153C1.87639 3.62276 4.20281 1.29634 7.06157 1.29634H161.383Z" fill="#A6A6A6"/>
<path id="path20" d="M132.908 37.3457H135.212V21.9121H132.908V37.3457ZM153.658 27.4716L151.017 34.1629H150.938L148.197 27.4716H145.716L149.826 36.8239L147.483 42.026H149.886L156.22 27.4716H153.658ZM140.594 35.5927C139.838 35.5927 138.786 35.2156 138.786 34.282C138.786 33.0908 140.097 32.6341 141.228 32.6341C142.242 32.6341 142.717 32.8525 143.333 33.1506C143.154 34.58 141.923 35.5927 140.594 35.5927ZM140.871 27.134C139.204 27.134 137.476 27.8689 136.762 29.4971L138.806 30.3506C139.243 29.4971 140.057 29.2188 140.911 29.2188C142.102 29.2188 143.313 29.934 143.333 31.2047V31.3634C142.916 31.1251 142.023 30.7678 140.931 30.7678C138.727 30.7678 136.483 31.9787 136.483 34.2424C136.483 36.3074 138.29 37.6379 140.315 37.6379C141.864 37.6379 142.717 36.943 143.254 36.129H143.333V37.3202H145.557V31.4029C145.557 28.6632 143.512 27.134 140.871 27.134ZM126.634 29.3504H123.358V24.0602H126.634C128.357 24.0602 129.334 25.4861 129.334 26.7052C129.334 27.9013 128.357 29.3504 126.634 29.3504ZM126.575 21.9121H121.055V37.3457H123.358V31.4984H126.575C129.128 31.4984 131.638 29.6499 131.638 26.7052C131.638 23.7606 129.128 21.9121 126.575 21.9121ZM96.4751 35.5956C94.8837 35.5956 93.5512 34.2631 93.5512 32.433C93.5512 30.5836 94.8837 29.2309 96.4751 29.2309C98.0464 29.2309 99.2795 30.5836 99.2795 32.433C99.2795 34.2631 98.0464 35.5956 96.4751 35.5956ZM99.1203 28.3358H99.0407C98.5238 27.7194 97.5289 27.1625 96.276 27.1625C93.6506 27.1625 91.2442 29.4695 91.2442 32.433C91.2442 35.3767 93.6506 37.664 96.276 37.664C97.5289 37.664 98.5238 37.1069 99.0407 36.4709H99.1203V37.2266C99.1203 39.2357 98.0464 40.3097 96.316 40.3097C94.9039 40.3097 94.0287 39.295 93.6703 38.4399L91.6618 39.2752C92.2386 40.6674 93.7702 42.3781 96.316 42.3781C99.021 42.3781 101.308 40.7866 101.308 36.9083V27.4808H99.1203V28.3358ZM102.899 37.3457H105.206V21.9116H102.899V37.3457ZM108.608 32.2541C108.548 30.2252 110.179 29.1913 111.352 29.1913C112.268 29.1913 113.043 29.6484 113.301 30.3053L108.608 32.2541ZM115.768 30.504C115.331 29.3302 113.997 27.1625 111.273 27.1625C108.568 27.1625 106.32 29.2906 106.32 32.4132C106.32 35.3569 108.548 37.664 111.531 37.664C113.938 37.664 115.331 36.1921 115.907 35.3371L114.117 34.1435C113.521 35.0188 112.705 35.5956 111.531 35.5956C110.358 35.5956 109.523 35.0584 108.985 34.0046L116.006 31.1005L115.768 30.504ZM59.8317 28.7736V31.0011H65.1619C65.0028 32.2541 64.5851 33.1689 63.9486 33.8055C63.1732 34.5814 61.9598 35.4364 59.8317 35.4364C56.5498 35.4364 53.9843 32.7913 53.9843 29.5095C53.9843 26.2278 56.5498 23.5823 59.8317 23.5823C61.6019 23.5823 62.8944 24.2785 63.8492 25.1736L65.4205 23.6025C64.088 22.3293 62.3176 21.3547 59.8317 21.3547C55.3365 21.3547 51.5576 25.0145 51.5576 29.5095C51.5576 34.0046 55.3365 37.664 59.8317 37.664C62.2584 37.664 64.088 36.8688 65.5198 35.3767C66.9917 33.9048 67.4493 31.8364 67.4493 30.166C67.4493 29.6484 67.4097 29.1715 67.3297 28.7736H59.8317ZM73.5093 35.5956C71.9179 35.5956 70.5454 34.2829 70.5454 32.4132C70.5454 30.5237 71.9179 29.2309 73.5093 29.2309C75.1002 29.2309 76.4727 30.5237 76.4727 32.4132C76.4727 34.2829 75.1002 35.5956 73.5093 35.5956ZM73.5093 27.1625C70.6051 27.1625 68.2382 29.3702 68.2382 32.4132C68.2382 35.4364 70.6051 37.664 73.5093 37.664C76.4129 37.664 78.7798 35.4364 78.7798 32.4132C78.7798 29.3702 76.4129 27.1625 73.5093 27.1625ZM85.0071 35.5956C83.4163 35.5956 82.0437 34.2829 82.0437 32.4132C82.0437 30.5237 83.4163 29.2309 85.0071 29.2309C86.5981 29.2309 87.9706 30.5237 87.9706 32.4132C87.9706 34.2829 86.5981 35.5956 85.0071 35.5956ZM85.0071 27.1625C82.1031 27.1625 79.7366 29.3702 79.7366 32.4132C79.7366 35.4364 82.1031 37.664 85.0071 37.664C87.9108 37.664 90.2777 35.4364 90.2777 32.4132C90.2777 29.3702 87.9108 27.1625 85.0071 27.1625Z" fill="white"/>
<g id="g22">
<g id="g24">
<path id="path44" d="M13.8638 40.2958L13.7721 40.208C13.4128 39.8279 13.2007 39.2376 13.2007 38.4733V38.6532V11.3495C13.2007 11.347 13.2007 11.3452 13.2007 11.3432C13.2007 11.3455 13.2007 11.3475 13.2007 11.35V11.5303C13.2007 10.7027 13.448 10.0792 13.8623 9.70541L29.1584 25.0011L13.8638 40.2958ZM13.2007 11.3417C13.2007 11.2737 13.2026 11.2076 13.206 11.1426C13.2026 11.2071 13.2007 11.2737 13.2007 11.3417ZM13.206 11.1396C13.206 11.1387 13.206 11.1378 13.2064 11.1368C13.206 11.1378 13.206 11.1387 13.206 11.1396ZM13.2064 11.131C13.2064 11.1305 13.2064 11.13 13.2064 11.1295C13.2064 11.13 13.2064 11.1305 13.2064 11.131Z" fill="url(#paint0_linear_2213_77)"/>
</g>
</g>
<g id="g46">
<g id="g48">
<path id="path64" d="M34.2563 30.2821L34.3726 30.2161L40.4132 26.7838C40.9891 26.4564 41.3729 26.0595 41.5644 25.6395C41.3734 26.0595 40.9895 26.4569 40.4132 26.7843L34.3726 30.2165L34.2563 30.2821ZM34.2577 30.1012L29.1584 25.001L34.2572 19.9016L40.4132 23.3989C41.1949 23.8431 41.6338 24.4156 41.7071 25.0005C41.7071 25.001 41.7071 25.002 41.7071 25.0028C41.6338 25.5864 41.1949 26.1594 40.4132 26.6035L34.2577 30.1012Z" fill="url(#paint1_linear_2213_77)"/>
</g>
</g>
<g id="g66">
<g id="g68">
<path id="path80" d="M14.9542 40.8782C14.5269 40.8782 14.154 40.7393 13.8633 40.4769L13.8638 40.4764C14.1545 40.7388 14.5279 40.8782 14.9552 40.8782C14.9922 40.8782 15.0298 40.8772 15.068 40.8753C15.0294 40.8772 14.9912 40.8782 14.9542 40.8782ZM14.9547 40.6973C14.5274 40.6978 14.1545 40.5584 13.8638 40.2961V40.2957L29.1584 25.001L34.2577 30.1013L16.3377 40.2831C15.8419 40.5642 15.3722 40.6973 14.9547 40.6973ZM13.8595 40.4736C13.8324 40.449 13.8059 40.423 13.7798 40.396L13.8595 40.4736Z" fill="url(#paint2_linear_2213_77)"/>
</g>
</g>
<g id="g82">
<g id="g84">
<path id="path102" d="M29.1584 25.0011L13.8623 9.70542C14.153 9.44357 14.5254 9.30468 14.9522 9.30468C15.3708 9.30468 15.8409 9.43826 16.3377 9.71987L34.2572 19.9017L29.1584 25.0011ZM34.3726 19.7865L16.3377 9.53962C15.8409 9.25789 15.3708 9.12431 14.9522 9.12431C14.9502 9.12431 14.9488 9.12431 14.9469 9.12431C14.9493 9.12431 14.9512 9.12431 14.9542 9.12431C15.3718 9.12431 15.8414 9.25739 16.3377 9.53912L34.3726 19.7865Z" fill="url(#paint3_linear_2213_77)"/>
</g>
</g>
<path id="path104" d="M15.068 40.8754C15.4561 40.8531 15.8859 40.7196 16.3377 40.4635L34.2563 30.2822L16.3377 40.4635C15.8863 40.7201 15.4561 40.8531 15.068 40.8754ZM13.8633 40.477L13.8595 40.4736C13.8608 40.4746 13.8623 40.476 13.8633 40.477ZM13.7798 40.396L13.7721 40.3883V40.3878C13.775 40.3907 13.7774 40.3935 13.7798 40.396Z" fill="black"/>
<g id="g106">
<g id="g108">
<path id="path124" d="M34.2563 30.2821L34.3726 30.2161L34.2563 30.2821Z" fill="url(#paint4_linear_2213_77)"/>
</g>
</g>
<g id="g126">
<g id="g128">
<path id="path140" d="M14.9552 40.8782C14.5279 40.8782 14.1545 40.7388 13.8638 40.4764L13.8633 40.4769C13.8623 40.476 13.8608 40.4746 13.8595 40.4736L13.7798 40.396C13.7774 40.3935 13.775 40.3906 13.7721 40.3878L13.8638 40.2961C14.1545 40.5584 14.5274 40.6978 14.9547 40.6973C15.3722 40.6973 15.8419 40.5642 16.3377 40.2831L34.2577 30.1013L34.3726 30.2161L34.2563 30.2821L16.3377 40.4635C15.8859 40.7195 15.4561 40.8531 15.068 40.8753C15.0298 40.8772 14.9922 40.8782 14.9552 40.8782Z" fill="url(#paint5_linear_2213_77)"/>
</g>
</g>
<path id="path142" d="M13.7721 40.3883C13.4128 40.0082 13.2007 39.4179 13.2007 38.6536V38.6531C13.2007 39.4179 13.4128 40.0077 13.7721 40.3878V40.3883Z" fill="black"/>
<g id="g144">
<g id="g146">
<path id="path166" d="M13.7721 40.3878C13.4128 40.0077 13.2007 39.4179 13.2007 38.6531V38.4733C13.2007 39.2376 13.4128 39.8278 13.7721 40.2079L13.8638 40.2957L13.7721 40.3878Z" fill="url(#paint6_linear_2213_77)"/>
</g>
</g>
<g id="g168">
<g id="g170">
<path id="path182" d="M13.7721 40.3878L13.8638 40.2957V40.2961L13.7721 40.3878Z" fill="url(#paint7_linear_2213_77)"/>
</g>
</g>
<path id="path184" d="M41.5644 25.6395C41.6594 25.4311 41.7071 25.2171 41.7071 25.0029C41.7071 25.0025 41.7071 25.002 41.7071 25.002C41.7071 25.2166 41.6594 25.4306 41.5644 25.6395Z" fill="black"/>
<g id="g186">
<g id="g188">
<path id="path204" d="M34.3726 30.2161L34.2578 30.1013L40.4132 26.6035C41.1949 26.1594 41.6338 25.5864 41.7071 25.0029C41.7071 25.2171 41.6594 25.4311 41.5644 25.6395C41.3729 26.0595 40.9891 26.4564 40.4132 26.7838L34.3726 30.2161Z" fill="url(#paint8_linear_2213_77)"/>
</g>
</g>
<path id="path206" d="M41.7071 25.0011V25.0006C41.7066 24.3548 41.275 23.7091 40.4132 23.2191L34.3726 19.7869H34.3721L34.3726 19.7865L40.4132 23.2186C41.276 23.7086 41.7081 24.3553 41.7071 25.0011Z" fill="#404040"/>
<g id="g208">
<g id="g210">
<path id="path226" d="M41.7071 25.0005C41.6338 24.4155 41.1949 23.8431 40.4132 23.3989L34.2573 19.9016L34.3721 19.7868H34.3726L40.4132 23.219C41.275 23.709 41.7066 24.3547 41.7071 25.0005Z" fill="url(#paint9_linear_2213_77)"/>
</g>
</g>
<path id="path228" d="M13.2007 11.3431C13.2007 11.3426 13.2007 11.3422 13.2007 11.3417C13.2007 11.3422 13.2007 11.3426 13.2007 11.3431ZM13.206 11.1425C13.206 11.1415 13.206 11.1405 13.206 11.1396C13.206 11.1405 13.206 11.1415 13.206 11.1425ZM13.2064 11.1367C13.2064 11.1347 13.2064 11.1329 13.2064 11.1309C13.2064 11.1329 13.2064 11.1347 13.2064 11.1367ZM13.2064 11.1294C13.2779 9.86117 13.9675 9.12857 14.9431 9.12425C14.5201 9.12672 14.1517 9.26561 13.8633 9.52549V9.52499L13.8598 9.52845C13.8295 9.55585 13.8006 9.58487 13.7721 9.61474C13.448 9.95758 13.2436 10.4712 13.2064 11.1294Z" fill="#404040"/>
<g id="g230">
<g id="g232">
<path id="path252" d="M13.2007 11.5303V11.3499C13.2007 11.3474 13.2007 11.3455 13.2007 11.3431C13.2007 11.3426 13.2007 11.3421 13.2007 11.3416C13.2007 11.2736 13.2026 11.2071 13.206 11.1425C13.206 11.1415 13.206 11.1405 13.206 11.1395C13.206 11.1387 13.206 11.1377 13.2064 11.1367C13.2064 11.1347 13.2064 11.1329 13.2064 11.1309C13.2064 11.1304 13.2064 11.1299 13.2064 11.1294C13.2436 10.4711 13.448 9.95756 13.7721 9.61472L13.8623 9.70534C13.448 10.0792 13.2007 10.7026 13.2007 11.5303ZM13.8598 9.52842L13.8633 9.52497C13.8623 9.52645 13.8608 9.52743 13.8598 9.52842Z" fill="url(#paint10_linear_2213_77)"/>
</g>
</g>
<g id="g256">
<g id="g258">
<path id="path276" d="M34.2572 19.9016L16.3377 9.71976C15.841 9.43816 15.3708 9.30457 14.9522 9.30457C14.5254 9.30457 14.1531 9.44346 13.8623 9.70532L13.7721 9.6147C13.8006 9.58482 13.8295 9.55581 13.8598 9.5284C13.8608 9.52741 13.8623 9.52643 13.8633 9.52544C14.1517 9.26556 14.5201 9.12667 14.9431 9.1242C14.944 9.1242 14.9454 9.1242 14.9469 9.1242C14.9489 9.1242 14.9502 9.1242 14.9522 9.1242C15.3708 9.1242 15.841 9.25778 16.3377 9.53951L34.3726 19.7864L34.3721 19.7868L34.2572 19.9016Z" fill="url(#paint11_linear_2213_77)"/>
</g>
</g>
</g>
</g>
<path id="Vector" d="M54.6941 9.68791C55.1811 9.65296 55.6698 9.72653 56.125 9.90332C56.5801 10.0801 56.9903 10.3557 57.3261 10.7102C57.6618 11.0648 57.9146 11.4894 58.0664 11.9535C58.2182 12.4176 58.265 12.9096 58.2036 13.394C58.2036 15.7768 56.9158 17.1465 54.6941 17.1465H52V9.68791H54.6941ZM53.1584 16.0917H54.5647C54.9127 16.1125 55.261 16.0554 55.5841 15.9246C55.9073 15.7939 56.1973 15.5927 56.4329 15.3357C56.6685 15.0788 56.8438 14.7725 56.9462 14.4392C57.0485 14.106 57.0752 13.7541 57.0244 13.4092C57.0715 13.0656 57.0421 12.7159 56.9382 12.3851C56.8343 12.0542 56.6585 11.7505 56.4234 11.4956C56.1884 11.2407 55.8998 11.0409 55.5785 10.9106C55.2571 10.7803 54.9109 10.7227 54.5647 10.7419H53.1584V16.0917Z" fill="white"/>
<path id="Vector_2" d="M64.5513 15.6266C64.4004 16.141 64.0734 16.586 63.6276 16.8837C63.1817 17.1813 62.6454 17.3128 62.1124 17.255C61.7416 17.2648 61.373 17.1937 61.0324 17.0468C60.6918 16.8999 60.3872 16.6806 60.1398 16.4042C59.8924 16.1278 59.7082 15.8008 59.5998 15.4461C59.4914 15.0913 59.4616 14.7172 59.5123 14.3497C59.4629 13.9811 59.4933 13.6062 59.6014 13.2503C59.7095 12.8945 59.8928 12.566 60.1389 12.2872C60.385 12.0084 60.6881 11.7856 61.0277 11.6341C61.3674 11.4826 61.7356 11.4059 62.1075 11.409C63.6737 11.409 64.6185 12.479 64.6185 14.2465V14.6342H60.6439V14.6964C60.6265 14.903 60.6525 15.1109 60.7202 15.3068C60.7878 15.5027 60.8957 15.6824 61.0368 15.8342C61.1779 15.986 61.3492 16.1067 61.5397 16.1884C61.7302 16.2702 61.9357 16.3112 62.143 16.3089C62.4087 16.3408 62.6779 16.293 62.9163 16.1714C63.1548 16.0499 63.3517 15.8603 63.4821 15.6265L64.5513 15.6266ZM60.6438 13.8126H63.4869C63.5009 13.6237 63.4752 13.4339 63.4115 13.2555C63.3478 13.0772 63.2475 12.9141 63.117 12.7767C62.9865 12.6394 62.8288 12.5309 62.6538 12.4582C62.4789 12.3855 62.2907 12.3501 62.1014 12.3545C61.9092 12.3521 61.7186 12.3882 61.5406 12.4606C61.3627 12.533 61.201 12.6403 61.0652 12.7762C60.9294 12.9121 60.8221 13.0738 60.7498 13.2518C60.6774 13.4298 60.6414 13.6205 60.6439 13.8126H60.6438Z" fill="white"/>
<path id="Vector_3" d="M68.167 11.4091C69.4329 11.4091 70.2605 11.998 70.3691 12.9905H69.3035C69.201 12.5773 68.7969 12.3136 68.167 12.3136C67.5469 12.3136 67.0757 12.6078 67.0757 13.0472C67.0757 13.3835 67.3602 13.5953 67.9705 13.7351L68.9055 13.9518C69.9761 14.2002 70.4778 14.6604 70.4778 15.4874C70.4778 16.547 69.4903 17.255 68.1462 17.255C66.8071 17.255 65.9343 16.6501 65.8354 15.6528H66.9475C67.0433 15.8902 67.2161 16.0885 67.4382 16.2159C67.6602 16.3433 67.9186 16.3924 68.1719 16.3553C68.864 16.3553 69.356 16.0453 69.356 15.5954C69.356 15.2598 69.0923 15.0425 68.5283 14.9082L67.5469 14.6805C66.4763 14.4272 65.9807 13.9469 65.9807 13.1095C65.9807 12.1116 66.895 11.4091 68.167 11.4091Z" fill="white"/>
<path id="Vector_4" d="M75.6596 13.3572C75.5888 13.0654 75.4158 12.8085 75.1719 12.6332C74.9281 12.4578 74.6295 12.3756 74.3303 12.4014C73.4001 12.4014 72.8312 13.1143 72.8312 14.3137C72.8312 15.5337 73.405 16.2625 74.3303 16.2625C74.6266 16.2968 74.9252 16.2217 75.17 16.0513C75.4148 15.8809 75.5889 15.627 75.6596 15.3372H76.74C76.6685 15.9072 76.3772 16.4267 75.9282 16.7849C75.4792 17.1432 74.908 17.3118 74.3364 17.2549C73.96 17.2668 73.5856 17.1963 73.2393 17.0484C72.8931 16.9005 72.5833 16.6787 72.3317 16.3985C72.0801 16.1184 71.8927 15.7867 71.7827 15.4265C71.6727 15.0664 71.6427 14.6866 71.6948 14.3137C71.6453 13.9435 71.6772 13.567 71.7883 13.2104C71.8994 12.8539 72.0869 12.5258 72.3379 12.2492C72.5889 11.9727 72.8972 11.7542 73.2413 11.6091C73.5854 11.4639 73.9571 11.3957 74.3303 11.409C74.9066 11.3559 75.4808 11.5298 75.9309 11.8937C76.3809 12.2575 76.6712 12.7826 76.74 13.3573L75.6596 13.3572Z" fill="white"/>
<path id="Vector_5" d="M77.8423 15.5546C77.8423 14.5414 78.5967 13.9573 79.9358 13.8743L81.4604 13.7864V13.3005C81.4604 12.7061 81.0674 12.3704 80.3081 12.3704C79.688 12.3704 79.2583 12.598 79.135 12.996H78.0596C78.1731 12.0292 79.0825 11.4091 80.3594 11.4091C81.7705 11.4091 82.5664 12.1116 82.5664 13.3005V17.1464H81.4971V16.3554H81.4092C81.2308 16.6391 80.9803 16.8704 80.6833 17.0257C80.3862 17.1809 80.0533 17.2546 79.7185 17.2391C79.4822 17.2637 79.2434 17.2385 79.0174 17.1651C78.7915 17.0917 78.5834 16.9718 78.4067 16.8131C78.2299 16.6544 78.0883 16.4604 77.9911 16.2436C77.8939 16.0269 77.8432 15.7921 77.8423 15.5546ZM79.2949 9C79.314 9.26671 79.4334 9.5163 79.6291 9.69852C79.8248 9.88073 80.0822 9.98204 80.3496 9.98204C80.617 9.98204 80.8745 9.88073 81.0702 9.69852C81.2658 9.5163 81.3852 9.26671 81.4043 9H82.2978C82.2453 9.48019 82.0174 9.9241 81.6578 10.2466C81.2981 10.5691 80.8321 10.7474 80.349 10.7474C79.8659 10.7474 79.3999 10.5691 79.0402 10.2466C78.6806 9.9241 78.4526 9.48019 78.4001 9H79.2949ZM81.4604 15.0736V14.603L80.0859 14.6909C79.3108 14.7428 78.9592 15.0065 78.9592 15.5027C78.9592 16.0093 79.3987 16.3041 80.003 16.3041C80.18 16.322 80.3589 16.3041 80.5289 16.2515C80.6989 16.1989 80.8566 16.1126 80.9926 15.9978C81.1285 15.883 81.24 15.742 81.3204 15.5833C81.4008 15.4245 81.4484 15.2512 81.4604 15.0736V15.0736Z" fill="white"/>
<path id="Vector_6" d="M84.3059 11.5177H85.3752V12.3808H85.4583C85.578 12.0812 85.7895 11.8272 86.0626 11.6554C86.3356 11.4836 86.6561 11.4027 86.978 11.4244C87.1444 11.4221 87.3105 11.4377 87.4736 11.4707V12.567C87.2698 12.5234 87.062 12.5009 86.8535 12.4999C86.6703 12.4834 86.4857 12.5055 86.3115 12.5646C86.1373 12.6238 85.9774 12.7187 85.8421 12.8433C85.7068 12.9679 85.5991 13.1195 85.5258 13.2882C85.4525 13.4569 85.4154 13.6391 85.4168 13.8231V17.1464H84.3059L84.3059 11.5177Z" fill="white"/>
<path id="Vector_7" d="M92.2422 13.3572C92.1714 13.0654 91.9984 12.8085 91.7546 12.6332C91.5107 12.4578 91.2121 12.3756 90.9129 12.4014C89.9827 12.4014 89.4139 13.1143 89.4139 14.3137C89.4139 15.5337 89.9876 16.2625 90.9129 16.2625C91.2092 16.2968 91.5078 16.2217 91.7526 16.0513C91.9974 15.8809 92.1715 15.627 92.2422 15.3372H93.3225C93.2511 15.9072 92.9598 16.4267 92.5108 16.7849C92.0618 17.1432 91.4906 17.3118 90.919 17.2549C90.5426 17.2668 90.1681 17.1964 89.8218 17.0485C89.4755 16.9006 89.1657 16.6788 88.914 16.3986C88.6624 16.1185 88.4749 15.7868 88.3649 15.4266C88.2548 15.0665 88.2247 14.6867 88.2768 14.3137C88.2273 13.9435 88.2593 13.5669 88.3705 13.2104C88.4816 12.8538 88.6692 12.5257 88.9202 12.2492C89.1712 11.9726 89.4796 11.7541 89.8238 11.609C90.1679 11.4639 90.5396 11.3957 90.9129 11.409C91.4891 11.3559 92.0634 11.5298 92.5134 11.8937C92.9634 12.2575 93.2537 12.7826 93.3225 13.3572H92.2422Z" fill="white"/>
<path id="Vector_8" d="M94.425 15.5546C94.425 14.5414 95.1794 13.9573 96.5185 13.8743L98.0432 13.7864V13.3005C98.0432 12.706 97.6501 12.3704 96.8909 12.3704C96.2708 12.3704 95.8411 12.598 95.7178 12.996H94.6423C94.7559 12.0292 95.6653 11.4091 96.9421 11.4091C98.3533 11.4091 99.1492 12.1116 99.1492 13.3005V17.1464H98.0798V16.3553H97.9919C97.8136 16.6391 97.5631 16.8704 97.266 17.0257C96.969 17.1809 96.6361 17.2546 96.3013 17.2391C96.065 17.2637 95.8262 17.2385 95.6002 17.1651C95.3743 17.0917 95.1662 16.9718 94.9894 16.8131C94.8126 16.6544 94.6711 16.4604 94.5739 16.2436C94.4767 16.0269 94.426 15.7921 94.425 15.5546ZM98.0432 15.0736V14.603L96.6687 14.6909C95.8935 14.7428 95.542 15.0065 95.542 15.5027C95.542 16.0093 95.9814 16.3041 96.5857 16.3041C96.7628 16.322 96.9416 16.3041 97.1116 16.2515C97.2817 16.1989 97.4393 16.1126 97.5753 15.9978C97.7113 15.883 97.8228 15.742 97.9032 15.5832C97.9836 15.4245 98.0312 15.2512 98.0432 15.0736Z" fill="white"/>
<path id="Vector_9" d="M102.393 12.479V15.3733C102.393 15.9629 102.635 16.2211 103.188 16.2211C103.33 16.2206 103.471 16.2121 103.612 16.1954V17.1207C103.413 17.1565 103.21 17.1755 103.008 17.1775C102.925 17.1775 102.842 17.1775 102.765 17.172L102.527 17.7769C103.209 17.7927 103.602 18.1077 103.602 18.6503C103.602 19.2606 103.121 19.6586 102.3 19.6586C102.043 19.6633 101.788 19.6338 101.539 19.5707V18.9506C101.743 18.9965 101.951 19.0207 102.159 19.0226C102.552 19.0226 102.759 18.9036 102.759 18.6765C102.759 18.4544 102.548 18.361 102.025 18.361H101.72V17.8599L102.062 17.0432C101.514 16.8412 101.281 16.4072 101.281 15.6577V12.479H100.387V11.5433H101.281V10.1163H102.393V11.5433H103.612V12.479H102.393Z" fill="white"/>
<path id="Vector_10" d="M104.933 9.85325C104.924 9.70937 104.959 9.56624 105.033 9.44239C105.106 9.31854 105.216 9.21968 105.346 9.15861C105.477 9.09754 105.623 9.07708 105.765 9.09988C105.907 9.12268 106.039 9.18769 106.144 9.28648C106.249 9.38528 106.322 9.51331 106.353 9.65399C106.385 9.79467 106.373 9.94152 106.32 10.0755C106.267 10.2095 106.175 10.3245 106.056 10.4055C105.937 10.4866 105.796 10.53 105.652 10.5301C105.56 10.5348 105.467 10.5208 105.381 10.489C105.294 10.4572 105.215 10.4082 105.148 10.345C105.081 10.2818 105.027 10.2056 104.99 10.1211C104.953 10.0366 104.934 9.94548 104.933 9.85325ZM105.097 11.5177H106.205V17.1463H105.097V11.5177Z" fill="white"/>
<path id="Vector_11" d="M110.771 14.3296C110.771 12.551 111.686 11.4243 113.108 11.4243C113.459 11.4081 113.809 11.4924 114.114 11.6672C114.42 11.8421 114.669 12.1004 114.834 12.4118H114.917V9.32043H116.028V17.1464H114.963V16.2571H114.875C114.698 16.5664 114.44 16.8215 114.128 16.9946C113.817 17.1677 113.464 17.2522 113.108 17.2391C111.676 17.2392 110.771 16.1124 110.771 14.3296ZM111.919 14.3296C111.919 15.5235 112.481 16.2418 113.423 16.2418C114.359 16.2418 114.938 15.5131 114.938 14.3345C114.938 13.1614 114.353 12.4223 113.423 12.4223C112.488 12.4223 111.919 13.1455 111.919 14.3296Z" fill="white"/>
<path id="Vector_12" d="M122.61 15.6266C122.459 16.141 122.132 16.586 121.686 16.8837C121.24 17.1813 120.704 17.3128 120.171 17.255C119.8 17.2648 119.431 17.1937 119.091 17.0468C118.75 16.8999 118.446 16.6806 118.198 16.4042C117.951 16.1278 117.767 15.8008 117.658 15.4461C117.55 15.0913 117.52 14.7172 117.571 14.3497C117.521 13.9811 117.552 13.6062 117.66 13.2503C117.768 12.8945 117.951 12.566 118.197 12.2872C118.443 12.0084 118.746 11.7856 119.086 11.6341C119.426 11.4826 119.794 11.4059 120.166 11.409C121.732 11.409 122.677 12.479 122.677 14.2465V14.6342H118.702V14.6964C118.685 14.903 118.711 15.1109 118.778 15.3068C118.846 15.5027 118.954 15.6824 119.095 15.8342C119.236 15.986 119.408 16.1067 119.598 16.1884C119.789 16.2702 119.994 16.3112 120.201 16.3089C120.467 16.3408 120.736 16.293 120.975 16.1714C121.213 16.0499 121.41 15.8603 121.54 15.6265L122.61 15.6266ZM118.702 13.8126H121.545C121.559 13.6237 121.534 13.4339 121.47 13.2555C121.406 13.0772 121.306 12.9141 121.175 12.7767C121.045 12.6394 120.887 12.5309 120.712 12.4582C120.537 12.3855 120.349 12.3501 120.16 12.3545C119.968 12.3521 119.777 12.3881 119.599 12.4606C119.421 12.533 119.259 12.6403 119.124 12.7762C118.988 12.9121 118.88 13.0738 118.808 13.2518C118.736 13.4298 118.7 13.6205 118.702 13.8126H118.702Z" fill="white"/>
<path id="Vector_13" d="M132.478 14.3295C132.478 16.1179 131.573 17.2391 130.151 17.2391C129.803 17.2628 129.454 17.1863 129.148 17.0189C128.841 16.8514 128.589 16.5998 128.42 16.2936H128.332V19.0176H127.221V11.5176H128.291V12.4479H128.374C128.545 12.1309 128.801 11.8676 129.113 11.687C129.425 11.5063 129.781 11.4154 130.141 11.4243C131.573 11.4243 132.478 12.5406 132.478 14.3295ZM131.335 14.3295C131.335 13.1406 130.772 12.4222 129.831 12.4222C128.896 12.4222 128.312 13.1558 128.312 14.3344C128.312 15.5075 128.896 16.2418 129.826 16.2418C130.772 16.2418 131.335 15.5234 131.335 14.3295Z" fill="white"/>
<path id="Vector_14" d="M138.728 15.6266C138.577 16.141 138.25 16.586 137.804 16.8837C137.358 17.1813 136.822 17.3128 136.289 17.255C135.918 17.2648 135.55 17.1937 135.209 17.0468C134.868 16.8999 134.564 16.6806 134.316 16.4042C134.069 16.1278 133.885 15.8008 133.776 15.4461C133.668 15.0913 133.638 14.7172 133.689 14.3497C133.639 13.9811 133.67 13.6062 133.778 13.2503C133.886 12.8945 134.069 12.566 134.315 12.2872C134.561 12.0084 134.865 11.7856 135.204 11.6341C135.544 11.4826 135.912 11.4059 136.284 11.409C137.85 11.409 138.795 12.479 138.795 14.2465V14.6342H134.82V14.6964C134.803 14.903 134.829 15.1109 134.897 15.3068C134.964 15.5027 135.072 15.6824 135.213 15.8342C135.354 15.986 135.526 16.1067 135.716 16.1884C135.907 16.2702 136.112 16.3112 136.319 16.3089C136.585 16.3408 136.854 16.293 137.093 16.1714C137.331 16.0499 137.528 15.8603 137.659 15.6265L138.728 15.6266ZM134.82 13.8126H137.663C137.677 13.6237 137.652 13.4339 137.588 13.2555C137.524 13.0772 137.424 12.9141 137.294 12.7767C137.163 12.6394 137.005 12.5309 136.83 12.4582C136.655 12.3855 136.467 12.3501 136.278 12.3545C136.086 12.3521 135.895 12.3881 135.717 12.4606C135.539 12.533 135.378 12.6403 135.242 12.7762C135.106 12.9121 134.999 13.0738 134.926 13.2518C134.854 13.4298 134.818 13.6205 134.82 13.8126H134.82Z" fill="white"/>
</g>
<defs>
<linearGradient id="paint0_linear_2213_77" x1="27.8021" y1="11.0615" x2="7.08294" y2="31.7806" gradientUnits="userSpaceOnUse">
<stop stop-color="#00A0FF"/>
<stop offset="0.00657445" stop-color="#00A1FF"/>
<stop offset="0.2601" stop-color="#00BEFF"/>
<stop offset="0.5122" stop-color="#00D2FF"/>
<stop offset="0.7604" stop-color="#00DFFF"/>
<stop offset="1" stop-color="#00E3FF"/>
</linearGradient>
<linearGradient id="paint1_linear_2213_77" x1="42.6596" y1="25.0017" x2="12.7868" y2="25.0017" gradientUnits="userSpaceOnUse">
<stop stop-color="#FFE000"/>
<stop offset="0.4087" stop-color="#FFBD00"/>
<stop offset="0.7754" stop-color="#FFA500"/>
<stop offset="1" stop-color="#FF9C00"/>
</linearGradient>
<linearGradient id="paint2_linear_2213_77" x1="31.5393" y1="27.8347" x2="3.44268" y2="55.9314" gradientUnits="userSpaceOnUse">
<stop stop-color="#FF3A44"/>
<stop offset="1" stop-color="#C31162"/>
</linearGradient>
<linearGradient id="paint3_linear_2213_77" x1="9.89774" y1="0.526284" x2="22.444" y2="13.0726" gradientUnits="userSpaceOnUse">
<stop stop-color="#32A071"/>
<stop offset="0.0685" stop-color="#2DA771"/>
<stop offset="0.4762" stop-color="#15CF74"/>
<stop offset="0.8009" stop-color="#06E775"/>
<stop offset="1" stop-color="#00F076"/>
</linearGradient>
<linearGradient id="paint4_linear_2213_77" x1="42.6595" y1="25.0016" x2="12.787" y2="25.0016" gradientUnits="userSpaceOnUse">
<stop stop-color="#CCB300"/>
<stop offset="0.4087" stop-color="#CC9700"/>
<stop offset="0.7754" stop-color="#CC8400"/>
<stop offset="1" stop-color="#CC7D00"/>
</linearGradient>
<linearGradient id="paint5_linear_2213_77" x1="31.5393" y1="27.8347" x2="3.44268" y2="55.9314" gradientUnits="userSpaceOnUse">
<stop stop-color="#CC2E36"/>
<stop offset="1" stop-color="#9C0E4E"/>
</linearGradient>
<linearGradient id="paint6_linear_2213_77" x1="27.8021" y1="11.0614" x2="7.08297" y2="31.7806" gradientUnits="userSpaceOnUse">
<stop stop-color="#008DE0"/>
<stop offset="0.00657445" stop-color="#008DE0"/>
<stop offset="0.2601" stop-color="#00A7E0"/>
<stop offset="0.5122" stop-color="#00B8E0"/>
<stop offset="0.7604" stop-color="#00C4E0"/>
<stop offset="1" stop-color="#00C7E0"/>
</linearGradient>
<linearGradient id="paint7_linear_2213_77" x1="31.5397" y1="27.8353" x2="3.44434" y2="55.9325" gradientUnits="userSpaceOnUse">
<stop stop-color="#E0333C"/>
<stop offset="1" stop-color="#AB0F56"/>
</linearGradient>
<linearGradient id="paint8_linear_2213_77" x1="42.6596" y1="25.0017" x2="12.7868" y2="25.0017" gradientUnits="userSpaceOnUse">
<stop stop-color="#E0C500"/>
<stop offset="0.4087" stop-color="#E0A600"/>
<stop offset="0.7754" stop-color="#E09100"/>
<stop offset="1" stop-color="#E08900"/>
</linearGradient>
<linearGradient id="paint9_linear_2213_77" x1="42.6596" y1="25.0017" x2="12.7868" y2="25.0017" gradientUnits="userSpaceOnUse">
<stop stop-color="#FFE840"/>
<stop offset="0.4087" stop-color="#FFCE40"/>
<stop offset="0.7754" stop-color="#FFBC40"/>
<stop offset="1" stop-color="#FFB540"/>
</linearGradient>
<linearGradient id="paint10_linear_2213_77" x1="27.802" y1="11.0614" x2="7.08292" y2="31.7805" gradientUnits="userSpaceOnUse">
<stop stop-color="#40B8FF"/>
<stop offset="0.00657445" stop-color="#40B9FF"/>
<stop offset="0.2601" stop-color="#40CEFF"/>
<stop offset="0.5122" stop-color="#40DDFF"/>
<stop offset="0.7604" stop-color="#40E7FF"/>
<stop offset="1" stop-color="#40EAFF"/>
</linearGradient>
<linearGradient id="paint11_linear_2213_77" x1="9.89774" y1="0.52618" x2="22.444" y2="13.0725" gradientUnits="userSpaceOnUse">
<stop stop-color="#65B895"/>
<stop offset="0.0685" stop-color="#62BD95"/>
<stop offset="0.4762" stop-color="#50DB97"/>
<stop offset="0.8009" stop-color="#44ED98"/>
<stop offset="1" stop-color="#40F498"/>
</linearGradient>
<clipPath id="clip0_2213_77">
<rect width="167.593" height="50" fill="white" transform="translate(0.580078)"/>
</clipPath>
</defs>
</svg>
