<svg width="334" height="404" viewBox="0 0 334 404" fill="none" xmlns="http://www.w3.org/2000/svg">
<path d="M200.738 369.912C200.738 369.912 207.756 380.294 200.102 388.927C192.447 397.56 200.696 402.285 200.696 402.285L231.811 371.147L216.263 355.59L200.738 369.912Z" fill="#FBBF24"/>
<path d="M199.084 156.369C199.084 156.369 198.946 152.669 198.978 161.062C199.026 174.999 197.701 211.828 198.632 259.296C199.374 297.24 225.769 362.353 225.769 362.353L201.965 379.452C201.965 379.452 166.157 321.328 160.474 263.788C157.565 234.334 151.616 155.096 151.616 155.096L199.084 156.369Z" fill="#262626"/>
<path d="M125.629 380.881C125.629 380.881 123.256 393.188 111.742 393.874C100.227 394.56 102.725 403.74 102.725 403.74H146.727V381.739L125.629 380.881Z" fill="#FBBF24"/>
<path d="M120.036 158.8C120.036 158.8 116.424 265.792 116.801 271.021L120.195 387.924L148.632 388.451L153.217 266.793C153.217 266.793 156.221 233.235 164.325 202.072C168.471 186.079 170.966 169.702 171.77 153.199L120.036 158.8Z" fill="#262626"/>
<path d="M157.55 234.657L155.179 198.368C155.179 198.368 152.744 213.454 152.744 226.458C152.744 232.814 154.052 257.98 154.052 257.98L157.55 234.657Z" fill="#0A0A0A"/>
<path d="M199.396 156.366L199.491 156.371C199.491 156.371 199.424 154.546 199.396 156.366Z" fill="#333333"/>
<path d="M199.279 156.366L199.373 156.371C199.373 156.371 199.306 154.546 199.279 156.366Z" fill="#333333"/>
<path d="M180.659 21.2067C180.659 21.2067 182.95 33.4239 186.252 37.561C195.76 49.4703 199.798 63.6648 192.719 72.1801C185.64 80.6954 134.743 86.891 128.809 69.9639C123.813 55.7127 130.593 53.3049 130.846 41.0251C130.96 35.4691 131.702 23.7583 131.702 23.7583" fill="#0A0A0A"/>
<path d="M139.368 63.5072C139.457 63.496 140.439 79.8031 159.371 78.3832C172.477 77.4007 177.15 63.4843 177.451 63.4843C176.038 63.1839 173.658 62.7465 173.03 62.4116C170.967 61.3016 168.413 60.1471 167.748 56.1358C167.365 53.8241 168.013 41.9976 167.815 39.6588L147.697 44.1527C147.977 49.0924 149.945 60.5442 143.049 62.5719C141.9 62.9063 140.666 63.2147 139.368 63.5072Z" fill="#FECDD3"/>
<path opacity="0.52" d="M147.416 57.8906C147.731 56.8744 147.934 55.8267 148.021 54.7662C148.242 52.3459 148.198 49.9086 147.89 47.4978C151.978 46.9452 155.83 45.2563 159.007 42.6228C159.378 44.0029 161.435 50.0367 160.864 51.3489C159.791 53.8293 154.736 57.8906 147.416 57.8906Z" fill="#0C0C0C"/>
<path d="M150.985 53.9503C158.952 53.7709 168.765 49.3992 169.623 38.6502L170.396 28.9517C171.253 18.2028 166.306 9.03882 156.194 8.23093C146.081 7.42356 137.828 15.5333 136.97 26.2823L136.628 30.576C136.299 34.7004 136.771 54.2709 150.985 53.9503Z" fill="#FECDD3"/>
<path d="M142.428 31.2916C141.738 31.2916 141.178 30.7317 141.178 30.041C141.178 29.3503 141.738 28.7904 142.428 28.7904C143.118 28.7904 143.677 29.3503 143.677 30.041C143.677 30.7317 143.118 31.2916 142.428 31.2916Z" fill="#0C0C0C"/>
<path d="M153.805 31.2916C153.115 31.2916 152.556 30.7317 152.556 30.041C152.556 29.3503 153.115 28.7904 153.805 28.7904C154.496 28.7904 155.055 29.3503 155.055 30.041C155.055 30.7317 154.496 31.2916 153.805 31.2916Z" fill="#0C0C0C"/>
<path opacity="0.52" d="M146.277 39.6832H146.257C145.847 39.6473 145.44 39.589 145.037 39.5086C144.434 39.3838 143.637 39.1556 143.68 38.6184C143.728 38.0058 145.932 31.5315 146.183 30.7953C146.206 30.7323 146.253 30.6808 146.313 30.6519C146.374 30.623 146.443 30.6189 146.506 30.6406C146.57 30.6622 146.622 30.7079 146.652 30.7678C146.683 30.8277 146.688 30.897 146.668 30.9609C145.727 33.7179 144.223 38.2468 144.19 38.6577C144.276 38.8382 145.282 39.0898 146.299 39.171C146.364 39.1769 146.425 39.2078 146.468 39.2573C146.511 39.3067 146.534 39.371 146.531 39.4367C146.529 39.5024 146.501 39.5646 146.454 39.6104C146.407 39.6562 146.344 39.682 146.278 39.6827L146.277 39.6832Z" fill="#0C0C0C"/>
<path opacity="0.52" d="M147.93 42.2423C149.569 42.2727 151.178 42.6882 152.627 43.4552C152.659 43.4694 152.687 43.4898 152.711 43.5153C152.734 43.5407 152.752 43.5707 152.764 43.6033C152.775 43.6359 152.78 43.6705 152.778 43.7051C152.776 43.7396 152.767 43.7733 152.751 43.8042C152.736 43.8352 152.714 43.8626 152.687 43.8849C152.661 43.9072 152.63 43.924 152.597 43.9341C152.564 43.9442 152.529 43.9476 152.495 43.9439C152.461 43.9402 152.427 43.9296 152.397 43.9127C149.268 42.3352 146.338 42.3495 143.918 43.9536C143.869 43.9877 143.819 44.019 143.766 44.0476C143.706 44.0742 143.638 44.0764 143.576 44.0537C143.514 44.0311 143.463 43.9853 143.434 43.926C143.404 43.8667 143.399 43.7984 143.419 43.7354C143.439 43.6724 143.483 43.6196 143.541 43.5879C143.56 43.5773 143.594 43.5555 143.635 43.5263C144.907 42.6801 146.402 42.233 147.93 42.2423Z" fill="#0C0C0C"/>
<path d="M178.681 31.4084L169.622 30.7369C162.6 28.7384 159.309 17.3031 159.309 17.3031C159.309 17.3031 151.995 26.1565 131.702 23.7599C131.702 23.7599 132.694 -4.31001 162.82 0.569751C172.533 2.14361 180.33 10.9275 180.857 23.7349C181.226 32.7083 178.681 31.4084 178.681 31.4084Z" fill="#0A0A0A"/>
<path d="M168.734 41.8749C171.807 42.1202 174.56 39.0287 174.806 35.9532C175.051 32.8776 172.695 30.9826 169.622 30.7369L167.871 32.6717L166.089 41.6637L168.734 41.8749Z" fill="#FECDD3"/>
<path d="M143.824 25.9554C142.885 25.4822 141.835 25.271 140.786 25.3439C140.269 25.3765 139.76 25.4865 139.276 25.6703C138.796 25.8491 138.342 26.0876 137.922 26.38C137.862 26.4175 137.819 26.4775 137.803 26.5466C137.787 26.6157 137.799 26.6884 137.836 26.7487C137.874 26.8089 137.934 26.8518 138.003 26.8679C138.072 26.884 138.144 26.8719 138.205 26.8344L138.223 26.8238C138.613 26.576 139.033 26.3786 139.473 26.2362C139.908 26.0931 140.361 26.0163 140.818 26.0085C141.725 25.9877 142.622 26.2074 143.417 26.6454L143.443 26.6603C143.535 26.7132 143.645 26.7272 143.748 26.6992C143.851 26.6712 143.938 26.6034 143.991 26.5109C144.044 26.4183 144.058 26.3085 144.03 26.2056C144.002 26.1027 143.934 26.0152 143.842 25.9623L143.824 25.9554Z" fill="#0C0C0C"/>
<path d="M151.949 26.9639C152.801 26.6547 153.721 26.5767 154.613 26.7377C155.064 26.8161 155.501 26.9619 155.908 27.1704C156.32 27.3793 156.705 27.6391 157.053 27.9437L157.069 27.957C157.095 27.98 157.126 27.9976 157.159 28.0086C157.193 28.0197 157.228 28.0241 157.263 28.0216C157.298 28.019 157.332 28.0096 157.363 27.9938C157.395 27.9781 157.423 27.9563 157.446 27.9297C157.469 27.9031 157.486 27.8722 157.497 27.8388C157.509 27.8055 157.513 27.7702 157.51 27.7352C157.508 27.7001 157.498 27.6659 157.483 27.6345C157.467 27.603 157.445 27.575 157.419 27.552C157.049 27.1969 156.636 26.8896 156.19 26.6374C155.74 26.3812 155.254 26.194 154.748 26.0822C153.722 25.8483 152.653 25.8948 151.651 26.217C151.553 26.2527 151.473 26.3253 151.427 26.4195C151.381 26.5137 151.374 26.622 151.407 26.7214C151.439 26.8208 151.51 26.9036 151.602 26.952C151.695 27.0004 151.803 27.0108 151.903 26.9809L151.919 26.975L151.949 26.9639Z" fill="#0C0C0C"/>
<path d="M169.59 30.6265L169.652 30.3706C157.96 27.5419 159.521 16.1905 159.539 16.0758L159.279 16.0366C159.261 16.1533 157.661 27.7399 169.59 30.6265Z" fill="#0C0C0C"/>
<path opacity="0.1" d="M154.348 39.5972C153.033 39.5972 151.967 38.8148 151.967 37.8497C151.967 36.8846 153.033 36.1023 154.348 36.1023C155.662 36.1023 156.728 36.8846 156.728 37.8497C156.728 38.8148 155.662 39.5972 154.348 39.5972Z" fill="#0C0C0C"/>
<path opacity="0.1" d="M140.199 37.432C140.199 38.396 139.131 39.1778 137.816 39.18C137.589 39.1797 137.363 39.1561 137.14 39.1094C136.945 37.9835 136.811 36.8943 136.724 35.8815C137.073 35.7482 137.444 35.6816 137.818 35.6851C139.132 35.683 140.197 36.4654 140.199 37.432Z" fill="#0C0C0C"/>
<path d="M115.847 99.4124C116.443 106.423 119.344 150.164 119.917 158.8H198.933C199.379 151.011 201.384 116.954 203.076 101.723C204.692 87.1883 207.862 79.9119 205.538 75.615C201.741 68.5924 191.365 64.5348 184.291 63.5762C179.97 62.9923 173.471 62.5708 173.471 62.5708C173.471 62.5708 172.921 73.7094 159.802 74.3294C141.944 75.1723 143.136 62.5708 143.048 62.5708C140.154 62.5708 123.628 64.4037 119.584 66.8025C108.568 73.332 114.581 84.5571 115.847 99.4124Z" fill="#FBBF24"/>
<path d="M55.7886 112.231C55.6977 111.98 55.5566 111.75 55.374 111.555C55.1914 111.361 54.971 111.206 54.7264 111.099C54.4817 110.993 54.218 110.937 53.9512 110.936C53.6844 110.935 53.4202 110.988 53.1748 111.093C52.7066 111.311 52.3389 111.7 52.1459 112.179C51.9529 112.659 51.9491 113.194 52.1352 113.676L53.0368 116.171L47.3562 110.374C46.6503 109.631 45.3094 109.173 44.5303 110.021C43.8551 110.664 42.2946 110.863 42.0411 112.068C42.0326 112.074 42.0485 123.109 42.703 123.799C45.4818 126.718 52.1972 127.284 55.9445 125.801L61.8421 123.466L55.7886 112.231Z" fill="#FECDD3"/>
<g opacity="0.1">
<path d="M55.7886 112.231C55.6977 111.98 55.5566 111.75 55.374 111.555C55.1914 111.361 54.971 111.206 54.7264 111.099C54.4817 110.993 54.218 110.937 53.9512 110.936C53.6844 110.935 53.4202 110.988 53.1748 111.093C52.7066 111.311 52.3389 111.7 52.1459 112.179C51.9529 112.659 51.9491 113.194 52.1352 113.676L53.0368 116.171L47.3562 110.374C46.6503 109.631 45.3094 109.173 44.5303 110.021C43.8551 110.664 42.2946 110.863 42.0411 112.068C42.0326 112.074 42.0485 123.109 42.703 123.799C45.4818 126.718 52.1972 127.284 55.9445 125.801L61.8421 123.466L55.7886 112.231Z" fill="#0C0C0C"/>
</g>
<path d="M31.3147 157.204L132.661 172.363C134.589 172.652 136.559 172.417 138.366 171.683C140.172 170.949 141.749 169.744 142.931 168.192C144.113 166.64 144.857 164.8 145.085 162.862C145.314 160.924 145.018 158.961 144.23 157.176L105.508 69.5753C104.765 67.8958 103.61 66.4313 102.151 65.318C100.691 64.2046 98.9741 63.4784 97.159 63.2069C95.344 62.9354 93.4899 63.1273 91.7688 63.7649C90.0477 64.4025 88.5156 65.4651 87.3147 66.8539L24.6895 139.295C23.4139 140.771 22.5576 142.562 22.2099 144.482C21.8622 146.402 22.0358 148.38 22.7127 150.21C23.3896 152.039 24.545 153.654 26.0581 154.884C27.5712 156.114 29.3866 156.915 31.3147 157.204Z" fill="#FBBF24"/>
<path opacity="0.48" d="M31.3147 157.204L132.661 172.363C134.589 172.652 136.559 172.417 138.366 171.683C140.172 170.949 141.749 169.744 142.931 168.192C144.113 166.64 144.857 164.8 145.085 162.862C145.314 160.924 145.018 158.961 144.23 157.176L105.508 69.5753C104.765 67.8958 103.61 66.4313 102.151 65.318C100.691 64.2046 98.9741 63.4784 97.159 63.2069C95.344 62.9354 93.4899 63.1273 91.7688 63.7649C90.0477 64.4025 88.5156 65.4651 87.3147 66.8539L24.6895 139.295C23.4139 140.771 22.5576 142.562 22.2099 144.482C21.8622 146.402 22.0358 148.38 22.7127 150.21C23.3896 152.039 24.545 153.654 26.0581 154.884C27.5712 156.114 29.3866 156.915 31.3147 157.204Z" fill="white"/>
<path d="M134.332 172.754C136.183 172.743 138.003 172.27 139.627 171.38C141.251 170.489 142.628 169.208 143.634 167.652C144.64 166.096 145.243 164.314 145.389 162.467C145.536 160.619 145.22 158.764 144.472 157.069L105.75 69.4687C104.989 67.748 103.807 66.2475 102.312 65.1067C100.816 63.966 99.0574 63.2219 97.198 62.9437C95.3385 62.6655 93.439 62.8622 91.6759 63.5155C89.9127 64.1687 88.3432 65.2574 87.1131 66.6804L24.4884 139.121C23.1817 140.633 22.3045 142.468 21.9484 144.435C21.5924 146.402 21.7704 148.428 22.4641 150.302C23.1578 152.177 24.3416 153.83 25.8919 155.091C27.4422 156.351 29.3022 157.171 31.2776 157.466L132.624 172.626C133.189 172.711 133.76 172.754 134.332 172.754ZM95.5269 63.3495C96.0595 63.3498 96.5914 63.3895 97.1181 63.4684C98.8908 63.7288 100.568 64.4357 101.993 65.5228C103.418 66.6099 104.544 68.0415 105.264 69.6832L143.983 157.284C144.753 159.025 145.041 160.94 144.818 162.831C144.595 164.721 143.869 166.517 142.716 168.031C141.563 169.545 140.025 170.721 138.262 171.437C136.5 172.153 134.578 172.383 132.696 172.101L31.3508 156.942C29.4695 156.66 27.6982 155.879 26.2219 154.678C24.7455 153.478 23.6182 151.903 22.9577 150.118C22.2971 148.333 22.1276 146.403 22.4667 144.53C22.8059 142.657 23.6413 140.909 24.8857 139.469L87.5141 67.0275C88.5063 65.8732 89.7359 64.9469 91.1188 64.3122C92.5018 63.6774 94.0054 63.349 95.5269 63.3495Z" fill="#0C0C0C"/>
<path d="M97.2544 104.283L99.4583 92.5335L86.3647 90.5748L85.0387 102.455L82.7967 129.922L91.3717 131.205L97.2544 104.283ZM92.9651 145.166C93.6604 140.51 90.8403 136.417 86.3138 135.74C81.7874 135.063 77.8926 138.151 77.1972 142.808C76.5077 147.433 79.3268 151.525 83.8549 152.203C88.3829 152.882 92.274 149.794 92.9651 145.166Z" fill="white"/>
<path d="M48.5624 120.894C48.6366 120.552 48.597 120.194 48.4494 119.876C48.3019 119.557 48.0545 119.296 47.745 119.132C47.762 119.109 47.8193 119.066 47.779 119.039L49.1193 119.089C49.5139 119.112 49.9036 118.991 50.2163 118.749C50.5291 118.507 50.7438 118.16 50.8208 117.772C50.8841 117.386 50.8022 116.991 50.5908 116.662C50.3794 116.334 50.0537 116.095 49.6767 115.993C49.6884 115.983 49.6889 115.965 49.6969 115.951L50.248 115.971C50.6199 115.991 50.9875 115.882 51.2883 115.663C51.5892 115.443 51.805 115.126 51.8991 114.765C51.9535 114.538 51.9568 114.301 51.9088 114.072C51.8608 113.844 51.7626 113.628 51.6214 113.442C51.4802 113.256 51.2995 113.103 51.0922 112.996C50.885 112.888 50.6564 112.827 50.423 112.819L49.15 112.771C49.15 112.764 49.158 112.761 49.1585 112.754C49.159 112.747 49.1511 112.738 49.15 112.73C49.5013 112.664 49.8197 112.481 50.0531 112.21C50.2866 111.939 50.4211 111.597 50.4347 111.239C50.5296 110.319 49.5404 109.753 48.7183 109.725L46.1193 109.831C45.7187 109.848 45.3284 109.963 44.983 110.167C44.6376 110.37 44.3478 110.656 44.1393 110.999C42.336 113.966 37.8079 121.828 40.4318 121.926L46.89 122.165C47.2702 122.169 47.6412 122.047 47.9441 121.817C48.247 121.587 48.4645 121.262 48.5624 120.894Z" fill="#FECDD3"/>
<path d="M115.215 133.834C115.24 133.448 115.384 133.079 115.627 132.778C115.87 132.478 116.201 132.26 116.573 132.156C116.556 132.126 116.549 132.091 116.554 132.057C116.561 132.029 116.576 132.003 116.596 131.982C116.616 131.962 116.642 131.947 116.67 131.939L115.117 131.595C114.657 131.503 114.246 131.248 113.96 130.876C113.673 130.505 113.531 130.042 113.559 129.574C113.601 129.112 113.814 128.683 114.155 128.369C114.495 128.055 114.941 127.879 115.404 127.875C115.394 127.859 115.398 127.839 115.393 127.822L114.757 127.68C114.323 127.593 113.934 127.357 113.654 127.015C113.374 126.672 113.222 126.244 113.222 125.801C113.227 125.524 113.294 125.252 113.418 125.003C113.541 124.755 113.718 124.538 113.936 124.366C114.154 124.195 114.407 124.074 114.677 124.012C114.947 123.951 115.228 123.95 115.498 124.01L116.971 124.337C116.971 124.329 116.965 124.322 116.966 124.314C116.968 124.307 116.98 124.299 116.983 124.289C116.6 124.108 116.289 123.802 116.102 123.422C115.916 123.041 115.864 122.608 115.955 122.194C116.122 121.11 117.425 120.761 118.378 120.974L126.97 122.725L124.931 121.234C124.528 120.951 124.248 120.526 124.146 120.044C124.044 119.563 124.129 119.06 124.383 118.638C124.522 118.425 124.702 118.243 124.914 118.102C125.125 117.961 125.363 117.865 125.613 117.819C125.863 117.773 126.12 117.779 126.367 117.836C126.615 117.892 126.848 117.999 127.053 118.149L138.187 126.293C139.493 127.248 140.375 128.675 140.646 130.271C140.917 131.867 140.556 133.505 139.639 134.839C138.575 136.386 137.074 137.579 135.328 138.266C133.582 138.954 131.671 139.104 129.839 138.697L116.75 135.79C116.312 135.684 115.922 135.434 115.643 135.079C115.365 134.724 115.214 134.285 115.215 133.834Z" fill="#FECDD3"/>
<g opacity="0.25">
<path d="M125.474 126.067C125.464 126.111 125.437 126.149 125.399 126.173C125.361 126.198 125.315 126.206 125.271 126.197L117.103 124.52C117.08 124.516 117.059 124.507 117.041 124.494C117.022 124.482 117.006 124.465 116.993 124.446C116.981 124.427 116.972 124.406 116.968 124.384C116.964 124.362 116.964 124.339 116.968 124.317C116.973 124.294 116.982 124.273 116.995 124.255C117.007 124.236 117.024 124.22 117.042 124.207C117.061 124.195 117.083 124.186 117.105 124.182C117.127 124.178 117.15 124.178 117.172 124.182L125.34 125.859C125.385 125.868 125.424 125.895 125.45 125.933C125.475 125.971 125.484 126.018 125.474 126.063L125.474 126.067Z" fill="#0C0C0C"/>
</g>
<g opacity="0.25">
<path d="M124.834 129.691C124.824 129.735 124.797 129.773 124.759 129.798C124.721 129.822 124.675 129.831 124.631 129.822L115.513 127.951C115.469 127.941 115.429 127.914 115.404 127.876C115.379 127.838 115.37 127.791 115.379 127.746C115.39 127.702 115.417 127.664 115.454 127.639C115.492 127.614 115.538 127.604 115.583 127.612L124.701 129.483C124.745 129.492 124.785 129.519 124.81 129.557C124.835 129.596 124.844 129.642 124.835 129.687L124.834 129.691Z" fill="#0C0C0C"/>
</g>
<g opacity="0.25">
<path d="M124.164 133.623C124.154 133.667 124.127 133.705 124.089 133.729C124.051 133.754 124.005 133.762 123.961 133.753L116.688 132.261C116.643 132.251 116.604 132.225 116.579 132.187C116.553 132.148 116.544 132.102 116.554 132.057C116.563 132.012 116.589 131.973 116.628 131.948C116.666 131.922 116.712 131.913 116.757 131.923L124.031 133.415C124.053 133.42 124.074 133.429 124.093 133.441C124.111 133.454 124.128 133.47 124.14 133.489C124.152 133.508 124.161 133.529 124.165 133.552C124.17 133.574 124.169 133.597 124.165 133.619L124.164 133.623Z" fill="#0C0C0C"/>
</g>
<path d="M130.648 143.883L201.662 156.728C203.878 156.97 206.119 156.694 208.211 155.923C210.303 155.151 212.187 153.905 213.717 152.283C215.246 150.66 216.38 148.705 217.027 146.57C217.675 144.435 217.819 142.18 217.45 139.98L207.508 80.8414C207.203 78.9627 206.531 77.1627 205.529 75.545C204.527 73.9273 203.215 72.5238 201.669 71.4153C200.123 70.3069 198.373 69.5152 196.521 69.0859C194.668 68.6567 192.748 68.5983 190.873 68.9141C188.997 69.2299 187.203 69.9136 185.592 70.9261C183.982 71.9385 182.588 73.2596 181.489 74.8133C180.391 76.3671 179.61 78.1228 179.192 79.9796C178.774 81.8364 178.727 83.7575 179.054 85.6325L185.833 126.341L133.769 119.797L130.648 143.883Z" fill="#FBBF24"/>
<path d="M201.662 156.989C201.725 156.984 201.784 156.958 201.829 156.913C201.874 156.869 201.901 156.811 201.907 156.748C201.912 156.685 201.895 156.622 201.859 156.571C201.823 156.52 201.769 156.483 201.708 156.467L130.94 143.669L133.997 120.091L185.801 126.602C185.842 126.607 185.883 126.603 185.922 126.589C185.96 126.575 185.995 126.553 186.023 126.523C186.052 126.493 186.073 126.458 186.085 126.419C186.097 126.379 186.1 126.338 186.093 126.298L181.784 100.279C181.765 100.218 181.724 100.165 181.67 100.132C181.615 100.098 181.55 100.086 181.487 100.096C181.424 100.107 181.367 100.14 181.326 100.189C181.285 100.238 181.264 100.301 181.266 100.365L185.517 126.036L133.803 119.536C133.734 119.528 133.665 119.547 133.61 119.59C133.555 119.632 133.519 119.694 133.509 119.763L130.387 143.849C130.378 143.915 130.396 143.983 130.435 144.037C130.474 144.091 130.533 144.129 130.599 144.142L201.613 156.987C201.629 156.989 201.646 156.99 201.662 156.989Z" fill="#0C0C0C"/>
<path d="M185.874 126.081L190.442 126.813L190.359 127.333L185.791 126.601L185.874 126.081Z" fill="#0C0C0C"/>
<path d="M39.3907 404H273.546C273.655 404 273.759 403.957 273.836 403.88C273.913 403.803 273.956 403.699 273.956 403.59C273.956 403.481 273.913 403.376 273.836 403.3C273.759 403.223 273.655 403.179 273.546 403.179H39.3907C39.282 403.179 39.1776 403.223 39.1008 403.3C39.0239 403.376 38.9807 403.481 38.9807 403.59C38.9807 403.699 39.0239 403.803 39.1008 403.88C39.1776 403.957 39.282 404 39.3907 404Z" fill="#3F3F3F"/>
<path d="M258.02 274.446L326.707 274.4C328.013 274.399 329.296 274.047 330.42 273.38C331.545 272.714 332.47 271.758 333.099 270.611C333.728 269.465 334.038 268.171 333.996 266.864C333.955 265.557 333.564 264.285 332.864 263.181L298.484 208.97C297.825 207.93 296.914 207.075 295.835 206.482C294.757 205.889 293.547 205.579 292.316 205.58C291.086 205.581 289.876 205.893 288.799 206.487C287.721 207.081 286.811 207.938 286.153 208.978L251.846 263.235C251.148 264.341 250.758 265.613 250.719 266.92C250.679 268.228 250.991 269.522 251.622 270.667C252.253 271.812 253.179 272.767 254.304 273.432C255.43 274.097 256.713 274.447 258.02 274.446Z" fill="#FED7AA"/>
<path d="M297.686 260.328C297.686 257.172 295.405 254.741 292.338 254.743C289.271 254.745 286.996 257.179 286.998 260.336C286.998 263.47 289.279 265.901 292.345 265.899C295.411 265.897 297.688 263.463 297.686 260.328ZM296.463 232.8L296.755 224.793L287.881 224.799L288.185 232.806L289.431 251.236L295.24 251.232L296.463 232.8Z" fill="white"/>
<path d="M231.197 96.5077L286.477 96.4705C287.529 96.4698 288.561 96.1865 289.466 95.6502C290.371 95.1139 291.116 94.3443 291.622 93.4218C292.129 92.4992 292.378 91.4575 292.345 90.4055C292.312 89.3534 291.997 88.3296 291.433 87.4409L263.764 43.8113C263.233 42.9746 262.5 42.2857 261.632 41.8086C260.765 41.3315 259.79 41.0816 258.8 41.0823C257.81 41.0829 256.836 41.334 255.969 41.8122C255.102 42.2905 254.369 42.9803 253.84 43.8176L226.229 87.4849C225.667 88.3743 225.353 89.3985 225.321 90.4506C225.289 91.5027 225.54 92.5441 226.048 93.466C226.556 94.3879 227.301 95.1565 228.207 95.6915C229.113 96.2266 230.145 96.5084 231.197 96.5077Z" fill="#FED7AA"/>
<path d="M263.12 85.1466C263.085 84.3029 262.804 83.4879 262.31 82.8031C261.816 82.1183 261.132 81.5939 260.343 81.2951C259.554 80.9962 258.694 80.9362 257.871 81.1224C257.048 81.3086 256.298 81.7329 255.714 82.3424C255.13 82.9519 254.737 83.7198 254.586 84.5506C254.435 85.3814 254.531 86.2384 254.862 87.015C255.193 87.7916 255.746 88.4536 256.45 88.9186C257.154 89.3836 257.98 89.6312 258.824 89.6304C259.403 89.6294 259.977 89.5113 260.51 89.2833C261.042 89.0552 261.524 88.7219 261.925 88.3033C262.326 87.8846 262.639 87.3893 262.844 86.8469C263.049 86.3045 263.143 85.7262 263.12 85.1466ZM262.136 62.9948L262.372 56.5507L255.23 56.556L255.474 62.999L256.476 77.831L261.153 77.8278L262.136 62.9948Z" fill="white"/>
<path d="M6.41602 325.655L66.7419 325.614C67.8899 325.614 69.0166 325.305 70.0045 324.72C70.9924 324.135 71.8051 323.295 72.3579 322.288C72.9107 321.281 73.1832 320.144 73.147 318.996C73.1108 317.848 72.7672 316.73 72.152 315.76L41.9562 268.147C41.3771 267.234 40.5768 266.482 39.6297 265.961C38.6826 265.441 37.6193 265.168 36.5387 265.169C35.4581 265.169 34.3953 265.444 33.4489 265.965C32.5024 266.487 31.7032 267.24 31.1254 268.154L0.993698 315.808C0.37986 316.778 0.0377045 317.896 0.00295258 319.045C-0.0318069 320.193 0.242119 321.329 0.796127 322.336C1.35014 323.342 2.16393 324.181 3.15247 324.765C4.14103 325.348 5.2681 325.656 6.41602 325.655Z" fill="#FED7AA"/>
<path d="M41.2518 313.258C41.2518 310.486 39.2506 308.351 36.5556 308.353C33.8607 308.355 31.8648 310.492 31.8663 313.264C31.8456 313.894 31.9518 314.522 32.1786 315.11C32.4053 315.699 32.7481 316.235 33.1863 316.688C33.6246 317.141 34.1495 317.501 34.7297 317.747C35.31 317.993 35.9336 318.119 36.5637 318.119C37.1938 318.119 37.8173 317.991 38.3972 317.745C38.9771 317.498 39.5015 317.137 39.9391 316.684C40.3768 316.23 40.7188 315.693 40.9448 315.104C41.1707 314.516 41.2761 313.888 41.2545 313.258H41.2518ZM40.1778 289.082L40.435 282.05L32.6413 282.055L32.9065 289.087L34.0007 305.273L39.1079 305.269L40.1778 289.082Z" fill="white"/>
</svg>
