<svg width="64" height="62" viewBox="0 0 64 62" fill="none" xmlns="http://www.w3.org/2000/svg">
<g clip-path="url(#clip0_1922_10606)">
<path d="M30.6661 21.5636V35.3751C30.6661 35.8693 31.085 36.2895 31.5804 36.2895H40.9807C42.157 36.2895 42.1594 34.4613 40.9807 34.4613H31.5804L32.4948 35.3757V21.5641C32.4948 20.3878 30.6667 20.3855 30.6667 21.5641L30.6661 21.5636Z" fill="#075985"/>
<path d="M22.5967 42.7482C24.6394 44.2385 27.0613 45.2655 29.552 45.6928C33.008 46.2853 36.5274 45.781 39.6936 44.2853C40.64 43.8379 41.5443 43.3016 42.3852 42.6782C42.7816 42.3849 42.9813 41.8865 42.7129 41.4273C42.4841 41.0368 41.8613 40.8039 41.4619 41.0996C40.784 41.6015 40.0652 42.0477 39.3161 42.4365C38.1369 43.048 36.9339 43.4865 35.5514 43.7899C33.8767 44.1573 32.1173 44.2279 30.4178 43.9908C29.667 43.8859 28.9221 43.7153 28.1956 43.499C27.5099 43.2951 26.8409 43.0445 26.2856 42.7896C25.312 42.3428 24.3834 41.8006 23.5182 41.1695C23.1194 40.8785 22.499 41.1019 22.2673 41.4972C21.9964 41.96 22.195 42.456 22.595 42.7482H22.5967Z" fill="#075985"/>
<path d="M37.984 23.9363C38.5298 22.1603 40.1879 20.9425 42.0124 20.971C43.8317 21 45.4264 22.2942 45.9164 24.0791C46.2276 25.2121 47.9917 24.731 47.6794 23.5932C47.1407 21.6317 45.6551 20.056 43.7197 19.4213C41.7517 18.776 39.584 19.2927 38.0284 20.6237C37.1638 21.3633 36.5535 22.3683 36.221 23.4504C35.8886 24.5324 37.6391 25.0598 37.984 23.9363Z" fill="#075985"/>
<path d="M17.0305 23.9363C17.5763 22.1603 19.2344 20.9425 21.0589 20.971C22.8782 21 24.4729 22.2942 24.9629 24.0791C25.2741 25.2121 27.0382 24.731 26.7259 23.5932C26.1872 21.6317 24.7016 20.056 22.7662 19.4213C20.7982 18.776 18.6305 19.2927 17.0749 20.6237C16.2104 21.3633 15.6 22.3683 15.2675 23.4504C14.9351 24.5324 16.6856 25.0598 17.0305 23.9363Z" fill="#075985"/>
<path d="M10.4083 40.9413C10.2708 40.4827 10.1582 40.0163 10.0557 39.5487C9.96266 39.1245 9.87969 38.6978 9.80562 38.2693C9.76177 38.0145 9.72088 37.7591 9.68355 37.5037C9.67406 37.4385 9.66518 37.3733 9.65569 37.3082C9.60888 36.9858 9.7031 37.6779 9.68769 37.5476C9.66932 37.3976 9.64918 37.2477 9.63199 37.0978C9.47495 35.7579 9.40206 34.4086 9.41569 33.0599C9.42399 32.267 9.46251 31.4741 9.53362 30.6842C9.55081 30.4898 9.57036 30.2954 9.59169 30.1016C9.60236 30.0033 9.61362 29.9055 9.62547 29.8077C9.6314 29.7585 9.63792 29.7093 9.64384 29.6602C9.67466 29.3959 9.61955 29.8267 9.61481 29.8693C9.66043 29.4492 9.73925 29.0296 9.8151 28.6142C10.1428 26.8252 10.6655 25.0966 11.3369 23.4077C11.4145 23.2127 11.2492 23.6128 11.2557 23.5985C11.28 23.5464 11.3013 23.493 11.3238 23.4403C11.3701 23.3342 11.4169 23.2288 11.4643 23.1233C11.5686 22.8927 11.6758 22.664 11.7872 22.437C12.0053 21.9914 12.2376 21.5529 12.483 21.1215C12.9955 20.2213 13.5656 19.3544 14.189 18.5265C14.2275 18.4756 14.2702 18.4264 14.3058 18.373C14.3052 18.3742 14.0729 18.6676 14.2062 18.5034C14.288 18.4027 14.368 18.2996 14.4498 18.1988C14.5375 18.091 14.6264 17.9831 14.7158 17.8765C14.7917 17.7858 14.8687 17.6963 14.9464 17.6068C15.168 17.352 15.3961 17.1019 15.6284 16.8566C16.3301 16.1176 17.0761 15.4207 17.8572 14.7665C18.0984 14.565 18.3431 14.3683 18.5902 14.1739C18.8225 13.9908 18.2151 14.459 18.4539 14.2794C18.5179 14.2314 18.5813 14.1828 18.6453 14.1348C18.787 14.0287 18.9298 13.9239 19.0738 13.8208C19.6634 13.397 20.2696 12.9976 20.8918 12.6237C21.5692 12.2166 22.2649 11.8409 22.9766 11.4984C23.1555 11.4125 23.3351 11.3289 23.5158 11.2471C23.6071 11.2056 23.6995 11.1659 23.7914 11.125C24.1659 10.9585 23.4732 11.2542 23.7564 11.1381C24.1564 10.9745 24.5588 10.8181 24.9665 10.6747C25.8388 10.3671 26.7295 10.1111 27.632 9.90905C28.096 9.80534 28.5635 9.71586 29.0335 9.6406C29.1484 9.62223 29.264 9.60682 29.379 9.58786C29.5929 9.55349 29.1461 9.61749 29.1632 9.61571C29.2219 9.60919 29.2806 9.6009 29.3387 9.59319C29.5952 9.56179 29.8524 9.53393 30.1096 9.51082C31.0921 9.42312 32.0806 9.39764 33.0667 9.43319C33.539 9.45038 34.0107 9.48179 34.4806 9.52682C34.7058 9.54816 34.9304 9.57305 35.155 9.6009C35.2112 9.60801 35.267 9.6163 35.3232 9.62223C35.3452 9.6246 34.8835 9.55882 35.0969 9.5926C35.2272 9.61334 35.3576 9.63112 35.4874 9.65186C37.344 9.94934 39.149 10.472 40.8924 11.1736C41.213 11.3028 40.5351 11.0172 40.8521 11.1559C40.9552 11.2009 41.0584 11.2453 41.1609 11.2916C41.3831 11.3911 41.6041 11.4942 41.8234 11.5997C42.2453 11.8036 42.6613 12.0199 43.0708 12.2474C43.8915 12.7031 44.6862 13.2056 45.4495 13.752C45.6332 13.8836 45.8139 14.0181 45.9947 14.1532C46.2696 14.3588 45.6978 13.9173 45.9668 14.1313C46.0699 14.2136 46.1736 14.2954 46.2755 14.3784C46.6418 14.6759 46.9991 14.984 47.3475 15.3022C48.0474 15.9416 48.7105 16.6213 49.3315 17.3378C49.4815 17.5108 49.6284 17.6856 49.7736 17.8622C49.8459 17.9511 49.9182 18.04 49.9893 18.1295C50.0249 18.1745 50.0598 18.2196 50.096 18.2646C50.2495 18.456 49.8625 17.9547 50.0089 18.1514C50.2951 18.5372 50.5784 18.9236 50.8462 19.3224C51.4489 20.2207 51.9911 21.16 52.4664 22.1319C52.5926 22.389 52.7135 22.6492 52.8302 22.9111C52.8592 22.9757 52.8865 23.0409 52.9155 23.1055C53.0062 23.3058 52.8581 22.981 52.861 22.9745C52.8344 23.0279 53.0181 23.3615 53.0435 23.4273C53.2504 23.9559 53.4382 24.4922 53.6059 25.0344C53.9241 26.0631 54.1707 27.1138 54.3455 28.1763C54.3656 28.299 54.3852 28.4216 54.403 28.5443C54.413 28.613 54.4154 28.7191 54.4379 28.7885C54.4409 28.7979 54.3858 28.3707 54.4101 28.5858C54.4391 28.8465 54.4717 29.1067 54.496 29.3674C54.5416 29.8551 54.573 30.3446 54.5902 30.8341C54.6222 31.755 54.605 32.677 54.541 33.5962C54.5114 34.0234 54.4717 34.4495 54.4219 34.875C54.4107 34.9733 54.3976 35.0717 54.3858 35.1707C54.3455 35.5043 54.451 34.7227 54.4018 35.051C54.3715 35.2542 54.3419 35.4581 54.3081 35.6608C54.1914 36.3713 54.048 37.077 53.8773 37.7763C53.6361 38.7659 53.344 39.7449 52.9855 40.6984C52.9357 40.8311 52.8841 40.9639 52.8314 41.0954C52.8112 41.1452 52.7905 41.195 52.7704 41.2448C52.6548 41.5322 52.9754 40.7612 52.9043 40.9283C52.6951 41.4196 52.5641 41.8575 52.7123 42.3962C52.8338 42.8376 53.1757 43.3165 53.5875 43.5345C54.4047 43.9665 55.776 43.8296 56.1932 42.8513C57.0566 40.8258 57.6569 38.7108 58.0035 36.5348C58.6672 32.3647 58.5327 28.0756 57.2788 24.0216C55.9443 19.707 53.4459 15.7461 50.125 12.6842C47.0791 9.87586 43.3932 7.78164 39.4121 6.62964C35.3535 5.45512 31.0275 5.30105 26.8954 6.17275C23.4572 6.89808 20.1505 8.4009 17.2871 10.4311C15.4625 11.7247 13.7475 13.1967 12.275 14.8845C9.76295 17.7633 7.89747 21.1476 6.80769 24.8104C5.82518 28.1135 5.46725 31.6323 5.65036 35.0699C5.76473 37.2145 6.05451 39.3828 6.59969 41.4628C6.64236 41.6258 6.68681 41.7882 6.7354 41.9499C7.02103 42.9034 8.08414 43.6021 9.07851 43.2803C10.0427 42.9686 10.7147 41.9594 10.4089 40.9372L10.4083 40.9413Z" fill="#F97316"/>
<path d="M31.5805 15.032C32.344 15.032 32.963 14.413 32.963 13.6495C32.963 12.8859 32.344 12.267 31.5805 12.267C30.8169 12.267 30.1979 12.8859 30.1979 13.6495C30.1979 14.413 30.8169 15.032 31.5805 15.032Z" fill="#FBC332"/>
<path d="M13.8216 33.8593C14.5852 33.8593 15.2042 33.2403 15.2042 32.4768C15.2042 31.7132 14.5852 31.0942 13.8216 31.0942C13.0581 31.0942 12.4391 31.7132 12.4391 32.4768C12.4391 33.2403 13.0581 33.8593 13.8216 33.8593Z" fill="#FBC332"/>
<path d="M50.3745 33.8593C51.1381 33.8593 51.757 33.2403 51.757 32.4768C51.757 31.7132 51.1381 31.0942 50.3745 31.0942C49.611 31.0942 48.992 31.7132 48.992 32.4768C48.992 33.2403 49.611 33.8593 50.3745 33.8593Z" fill="#FBC332"/>
<path d="M14.2388 50.2824C14.1215 50.3861 13.9692 50.469 13.7819 50.5313C13.5947 50.5941 13.3807 50.6213 13.1402 50.6136C12.8996 50.6059 12.653 50.5419 12.4012 50.4216C12.1493 50.3013 11.9105 50.1135 11.6842 49.8575C11.5129 49.6631 11.3754 49.4705 11.2717 49.2791C11.168 49.0877 11.0981 48.8927 11.0613 48.6942C11.0246 48.4957 11.0216 48.2859 11.053 48.0649C11.0827 47.8658 11.139 47.669 11.2213 47.4741C11.3037 47.2791 11.411 47.093 11.5431 46.9153C11.6753 46.7375 11.8323 46.5686 12.0148 46.4074C12.3111 46.1461 12.6139 45.9547 12.9245 45.8344C13.235 45.7135 13.5443 45.6601 13.8525 45.6738C14.1606 45.6874 14.4533 45.7638 14.7313 45.9025C15.0086 46.0418 15.2551 46.2332 15.4708 46.4773C15.7339 46.7754 15.9082 47.093 15.9953 47.4302C16.0818 47.768 16.0925 48.0756 16.0267 48.3535C15.9609 48.6314 15.8507 48.8394 15.6948 48.9769C15.6095 49.0521 15.5076 49.0889 15.389 49.0859C15.2705 49.0836 15.1739 49.0391 15.0987 48.9538C15.0145 48.8584 14.9742 48.7671 14.9772 48.6794C14.9802 48.5917 15.011 48.4702 15.0696 48.3138C15.1662 48.056 15.2018 47.8213 15.1763 47.6098C15.1508 47.3988 15.053 47.1967 14.883 47.0047C14.6127 46.6984 14.2809 46.5573 13.888 46.581C13.4951 46.6047 13.0845 46.8056 12.656 47.1837C12.3698 47.4361 12.1671 47.6868 12.0486 47.9345C11.9295 48.1822 11.888 48.4216 11.9247 48.6515C11.9609 48.8815 12.0664 49.0954 12.2406 49.2927C12.4296 49.5067 12.643 49.6412 12.8794 49.6957C13.1165 49.7502 13.3713 49.7241 13.6433 49.6175C13.7683 49.5635 13.8821 49.5333 13.9846 49.5262C14.0871 49.5191 14.1843 49.5677 14.2756 49.6714C14.3538 49.7603 14.3899 49.8634 14.3846 49.9819C14.3787 50.1004 14.3301 50.2 14.2376 50.2812L14.2388 50.2824Z" fill="#075985"/>
<path d="M13.2184 50.6444C13.1923 50.6444 13.1656 50.6444 13.139 50.6432C12.8954 50.6355 12.643 50.5698 12.3882 50.4483C12.1339 50.3268 11.8892 50.1348 11.6616 49.877C11.4898 49.6821 11.3499 49.4859 11.2456 49.2933C11.1413 49.1001 11.0696 48.9004 11.0323 48.7001C10.995 48.4992 10.9926 48.2847 11.024 48.0613C11.0542 47.8604 11.1111 47.6595 11.1947 47.4634C11.2776 47.2672 11.3873 47.077 11.52 46.8986C11.6528 46.7203 11.8128 46.5478 11.9959 46.3861C12.2933 46.1235 12.6021 45.9286 12.9144 45.8077C13.2273 45.6862 13.5431 45.6311 13.8542 45.6453C14.1653 45.6589 14.4652 45.7372 14.7449 45.8776C15.0246 46.0181 15.2765 46.2136 15.4939 46.4595C15.7588 46.7594 15.9372 47.0841 16.0249 47.4249C16.112 47.7656 16.1227 48.0809 16.0563 48.3624C15.9899 48.645 15.875 48.8601 15.7156 49.0012C15.6249 49.0812 15.5153 49.1215 15.3896 49.1179C15.2634 49.1149 15.1579 49.0675 15.0773 48.9757C14.9885 48.8749 14.9452 48.7754 14.9482 48.6806C14.9511 48.5893 14.9825 48.4666 15.043 48.3061C15.1378 48.0536 15.1728 47.8213 15.1479 47.6163C15.123 47.4124 15.027 47.2139 14.8616 47.0272C14.5991 46.7298 14.272 46.5911 13.891 46.6136C13.507 46.6367 13.0987 46.837 12.6768 47.2092C12.3947 47.4581 12.1926 47.7075 12.0765 47.9505C11.9603 48.1917 11.9194 48.4269 11.955 48.6498C11.9899 48.8732 12.0942 49.0835 12.2637 49.2761C12.448 49.4847 12.6578 49.6169 12.8871 49.6696C13.117 49.7224 13.3683 49.6963 13.6338 49.5926C13.76 49.5381 13.8785 49.5066 13.984 49.4989C14.096 49.4918 14.2021 49.5434 14.2993 49.6542C14.3822 49.7484 14.4213 49.8598 14.4154 49.9855C14.4095 50.1117 14.3568 50.2189 14.2584 50.3055C14.1387 50.4109 13.9816 50.4969 13.7914 50.5603C13.6225 50.6166 13.4305 50.645 13.2184 50.645V50.6444ZM13.76 45.7022C13.4868 45.7022 13.2101 45.7561 12.9357 45.8628C12.6299 45.9813 12.3271 46.1727 12.035 46.4305C11.8548 46.5893 11.6978 46.7588 11.5674 46.9336C11.4376 47.1084 11.3304 47.2945 11.2492 47.4859C11.168 47.6773 11.1123 47.8741 11.0827 48.0696C11.0519 48.2859 11.0548 48.4945 11.091 48.6889C11.1271 48.8832 11.1965 49.077 11.2984 49.2649C11.4003 49.4533 11.5378 49.6465 11.7067 49.8379C11.9289 50.0898 12.1671 50.277 12.4142 50.3949C12.6613 50.5129 12.9055 50.5763 13.1413 50.584C13.3778 50.5917 13.5899 50.5644 13.773 50.5034C13.9556 50.4424 14.1061 50.3606 14.2193 50.2604C14.3058 50.184 14.3508 50.0927 14.3562 49.9819C14.3615 49.8705 14.3283 49.7757 14.2548 49.6927C14.1689 49.5955 14.0818 49.5511 13.9882 49.5576C13.8892 49.5647 13.7778 49.5944 13.6563 49.6465C13.379 49.7549 13.1159 49.7816 12.8741 49.7265C12.6323 49.6708 12.4119 49.5327 12.2193 49.3147C12.0421 49.1138 11.933 48.8933 11.8963 48.6587C11.859 48.424 11.9016 48.1769 12.0231 47.9244C12.1434 47.6744 12.3502 47.4184 12.6376 47.1641C13.069 46.7831 13.4898 46.5781 13.8874 46.5538C14.288 46.5295 14.6305 46.6752 14.9061 46.9875C15.0791 47.1837 15.1805 47.3929 15.2065 47.6092C15.2326 47.8237 15.1959 48.0655 15.0981 48.3268C15.0406 48.4791 15.0104 48.5994 15.0074 48.6829C15.0045 48.7624 15.043 48.8477 15.1218 48.9366C15.1923 49.016 15.28 49.0563 15.3908 49.0587C15.5022 49.0622 15.5959 49.0278 15.6765 48.9567C15.827 48.824 15.9354 48.6195 15.9988 48.3487C16.0628 48.0767 16.0522 47.7704 15.9674 47.4397C15.8827 47.1084 15.7085 46.792 15.4495 46.4992C15.2373 46.2592 14.9914 46.0678 14.7188 45.9309C14.4462 45.7947 14.1547 45.7182 13.8519 45.7052C13.8216 45.704 13.7908 45.7034 13.76 45.7034V45.7022Z" fill="#075985"/>
<path d="M19.2048 50.9069L17.4276 49.5446L16.6946 50.501L18.3313 51.7555C18.4516 51.848 18.5209 51.944 18.5387 52.0435C18.5565 52.1431 18.5316 52.2373 18.4634 52.3256C18.3953 52.4145 18.3111 52.4637 18.2098 52.4749C18.1085 52.4862 17.9971 52.4447 17.8744 52.3511L16.2377 51.0966L15.3885 52.2047L17.2273 53.6139C17.3511 53.7087 17.4228 53.8095 17.4412 53.9149C17.4602 54.021 17.4329 54.1217 17.3594 54.2172C17.2889 54.309 17.2 54.36 17.0928 54.3694C16.9855 54.3789 16.87 54.3357 16.7461 54.2409L14.6021 52.597C14.4303 52.4655 14.336 52.3327 14.3188 52.1988C14.3017 52.0649 14.3586 51.9132 14.4889 51.7431L16.7337 48.8151C16.8208 48.7019 16.9085 48.6219 16.9968 48.5763C17.0857 48.53 17.1781 48.5188 17.2747 48.5407C17.3719 48.5632 17.4756 48.6166 17.5876 48.7025L19.6706 50.2995C19.7962 50.3961 19.8685 50.4957 19.8868 50.5982C19.9052 50.7007 19.8797 50.7973 19.8104 50.8874C19.7399 50.9792 19.6528 51.0302 19.5485 51.0391C19.4448 51.048 19.3298 51.0041 19.2042 50.9081L19.2048 50.9069Z" fill="#075985"/>
<path d="M17.0637 54.3997C16.9588 54.3997 16.8457 54.3541 16.7277 54.264L14.5837 52.6201C14.406 52.4838 14.307 52.3434 14.2892 52.2018C14.2714 52.0607 14.3307 51.9001 14.4652 51.7241L16.71 48.7961C16.7994 48.6794 16.8913 48.5964 16.9831 48.549C17.0774 48.4998 17.1781 48.4874 17.2818 48.5111C17.3825 48.5342 17.4916 48.5905 17.606 48.6782L19.6889 50.2752C19.8199 50.376 19.8963 50.4826 19.9159 50.5923C19.9354 50.7031 19.9082 50.808 19.8341 50.9052C19.7582 51.0035 19.6634 51.0586 19.5514 51.0681C19.44 51.0776 19.3174 51.0314 19.1864 50.9306L17.4323 49.5861L16.7348 50.4957L18.3479 51.7324C18.4735 51.829 18.5476 51.9321 18.5665 52.0388C18.5861 52.1466 18.5588 52.2492 18.486 52.344C18.4131 52.4388 18.3212 52.4927 18.2122 52.5046C18.1031 52.5164 17.9834 52.4726 17.856 52.3748L16.243 51.1381L15.4294 52.1988L17.2445 53.5902C17.3737 53.6892 17.4495 53.797 17.4697 53.9096C17.4898 54.0234 17.4602 54.133 17.382 54.2349C17.3061 54.3333 17.2095 54.3884 17.0945 54.3985C17.0839 54.3997 17.0738 54.3997 17.0631 54.3997H17.0637ZM17.1811 48.5585C17.1224 48.5585 17.0661 48.5727 17.0104 48.6018C16.9262 48.645 16.8409 48.7226 16.7568 48.8323L14.512 51.7603C14.387 51.9232 14.3319 52.069 14.3479 52.1946C14.3639 52.3197 14.4551 52.4471 14.6193 52.5733L16.7633 54.2172C16.8806 54.3072 16.9902 54.3481 17.0892 54.3398C17.1882 54.3309 17.2688 54.2853 17.3345 54.1988C17.4033 54.1093 17.4282 54.0181 17.411 53.9197C17.3938 53.8219 17.3257 53.7265 17.2083 53.637L15.3464 52.2095L16.2317 51.0545L17.8922 52.3274C18.0077 52.4157 18.1132 52.4554 18.2062 52.4453C18.2999 52.4352 18.3763 52.3902 18.4397 52.3072C18.5031 52.2249 18.5257 52.1401 18.5091 52.0483C18.4925 51.9564 18.4267 51.8658 18.3129 51.7786L16.6525 50.5058L17.4217 49.5025L19.2225 50.8832C19.3417 50.9745 19.4507 51.0166 19.5467 51.0083C19.6427 51 19.7215 50.9543 19.7873 50.8684C19.8519 50.7843 19.875 50.6972 19.8578 50.6023C19.8406 50.5075 19.7719 50.4133 19.6528 50.3221L17.5698 48.725C17.462 48.6426 17.3606 48.5899 17.2688 48.5686C17.2391 48.5615 17.2101 48.5585 17.1817 48.5585H17.1811Z" fill="#075985"/>
<path d="M21.2764 56.0957L21.3398 55.4397L19.552 54.5538L19.0625 55.0136C18.8717 55.1932 18.7277 55.3069 18.6317 55.3549C18.5357 55.4029 18.4213 55.3946 18.2892 55.3289C18.1772 55.2732 18.0984 55.1831 18.0533 55.0586C18.0077 54.9342 18.0112 54.8198 18.0628 54.7155C18.0924 54.6557 18.1333 54.5988 18.1849 54.5443C18.2364 54.4903 18.3135 54.4175 18.416 54.3262L20.9564 52.0281C21.0293 51.9618 21.1164 51.8823 21.2184 51.7899C21.3203 51.6975 21.4157 51.6258 21.504 51.5748C21.5923 51.5238 21.6901 51.496 21.7961 51.4901C21.9022 51.4841 22.0166 51.5114 22.1387 51.5718C22.2625 51.6335 22.3544 51.7081 22.4142 51.7964C22.4741 51.8847 22.5108 51.9783 22.525 52.0773C22.5392 52.1763 22.5428 52.2776 22.5357 52.3795C22.5286 52.4821 22.5167 52.6172 22.5007 52.7861L22.243 56.1929C22.2258 56.4536 22.1932 56.6326 22.1446 56.7309C22.0942 56.8329 22.0053 56.9052 21.8779 56.9484C21.7505 56.9911 21.6272 56.9828 21.5075 56.9235C21.4376 56.8886 21.3837 56.8465 21.3464 56.7967C21.309 56.7469 21.2835 56.6924 21.2711 56.6326C21.2587 56.5727 21.2545 56.4886 21.2598 56.3801C21.2652 56.2717 21.2705 56.1769 21.2758 56.0951L21.2764 56.0957ZM20.1179 54.0009L21.4317 54.6521L21.6681 52.5087L20.1179 54.0009Z" fill="#075985"/>
<path d="M21.7215 57.0053C21.6444 57.0053 21.5692 56.9869 21.4951 56.9508C21.421 56.9141 21.3636 56.8684 21.3233 56.8151C21.283 56.7618 21.2557 56.7025 21.2427 56.6391C21.2296 56.5763 21.2255 56.4915 21.2308 56.3795C21.2361 56.2711 21.2415 56.1757 21.2474 56.0933L21.309 55.4569L19.5579 54.5887L19.0833 55.0343C18.8883 55.2175 18.7449 55.3306 18.6453 55.3804C18.541 55.4326 18.4166 55.4243 18.2767 55.3549C18.1582 55.2963 18.0741 55.1997 18.0261 55.0681C17.9781 54.9366 17.9816 54.8133 18.0367 54.7019C18.0676 54.6397 18.1102 54.5792 18.1641 54.5235C18.2157 54.4696 18.2939 54.3955 18.397 54.3037L21.1988 51.768C21.3019 51.6743 21.3997 51.6009 21.4898 51.5493C21.5822 51.4966 21.6847 51.4669 21.7956 51.4604C21.907 51.4545 22.0267 51.4829 22.1529 51.5452C22.2809 51.6086 22.3775 51.6874 22.4397 51.7792C22.5019 51.8705 22.5404 51.9695 22.5553 52.0726C22.5695 52.1733 22.5736 52.277 22.5665 52.3813C22.5594 52.4838 22.5476 52.6172 22.531 52.789L22.2732 56.1952C22.256 56.4619 22.2228 56.6415 22.1718 56.744C22.1179 56.853 22.0225 56.9306 21.888 56.9763C21.8317 56.9952 21.776 57.0047 21.7209 57.0047L21.7215 57.0053ZM21.3061 56.0981C21.3001 56.1798 21.2948 56.2746 21.2901 56.3825C21.2853 56.488 21.2889 56.5703 21.3007 56.6272C21.3126 56.6823 21.3357 56.7333 21.3707 56.7801C21.405 56.8258 21.456 56.8655 21.5218 56.8981C21.6356 56.9543 21.7493 56.9621 21.8696 56.9218C21.9899 56.8809 22.0717 56.8151 22.1191 56.7191C22.1659 56.6255 22.1979 56.4477 22.2145 56.1923L22.4723 52.7849C22.4889 52.6154 22.5007 52.4785 22.5073 52.3783C22.5144 52.2782 22.5108 52.1786 22.4966 52.0821C22.483 51.9878 22.4474 51.8972 22.3905 51.813C22.3336 51.7295 22.2453 51.6572 22.1262 51.5985C22.0095 51.5404 21.8987 51.5143 21.7985 51.5197C21.6972 51.525 21.6036 51.5523 21.5194 51.6009C21.4329 51.6506 21.3387 51.7218 21.2385 51.8124L20.9766 52.0506L18.4361 54.3487C18.3342 54.4394 18.2572 54.5123 18.2062 54.565C18.157 54.6166 18.1173 54.6717 18.0895 54.7286C18.0415 54.8258 18.0385 54.9306 18.0818 55.048C18.1244 55.1647 18.1985 55.2501 18.3028 55.3016C18.4273 55.3632 18.5304 55.3715 18.6187 55.3277C18.7117 55.2809 18.8545 55.1677 19.0424 54.9911L19.5467 54.517L21.3713 55.4213L21.3055 56.0975L21.3061 56.0981ZM21.4566 54.6972L20.067 54.0086L21.7067 52.4305L21.4566 54.6972ZM20.1689 53.9926L21.4068 54.6065L21.6296 52.5869L20.1683 53.9932L20.1689 53.9926Z" fill="#075985"/>
<path d="M27.1277 57.0136C27.0495 57.2998 26.9055 57.5369 26.6957 57.7253C26.4859 57.9132 26.221 58.0329 25.9016 58.0844C25.5822 58.136 25.2273 58.1087 24.8379 58.0021C24.371 57.8747 24.0095 57.6809 23.7541 57.4213C23.5733 57.2352 23.4447 57.0184 23.3683 56.7695C23.2919 56.5206 23.2806 56.296 23.3351 56.0957C23.3671 55.9795 23.4347 55.8907 23.5378 55.8302C23.6409 55.7692 23.7553 55.7561 23.8803 55.7899C23.9816 55.8178 24.0581 55.8735 24.1108 55.957C24.163 56.0406 24.1967 56.1526 24.2116 56.2936C24.2305 56.4607 24.2613 56.6047 24.304 56.725C24.3461 56.8453 24.4219 56.9555 24.531 57.0563C24.64 57.1564 24.7982 57.2352 25.0044 57.2915C25.2889 57.3692 25.5378 57.3662 25.7517 57.2821C25.9656 57.1979 26.0996 57.0575 26.1535 56.859C26.1961 56.7019 26.1831 56.5609 26.1144 56.437C26.045 56.3132 25.9419 56.2041 25.8044 56.1111C25.667 56.0181 25.4785 55.9078 25.2409 55.7804C24.9227 55.608 24.6631 55.4367 24.4628 55.2678C24.2625 55.0984 24.1203 54.9034 24.0361 54.683C23.952 54.4619 23.9473 54.2148 24.0219 53.9416C24.093 53.6809 24.2276 53.4693 24.4249 53.3052C24.6222 53.1416 24.8705 53.0421 25.1692 53.0071C25.4679 52.9721 25.7991 53.0041 26.163 53.1031C26.4539 53.1825 26.6951 53.2874 26.8877 53.4172C27.0803 53.547 27.2296 53.691 27.3369 53.8486C27.4441 54.0062 27.5123 54.1597 27.5407 54.3084C27.5692 54.4572 27.5668 54.5941 27.533 54.7191C27.5016 54.8335 27.4335 54.9247 27.3274 54.9947C27.2219 55.064 27.1087 55.0824 26.9879 55.0498C26.8782 55.0195 26.8018 54.9698 26.7603 54.8992C26.7182 54.8287 26.6809 54.7221 26.6483 54.5787C26.611 54.3766 26.5458 54.2089 26.4527 54.0755C26.3597 53.9422 26.1796 53.8397 25.9123 53.7668C25.6646 53.6992 25.4501 53.6992 25.2687 53.7668C25.0874 53.8344 24.9754 53.944 24.9339 54.0969C24.9079 54.1917 24.9114 54.2806 24.9446 54.3635C24.9772 54.4465 25.0323 54.5253 25.1093 54.5994C25.1864 54.6735 25.267 54.7375 25.3523 54.7908C25.437 54.8441 25.5787 54.9265 25.7772 55.0385C26.0273 55.1736 26.2501 55.3087 26.4456 55.4432C26.6412 55.5778 26.8006 55.7194 26.9227 55.8687C27.0447 56.0181 27.1265 56.1864 27.1662 56.3742C27.2065 56.5621 27.1935 56.7754 27.1283 57.0148L27.1277 57.0136Z" fill="#075985"/>
<path d="M25.5793 58.139C25.3452 58.139 25.0945 58.1028 24.8308 58.0305C24.3609 57.9019 23.9917 57.704 23.7333 57.4421C23.5502 57.2536 23.4181 57.0302 23.3404 56.7778C23.2622 56.5248 23.251 56.2925 23.3073 56.0874C23.341 55.9642 23.4139 55.8688 23.5236 55.8042C23.6338 55.7396 23.7564 55.7248 23.8886 55.7609C23.9964 55.7905 24.08 55.851 24.1363 55.941C24.1908 56.0282 24.2264 56.1455 24.2412 56.2901C24.2602 56.4542 24.2904 56.597 24.3319 56.7144C24.3722 56.8293 24.4462 56.9372 24.5511 57.0332C24.656 57.1298 24.8113 57.2068 25.0127 57.2613C25.2895 57.3372 25.5342 57.3342 25.741 57.253C25.9473 57.1719 26.0729 57.0403 26.125 56.8501C26.1659 56.7013 26.1535 56.5668 26.0883 56.4501C26.0219 56.331 25.9206 56.2243 25.7873 56.1342C25.651 56.0424 25.4619 55.9316 25.2261 55.8048C24.9073 55.6323 24.6442 55.4587 24.4433 55.2886C24.24 55.1168 24.0936 54.9159 24.0077 54.6913C23.9218 54.4655 23.9164 54.2101 23.9923 53.9316C24.0646 53.6661 24.2033 53.4474 24.4047 53.2803C24.6056 53.1138 24.861 53.0113 25.1644 52.9757C25.4655 52.9402 25.8039 52.9728 26.1695 53.0729C26.4622 53.1529 26.7087 53.2602 26.9031 53.3911C27.0975 53.5227 27.2516 53.6702 27.3606 53.8308C27.4696 53.9908 27.5396 54.1496 27.5692 54.3019C27.5988 54.4548 27.5959 54.5976 27.5609 54.7262C27.5277 54.8471 27.4542 54.9455 27.3434 55.0184C27.2308 55.0925 27.1087 55.112 26.9802 55.077C26.8634 55.045 26.7804 54.9899 26.7348 54.9129C26.6916 54.84 26.6524 54.7298 26.6193 54.584C26.5825 54.3855 26.5185 54.2202 26.4279 54.0916C26.339 53.9648 26.163 53.8646 25.904 53.7941C25.664 53.7283 25.453 53.7277 25.2788 53.7929C25.1052 53.8575 25.0015 53.9588 24.9624 54.1034C24.9381 54.1911 24.9416 54.2747 24.9719 54.3511C25.0033 54.4299 25.056 54.5058 25.1295 54.5763C25.2047 54.6486 25.2847 54.712 25.3677 54.7636C25.4519 54.8163 25.5947 54.8993 25.7914 55.0107C26.0409 55.1458 26.2667 55.2827 26.4622 55.4166C26.6596 55.5523 26.8225 55.6975 26.9458 55.8474C27.0708 55.9997 27.1544 56.1739 27.1953 56.3653C27.2362 56.5573 27.2231 56.7772 27.1573 57.0196C27.0779 57.3105 26.9298 57.5547 26.7164 57.7455C26.5031 57.9363 26.2311 58.0596 25.9076 58.1117C25.8027 58.1289 25.693 58.1372 25.5799 58.1372L25.5793 58.139ZM23.7499 55.8012C23.6806 55.8012 23.6154 55.8196 23.5538 55.8557C23.4566 55.9132 23.3944 55.9944 23.3647 56.1034C23.312 56.2972 23.3227 56.5182 23.3973 56.7606C23.472 57.0036 23.5994 57.2193 23.776 57.4006C24.0267 57.6548 24.3864 57.8474 24.8462 57.973C25.2302 58.0779 25.5834 58.1052 25.8975 58.0548C26.2098 58.0045 26.4717 57.8859 26.6762 57.7028C26.8806 57.5197 27.0228 57.285 27.0993 57.0053C27.1633 56.7725 27.1757 56.5615 27.1366 56.379C27.0975 56.1965 27.0175 56.0305 26.899 55.8859C26.7793 55.7402 26.6204 55.5985 26.4279 55.4664C26.2341 55.333 26.0101 55.1973 25.7618 55.0634C25.5633 54.9514 25.4199 54.8679 25.3351 54.8145C25.2486 54.7606 25.1656 54.6948 25.0874 54.6196C25.008 54.5425 24.9499 54.4602 24.9156 54.3736C24.8806 54.2848 24.8764 54.1888 24.9043 54.088C24.9487 53.9262 25.0673 53.8083 25.2575 53.7378C25.4442 53.6685 25.667 53.6685 25.9194 53.7378C26.192 53.8125 26.3793 53.9203 26.4764 54.0584C26.5719 54.1941 26.6394 54.3671 26.6773 54.5728C26.7087 54.7108 26.7455 54.8157 26.7858 54.8833C26.8237 54.9467 26.8942 54.9929 26.9962 55.0208C27.1093 55.0516 27.2124 55.035 27.3114 54.9698C27.4116 54.904 27.475 54.8193 27.5046 54.7114C27.5372 54.5917 27.5396 54.4578 27.5123 54.3138C27.4844 54.1692 27.4175 54.0181 27.3126 53.8646C27.2077 53.7105 27.0596 53.5683 26.8711 53.4409C26.6827 53.3135 26.4415 53.2092 26.1553 53.131C25.7967 53.0332 25.4661 53.0012 25.1727 53.0356C24.8812 53.0699 24.6359 53.1683 24.4439 53.3271C24.2524 53.4859 24.1197 53.6951 24.051 53.9482C23.9781 54.2142 23.9828 54.4572 24.0646 54.6711C24.147 54.8862 24.2874 55.0788 24.483 55.2442C24.6809 55.4113 24.941 55.5825 25.2557 55.7532C25.4933 55.8806 25.6842 55.9926 25.8222 56.0856C25.9633 56.181 26.0705 56.2942 26.1416 56.4216C26.2145 56.5526 26.2282 56.7019 26.1837 56.8661C26.1274 57.0729 25.9864 57.2216 25.7642 57.3088C25.5455 57.3947 25.2877 57.3982 24.9985 57.3194C24.7882 57.2619 24.6246 57.1808 24.5126 57.0776C24.4006 56.9745 24.3212 56.859 24.2773 56.7345C24.2347 56.613 24.2027 56.4655 24.1837 56.2966C24.1695 56.1609 24.1369 56.0519 24.0871 55.9725C24.0385 55.8942 23.9686 55.8439 23.8744 55.8184C23.8317 55.8065 23.7908 55.8006 23.7511 55.8006L23.7499 55.8012Z" fill="#075985"/>
<path d="M28.2139 56.6444L28.3763 54.29C28.3899 54.0897 28.4456 53.9422 28.5428 53.8485C28.64 53.7543 28.7621 53.7128 28.909 53.7229C29.0625 53.7336 29.181 53.7922 29.2646 53.8983C29.3481 54.005 29.3825 54.1579 29.3689 54.3588L29.203 56.7671C29.184 57.0408 29.1988 57.2719 29.2474 57.4598C29.296 57.6477 29.395 57.7976 29.5437 57.9096C29.6924 58.0216 29.9076 58.0874 30.1879 58.1069C30.5754 58.1336 30.8563 58.0494 31.0305 57.8545C31.2053 57.6595 31.3067 57.3525 31.3357 56.9342L31.5034 54.5063C31.5176 54.3036 31.5722 54.1561 31.6682 54.0631C31.7642 53.97 31.8868 53.9285 32.0356 53.9392C32.1849 53.9493 32.3022 54.0074 32.3876 54.1128C32.4729 54.2183 32.509 54.3724 32.4948 54.5751L32.3324 56.9294C32.3058 57.3122 32.2465 57.6293 32.1547 57.8799C32.0622 58.1306 31.9064 58.3463 31.6859 58.5253C31.4963 58.6776 31.2812 58.7836 31.04 58.8429C30.7988 58.9022 30.5203 58.9211 30.2039 58.8992C29.8276 58.8731 29.5064 58.8103 29.2403 58.7102C28.9742 58.61 28.7615 58.469 28.6015 58.2871C28.4415 58.1051 28.3313 57.8782 28.269 57.6062C28.2074 57.3348 28.189 57.0142 28.2145 56.6444H28.2139Z" fill="#075985"/>
<path d="M30.448 58.9371C30.368 58.9371 30.2862 58.9342 30.2015 58.9282C29.824 58.9022 29.4969 58.8382 29.2296 58.7374C28.9606 58.6361 28.7413 58.4909 28.579 58.306C28.4166 58.1211 28.3028 57.8877 28.24 57.6127C28.1778 57.3395 28.1594 57.013 28.1849 56.642L28.3473 54.2877C28.3615 54.0808 28.4208 53.9256 28.5227 53.8266C28.6252 53.7271 28.7562 53.682 28.9114 53.6927C29.0732 53.704 29.2 53.7668 29.2883 53.8794C29.376 53.9914 29.4128 54.1531 29.3985 54.36L29.2326 56.7683C29.2142 57.0379 29.2291 57.2678 29.2765 57.4515C29.3233 57.6317 29.4193 57.778 29.5615 57.8853C29.7049 57.9931 29.9165 58.0577 30.1896 58.0767C30.5659 58.1028 30.8409 58.021 31.0086 57.8343C31.1775 57.6453 31.2776 57.3419 31.3061 56.9318L31.4738 54.504C31.488 54.2948 31.5467 54.1389 31.6474 54.0411C31.7493 53.9428 31.8803 53.8983 32.0379 53.909C32.195 53.9197 32.32 53.9819 32.4107 54.0933C32.5008 54.2041 32.5393 54.3665 32.5245 54.5762L32.3621 56.9306C32.3354 57.3146 32.275 57.637 32.1825 57.8894C32.0889 58.1443 31.9277 58.3659 31.7043 58.5478C31.5123 58.7025 31.2907 58.8115 31.0465 58.8714C30.8682 58.9152 30.6673 58.9371 30.448 58.9371ZM28.2442 56.6462C28.2193 57.0112 28.2371 57.3324 28.2981 57.5997C28.3585 57.8651 28.4682 58.0897 28.624 58.2675C28.7799 58.4453 28.9908 58.5851 29.251 58.6823C29.5129 58.7807 29.8341 58.8435 30.2062 58.8696C30.5179 58.8909 30.7959 58.8725 31.0335 58.8139C31.2693 58.7558 31.4827 58.6509 31.6682 58.5016C31.8833 58.3268 32.0379 58.1134 32.128 57.8687C32.2187 57.6216 32.2785 57.3045 32.304 56.9259L32.4664 54.5715C32.48 54.3777 32.4456 54.229 32.3656 54.13C32.2845 54.0305 32.1766 53.9771 32.0344 53.9671C31.8928 53.957 31.7796 53.9949 31.6895 54.0826C31.5994 54.1697 31.5467 54.3125 31.5336 54.5069L31.3659 56.9348C31.3369 57.3585 31.2314 57.6737 31.0536 57.8728C30.8735 58.0737 30.5819 58.162 30.1867 58.1348C29.9016 58.1152 29.6794 58.0471 29.5265 57.9315C29.3731 57.816 29.2693 57.6589 29.2196 57.4651C29.1704 57.2755 29.155 57.0391 29.1739 56.7629L29.3399 54.3546C29.3529 54.1626 29.3203 54.0145 29.2421 53.9149C29.1633 53.8142 29.0542 53.7608 28.9079 53.7508C28.7686 53.7407 28.656 53.7798 28.5648 53.8681C28.4735 53.9564 28.4208 54.0986 28.4071 54.2906L28.2448 56.645L28.2442 56.6462Z" fill="#075985"/>
<path d="M34.1885 54.389L34.6151 57.9357L36.6163 57.6951C36.7757 57.6761 36.9031 57.6998 36.9974 57.7674C37.0922 57.8349 37.1461 57.9274 37.1603 58.0447C37.1746 58.1644 37.1443 58.2663 37.0691 58.3505C36.9938 58.4352 36.8753 58.4868 36.7135 58.5063L34.3301 58.7926C34.115 58.8186 33.955 58.7896 33.8495 58.7055C33.744 58.6213 33.6783 58.4732 33.6528 58.2604L33.2018 54.5075C33.1781 54.3078 33.2048 54.1532 33.2824 54.0429C33.36 53.9321 33.472 53.8681 33.6184 53.8509C33.7665 53.8332 33.8928 53.8681 33.9965 53.9552C34.1002 54.0429 34.1642 54.1875 34.1885 54.389Z" fill="#075985"/>
<path d="M34.1891 58.8317C34.0368 58.8317 33.9171 58.7973 33.8311 58.7292C33.7197 58.6409 33.6498 58.4844 33.6231 58.2646L33.1722 54.5117C33.1473 54.3055 33.1763 54.1425 33.2581 54.0264C33.3405 53.909 33.4608 53.8403 33.6148 53.8219C33.7713 53.8035 33.9058 53.8403 34.016 53.9333C34.1251 54.0258 34.1932 54.1781 34.2187 54.3861L34.6418 57.9031L36.6134 57.6661C36.7793 57.6459 36.915 57.672 37.0151 57.7437C37.1165 57.816 37.1757 57.9161 37.1905 58.0412C37.206 58.1692 37.1728 58.28 37.0916 58.3707C37.0116 58.4601 36.8859 58.5158 36.7177 58.536L34.3342 58.8222C34.2833 58.8281 34.2347 58.8317 34.1897 58.8317H34.1891ZM33.6925 53.8758C33.6694 53.8758 33.6457 53.8776 33.6214 53.88C33.4827 53.8966 33.3796 53.9552 33.3061 54.0601C33.2332 54.1638 33.2077 54.3132 33.2302 54.5046L33.6812 58.2575C33.7055 58.4613 33.7683 58.6041 33.8673 58.6829C33.9662 58.7618 34.1203 58.7884 34.326 58.7641L36.7094 58.4779C36.8628 58.4595 36.9766 58.4104 37.0465 58.3315C37.1165 58.2533 37.1443 58.1609 37.1307 58.0489C37.1177 57.9392 37.0679 57.8551 36.9796 57.7923C36.8913 57.7301 36.7704 57.7075 36.6193 57.7253L34.5891 57.9695L34.1594 54.3932C34.1363 54.2 34.0753 54.0607 33.9775 53.9784C33.8963 53.9096 33.8027 53.8764 33.6925 53.8764V53.8758Z" fill="#075985"/>
<path d="M42.0812 56.9461L40.6845 57.493C40.483 57.5718 40.3212 57.5831 40.1997 57.5268C40.0782 57.4699 39.9787 57.3431 39.9011 57.1458L38.5559 53.7105C38.4771 53.509 38.464 53.3467 38.5179 53.224C38.5719 53.1013 38.6969 53.0012 38.8948 52.9236L40.3757 52.3434C40.5938 52.2581 40.7882 52.1976 40.9588 52.1615C41.1295 52.1259 41.293 52.1218 41.4501 52.149C41.5834 52.171 41.7108 52.2154 41.8329 52.2812C41.9544 52.3475 42.061 52.4317 42.1511 52.5342C42.2418 52.6367 42.3129 52.7541 42.365 52.8874C42.544 53.3443 42.4468 53.7686 42.0723 54.1597C42.7479 54.1158 43.1935 54.3701 43.4104 54.923C43.5105 55.1784 43.5354 55.4344 43.4845 55.6904C43.4335 55.9464 43.3162 56.1668 43.1319 56.3517C43.0157 56.4643 42.8717 56.568 42.6999 56.6628C42.528 56.7576 42.3224 56.8518 42.0812 56.9467V56.9461ZM39.5319 53.4753L39.9947 54.6569L40.8427 54.325C41.0732 54.2344 41.2427 54.1431 41.3517 54.0501C41.4602 53.957 41.5242 53.8367 41.5425 53.688C41.5603 53.5801 41.5479 53.4723 41.5058 53.3644C41.4151 53.1339 41.2735 53.0124 41.0791 53.0012C40.8853 52.9899 40.6199 53.0498 40.2833 53.1819L39.5319 53.4758V53.4753ZM41.2178 54.9437L40.2548 55.3206L40.7775 56.6551L41.7719 56.2658C42.3971 56.021 42.6216 55.6726 42.4451 55.2216C42.3544 54.9911 42.208 54.8554 42.0053 54.8151C41.8027 54.7748 41.5402 54.8175 41.2178 54.9437Z" fill="#075985"/>
<path d="M40.3728 57.5914C40.3034 57.5914 40.2418 57.579 40.1873 57.5535C40.0593 57.4936 39.9538 57.3603 39.8738 57.1564L38.5286 53.7212C38.4468 53.5132 38.4344 53.3413 38.4913 53.2115C38.5482 53.0818 38.6803 52.9751 38.8842 52.8957L40.3651 52.3155C40.5831 52.2302 40.7811 52.1686 40.9529 52.1324C41.1265 52.0963 41.2954 52.0921 41.4554 52.12C41.5911 52.1425 41.7227 52.1881 41.8471 52.2557C41.9716 52.3232 42.0812 52.4104 42.1736 52.5152C42.2661 52.6201 42.3396 52.7416 42.3929 52.8773C42.5677 53.3229 42.4836 53.7437 42.1434 54.1271C42.7905 54.104 43.2255 54.3689 43.4382 54.9129C43.5402 55.1724 43.5656 55.4361 43.5135 55.6969C43.4619 55.9576 43.3405 56.1852 43.1532 56.373C43.0353 56.4874 42.8877 56.5935 42.7147 56.6895C42.5428 56.7843 42.3336 56.8803 42.0925 56.9751L40.6957 57.5221C40.5754 57.5695 40.4676 57.5926 40.3728 57.5926V57.5914ZM41.2427 52.1609C41.152 52.1609 41.0596 52.171 40.9654 52.1905C40.7965 52.2261 40.6021 52.2865 40.387 52.3707L38.9061 52.9508C38.7171 53.0249 38.5962 53.1203 38.5458 53.2352C38.4954 53.3502 38.5085 53.5061 38.5843 53.6992L39.9295 57.1345C40.0036 57.3235 40.099 57.4468 40.2128 57.4995C40.3259 57.5523 40.4812 57.541 40.6744 57.4652L42.0711 56.9182C42.3099 56.8246 42.5168 56.7298 42.6862 56.6361C42.8545 56.5431 42.9979 56.44 43.1117 56.3298C43.2907 56.1502 43.4062 55.9333 43.4554 55.6844C43.5046 55.4355 43.4803 55.1825 43.3825 54.9336C43.1692 54.389 42.7414 54.1455 42.0741 54.1893L41.9982 54.1941L42.051 54.1389C42.4148 53.7585 42.5108 53.3413 42.3372 52.8981C42.2868 52.7689 42.2163 52.6533 42.1286 52.5538C42.0409 52.4548 41.9366 52.3718 41.8181 52.3072C41.6996 52.2432 41.5739 52.1994 41.4448 52.1781C41.379 52.1668 41.3108 52.1609 41.2421 52.1609H41.2427ZM40.7603 56.6936L40.2163 55.304L41.2071 54.9158C41.5331 54.7884 41.8039 54.7446 42.0113 54.7855C42.2234 54.8275 42.3787 54.9709 42.4729 55.2104C42.5642 55.4444 42.5517 55.6548 42.4344 55.8361C42.3194 56.0145 42.1002 56.168 41.7825 56.2924L40.7603 56.6924V56.6936ZM40.2928 55.3378L40.7935 56.6166L41.7606 56.2379C42.0658 56.1182 42.2756 55.9724 42.384 55.8047C42.4919 55.6376 42.5025 55.4504 42.4172 55.2323C42.3301 55.0095 42.1932 54.8827 41.9994 54.8435C41.8027 54.8044 41.5437 54.8471 41.2285 54.971L40.2928 55.3372V55.3378ZM39.9775 54.6954L39.4934 53.4587L40.272 53.1535C40.611 53.0207 40.8836 52.9597 41.0803 52.971C41.2859 52.9834 41.4382 53.112 41.5325 53.3532C41.5763 53.4658 41.5894 53.5801 41.571 53.6921C41.552 53.8462 41.4845 53.9748 41.3701 54.072C41.2593 54.1668 41.0851 54.261 40.8528 54.3517L39.9775 54.6948V54.6954ZM39.5698 53.4924L40.0107 54.619L40.8308 54.2978C41.0572 54.2089 41.2255 54.1182 41.3316 54.0281C41.4341 53.9404 41.4945 53.8249 41.5123 53.6844C41.5295 53.5813 41.5176 53.4776 41.4774 53.3751C41.3908 53.1541 41.2599 53.0415 41.0768 53.0302C40.8889 53.019 40.6246 53.0794 40.2934 53.2086L39.5698 53.4918V53.4924Z" fill="#075985"/>
<path d="M43.8098 54.0074L42.5369 52.0198C42.4284 51.8509 42.3852 51.6992 42.4071 51.5659C42.429 51.4326 42.5019 51.3265 42.6264 51.2465C42.7561 51.1635 42.8859 51.1398 43.0163 51.1754C43.1467 51.2109 43.2658 51.3134 43.3742 51.4829L44.6761 53.5155C44.8243 53.7466 44.9736 53.9232 45.1247 54.0453C45.2759 54.1674 45.4442 54.229 45.6308 54.2302C45.8169 54.2314 46.0284 54.1561 46.2655 54.0044C46.5926 53.7946 46.768 53.56 46.7917 53.2992C46.816 53.0385 46.7147 52.7315 46.4883 52.3783L45.1757 50.3292C45.0661 50.1579 45.0222 50.0068 45.0436 49.8746C45.0649 49.7431 45.139 49.6364 45.2646 49.5558C45.3902 49.4752 45.5194 49.4515 45.651 49.4853C45.7825 49.5191 45.9028 49.6216 46.0124 49.7923L47.2853 51.7798C47.4921 52.1028 47.6338 52.3932 47.709 52.6492C47.7843 52.9057 47.7873 53.1718 47.7173 53.4468C47.6563 53.682 47.5461 53.8954 47.3879 54.0868C47.2296 54.2782 47.0169 54.4595 46.7502 54.6302C46.4326 54.8334 46.1375 54.9745 45.8637 55.0527C45.5905 55.1309 45.3351 55.1446 45.0987 55.0936C44.8616 55.0426 44.6376 54.9265 44.4261 54.7452C44.2145 54.5638 44.0089 54.3173 43.8092 54.005L43.8098 54.0074Z" fill="#075985"/>
<path d="M45.3873 55.1552C45.2859 55.1552 45.1876 55.1452 45.0928 55.1244C44.8522 55.0729 44.6216 54.9532 44.4071 54.7695C44.1944 54.587 43.9852 54.3363 43.7843 54.0228L42.5114 52.0352C42.3994 51.8604 42.3544 51.701 42.3775 51.5606C42.4006 51.4195 42.4788 51.3052 42.6098 51.221C42.7461 51.1339 42.8853 51.1084 43.0234 51.1464C43.1603 51.1843 43.2865 51.2915 43.3985 51.4664L44.7005 53.499C44.8462 53.7265 44.995 53.9025 45.1425 54.0216C45.2871 54.1384 45.4513 54.1988 45.6302 54.2H45.635C45.8134 54.2 46.0202 54.1259 46.2489 53.979C46.5665 53.7757 46.739 53.5458 46.7621 53.2963C46.7852 53.0438 46.6851 52.7404 46.4634 52.3944L45.1508 50.3452C45.0376 50.1686 44.992 50.0086 45.0145 49.8699C45.0376 49.7301 45.1165 49.6163 45.2492 49.531C45.3813 49.4462 45.5194 49.4207 45.6587 49.4569C45.7973 49.4924 45.9248 49.6003 46.0379 49.7769L47.3108 51.7644C47.5182 52.0886 47.6622 52.3837 47.7381 52.6415C47.8145 52.9016 47.8175 53.1754 47.7464 53.4551C47.6842 53.6939 47.5716 53.9132 47.411 54.107C47.2516 54.3001 47.0347 54.485 46.7662 54.6569C46.4474 54.8607 46.147 55.0041 45.872 55.083C45.7049 55.131 45.5425 55.1547 45.3873 55.1547V55.1552ZM42.8972 51.189C42.8125 51.189 42.7277 51.2163 42.6418 51.2714C42.5239 51.3467 42.4569 51.4444 42.4362 51.5707C42.4154 51.6963 42.4575 51.8415 42.5612 52.0038L43.8341 53.9914C44.0314 54.2995 44.2371 54.5461 44.4456 54.725C44.6525 54.9022 44.8747 55.0172 45.1052 55.067C45.3363 55.1167 45.5888 55.1031 45.856 55.0267C46.1251 54.9496 46.4208 54.8086 46.7342 54.6077C46.9973 54.4394 47.2095 54.2581 47.3653 54.0702C47.52 53.883 47.6291 53.6714 47.6889 53.4415C47.7571 53.1724 47.7547 52.9093 47.6812 52.6592C47.6071 52.4068 47.4655 52.1164 47.2611 51.7976L45.9882 49.8101C45.8833 49.6465 45.7677 49.5475 45.6439 49.5155C45.5212 49.4841 45.3991 49.5067 45.2812 49.5825C45.1615 49.659 45.0933 49.7567 45.0732 49.8812C45.0531 50.005 45.0957 50.1508 45.2006 50.3144L46.5132 52.3635C46.7419 52.7209 46.8456 53.0373 46.8213 53.3028C46.7965 53.5718 46.6151 53.8166 46.2815 54.0299C46.0427 54.1828 45.8258 54.2604 45.6356 54.2604H45.6308C45.4382 54.2593 45.2622 54.1947 45.1064 54.069C44.9535 53.9458 44.8006 53.765 44.6513 53.5321L43.3493 51.4995C43.2456 51.3378 43.1307 51.2382 43.0086 51.205C42.9713 51.195 42.9345 51.1896 42.8978 51.1896L42.8972 51.189Z" fill="#075985"/>
<path d="M47.4572 48.466L50.8581 49.1404L48.7822 47.0876C48.6471 46.9543 48.5748 46.8251 48.5648 46.7007C48.5547 46.5762 48.5979 46.4648 48.6957 46.3659C48.7965 46.2645 48.9091 46.2177 49.0347 46.2254C49.1603 46.2337 49.2901 46.3042 49.4252 46.4376L52.1701 49.1516C52.4765 49.4545 52.5037 49.733 52.2531 49.9866C52.1902 50.05 52.1245 50.098 52.0563 50.1306C51.9876 50.1632 51.9117 50.1822 51.8282 50.1875C51.7446 50.1928 51.6575 50.1875 51.5662 50.1733C51.4756 50.1591 51.3837 50.1431 51.2901 50.1265L47.9461 49.442L49.9911 51.4639C50.1245 51.5961 50.1944 51.7265 50.2015 51.8556C50.2086 51.9848 50.1642 52.098 50.0688 52.1946C49.9698 52.2948 49.856 52.3404 49.7274 52.3327C49.5988 52.325 49.4685 52.2556 49.3369 52.1253L46.6448 49.4628C46.5304 49.3496 46.4534 49.2482 46.4136 49.1588C46.3722 49.058 46.3633 48.9502 46.387 48.8358C46.4107 48.7214 46.4628 48.6237 46.5428 48.5425C46.6056 48.4791 46.6697 48.4346 46.7348 48.4103C46.8 48.3854 46.867 48.3736 46.9357 48.3736C47.0045 48.3736 47.0839 48.3836 47.1751 48.4032C47.2658 48.4228 47.3606 48.4429 47.4584 48.4642L47.4572 48.466Z" fill="#075985"/>
<path d="M49.7547 52.3653C49.7446 52.3653 49.7345 52.3653 49.7245 52.3641C49.5893 52.3558 49.4513 52.2829 49.315 52.1484L46.6228 49.4859C46.5067 49.3709 46.4267 49.2654 46.3852 49.173C46.3413 49.0663 46.3319 48.952 46.3567 48.8317C46.3816 48.712 46.4367 48.6083 46.5203 48.5235C46.5855 48.4572 46.6536 48.4103 46.723 48.3843C46.7911 48.3582 46.8599 48.3452 46.9345 48.3457C47.0045 48.3457 47.0874 48.3564 47.1799 48.376C47.2705 48.3955 47.3653 48.4157 47.4631 48.437L50.7668 49.0924L48.7609 47.109C48.6216 46.9709 48.5452 46.8346 48.5345 46.7031C48.5239 46.5697 48.5707 46.4494 48.6738 46.3452C48.7799 46.2379 48.9025 46.1869 49.0359 46.1958C49.168 46.2041 49.3061 46.2788 49.4453 46.4163L52.1902 49.1303C52.509 49.4456 52.5369 49.7407 52.2732 50.0074C52.208 50.0731 52.1393 50.1235 52.0682 50.1573C51.9965 50.1917 51.9159 50.2118 51.8287 50.2171C51.7434 50.2225 51.6533 50.2171 51.5609 50.2029C51.4696 50.1881 51.3778 50.1727 51.2842 50.1561L48.0367 49.4918L50.0107 51.4438C50.1487 51.5807 50.2228 51.7188 50.2299 51.8551C50.2376 51.9926 50.1896 52.114 50.0883 52.2166C49.9911 52.3149 49.8791 52.3641 49.7541 52.3641L49.7547 52.3653ZM46.9316 48.4056C46.8676 48.4056 46.8042 48.4174 46.7437 48.44C46.6827 48.4631 46.6216 48.5057 46.5618 48.5656C46.4859 48.642 46.4362 48.7357 46.4136 48.8441C46.3911 48.952 46.3994 49.0551 46.4385 49.1499C46.4765 49.2352 46.5523 49.3342 46.6631 49.4444L49.3553 52.1069C49.4809 52.2314 49.6059 52.2983 49.7268 52.3054C49.8477 52.3132 49.952 52.2705 50.045 52.1763C50.1357 52.085 50.176 51.9813 50.1695 51.8592C50.163 51.7383 50.0954 51.6127 49.968 51.4871L47.8525 49.3946L51.2942 50.0992C51.3867 50.1158 51.4785 50.1318 51.5692 50.146C51.6575 50.1603 51.7434 50.165 51.824 50.1597C51.9034 50.1549 51.9763 50.1366 52.0415 50.1057C52.1067 50.0749 52.1701 50.0281 52.2299 49.9677C52.4693 49.7253 52.4421 49.4663 52.1476 49.1742L49.4027 46.4601C49.2741 46.3327 49.1485 46.264 49.0311 46.2569C48.9138 46.2492 48.8101 46.2924 48.7153 46.3884C48.6234 46.4814 48.5837 46.5828 48.5932 46.6995C48.6027 46.8163 48.6732 46.9401 48.8024 47.0681L50.9482 49.1902L47.4501 48.4963C47.3523 48.4749 47.2581 48.4542 47.1668 48.4352C47.0779 48.4163 46.9997 48.4068 46.9333 48.4062H46.931L46.9316 48.4056Z" fill="#075985"/>
</g>
<defs>
<clipPath id="clip0_1922_10606">
<rect width="64" height="64" fill="white" transform="translate(0 -1)"/>
</clipPath>
</defs>
</svg>
